{"glyphs":{"ꀊ":{"ha":1290,"x_min":0,"x_max":0,"o":"m 690 897 b 667 904 690 897 667 897 b 679 947 667 911 679 921 b 646 972 679 958 664 972 b 611 947 626 972 611 958 b 624 904 611 921 624 911 b 600 897 624 897 600 897 l 600 881 l 690 881 z m 383 629 l 908 629 b 1011 686 960 629 997 669 l 1003 693 b 960 686 1003 693 971 686 b 690 858 915 686 800 733 l 600 858 b 331 686 492 733 376 686 b 289 693 319 686 289 693 l 281 686 b 383 629 292 669 331 629 z m 338 488 l 592 488 l 592 533 l 699 533 l 699 488 l 953 488 b 1151 567 1103 488 1151 567 l 1147 578 b 1071 567 1147 578 1099 567 b 908 601 1021 567 965 581 l 383 601 b 219 567 325 581 271 567 b 144 578 193 567 144 578 l 139 567 b 338 488 139 567 189 488 z m 1054 460 l 699 460 l 699 371 l 592 371 l 592 460 l 236 460 l 236 394 l 440 394 l 440 0 l 532 0 l 532 133 b 646 274 532 222 582 274 b 758 133 708 274 758 222 l 758 0 l 850 0 l 850 394 l 1054 394 z m 213 317 l 140 0 l 413 0 l 413 367 l 203 367 z m 1086 367 l 878 367 l 878 0 l 1150 0 l 1079 317 z "},"ꀋ":{"ha":2131,"x_min":0,"x_max":0,"o":"m 1236 828 b 1333 876 1268 828 1333 876 l 1333 890 b 1326 913 1333 896 1329 908 b 1278 903 1321 908 1292 900 b 1233 919 1258 907 1243 913 l 1233 932 b 1204 972 1233 946 1213 972 b 1196 958 1196 972 1196 965 b 1200 942 1196 956 1199 947 l 961 942 b 965 958 963 947 965 956 b 957 972 965 965 965 972 b 928 932 947 972 928 946 l 928 918 b 883 903 918 913 904 907 b 835 913 871 900 842 908 b 829 890 833 908 829 896 l 829 876 b 933 828 829 876 906 828 z m 818 740 b 917 785 840 740 917 785 l 917 797 b 911 818 917 801 913 814 b 872 808 907 814 883 806 b 843 821 863 811 851 815 l 843 838 b 815 876 843 851 822 876 b 807 863 806 876 807 868 b 811 846 807 860 810 851 l 631 846 b 636 863 632 851 636 860 b 628 876 636 868 636 876 b 597 838 618 876 597 851 l 597 825 b 560 808 589 819 576 813 b 521 818 550 806 528 814 b 517 785 519 814 517 785 b 615 740 517 785 593 740 z m 1326 825 b 1290 808 1319 819 1307 813 b 1251 818 1278 806 1254 814 b 1246 797 1249 814 1246 801 l 1246 785 b 1344 740 1246 785 1322 740 l 1546 740 b 1646 785 1569 740 1646 785 l 1646 797 b 1642 818 1646 801 1643 814 b 1603 808 1635 814 1613 806 b 1575 821 1590 811 1581 815 l 1575 838 b 1543 876 1575 851 1553 876 b 1536 863 1535 876 1536 868 b 1542 846 1536 860 1539 851 l 1358 846 b 1364 863 1360 851 1364 860 b 1357 876 1364 868 1365 876 b 1326 838 1347 876 1326 851 z m 976 746 l 976 761 l 983 761 l 983 778 l 988 778 l 988 793 l 997 793 l 997 810 l 933 810 l 933 793 l 943 793 l 943 778 l 947 778 l 947 761 l 953 761 l 953 746 z m 1054 746 l 1054 761 l 1058 761 l 1058 778 l 1067 778 l 1067 793 l 1075 793 l 1075 810 l 1011 810 l 1011 793 l 1021 793 l 1021 778 l 1028 778 l 1028 761 l 1031 761 l 1031 746 z m 1131 746 l 1131 761 l 1133 761 l 1133 778 l 1140 778 l 1140 793 l 1150 793 l 1150 810 l 1086 810 l 1086 793 l 1094 793 l 1094 778 l 1101 778 l 1101 761 l 1107 761 l 1107 746 z m 1210 746 l 1210 761 l 1213 761 l 1213 778 l 1219 778 l 1219 793 l 1229 793 l 1229 810 l 1165 810 l 1165 793 l 1174 793 l 1174 778 l 1179 778 l 1179 761 l 1186 761 l 1186 746 z m 488 682 b 565 715 507 682 565 715 l 565 728 b 561 747 565 732 563 742 b 532 746 556 742 540 743 b 504 761 518 750 510 756 l 504 775 b 482 797 504 783 488 797 b 476 790 475 797 476 793 b 481 781 476 789 478 783 l 336 781 b 339 790 338 783 339 789 b 335 797 339 793 339 797 b 314 775 328 797 314 783 l 314 761 b 283 746 306 756 297 750 b 253 750 275 743 258 744 b 250 731 251 744 250 735 l 250 718 b 328 682 250 718 308 682 z m 1601 756 b 1597 736 1600 750 1597 740 l 1597 724 b 1676 682 1597 724 1656 682 l 1833 682 b 1913 724 1851 682 1913 724 l 1913 736 b 1910 756 1913 740 1911 750 b 1879 746 1904 750 1888 743 b 1849 761 1865 750 1856 756 l 1849 775 b 1828 797 1849 783 1833 797 b 1824 790 1824 797 1824 793 b 1826 781 1824 789 1825 783 l 1682 781 b 1686 790 1683 783 1686 789 b 1681 797 1686 793 1688 797 b 1660 775 1675 797 1660 783 l 1660 761 b 1631 746 1653 756 1644 750 b 1601 756 1622 743 1604 750 z m 1989 556 b 1958 549 1983 553 1967 547 b 1914 571 1924 557 1914 571 l 1833 571 l 1833 622 l 1647 622 l 1647 589 l 1565 589 l 1565 656 l 1340 656 l 1340 622 l 1264 622 l 1264 735 l 899 735 l 899 622 l 821 622 l 821 656 l 597 656 l 597 589 l 515 589 l 515 622 l 296 622 l 296 571 l 215 571 b 171 549 215 571 201 549 b 143 558 164 549 149 554 b 139 532 142 554 139 540 b 218 507 139 532 165 507 l 296 507 l 296 474 l 224 474 l 224 157 l 303 157 l 303 249 b 392 344 303 313 343 344 b 483 249 443 344 483 313 l 483 157 l 586 157 l 586 271 b 706 392 586 351 640 392 b 821 271 768 392 821 351 l 821 157 l 924 157 l 924 274 b 1081 436 924 382 994 436 b 1236 274 1168 436 1236 382 l 1236 157 l 1340 157 l 1340 271 b 1458 392 1340 351 1393 392 b 1576 271 1522 392 1576 351 l 1576 157 l 1679 157 l 1679 250 b 1769 346 1679 313 1719 346 b 1860 250 1818 346 1860 313 l 1861 157 l 1938 157 l 1938 474 l 1833 474 l 1833 507 l 1913 507 b 1990 532 1965 507 1990 532 b 1992 539 1990 532 1992 536 b 1989 556 1992 543 1990 553 z m 1378 668 l 1378 681 l 1382 681 l 1382 694 l 1390 694 l 1390 708 l 1399 708 l 1399 722 l 1333 722 l 1333 708 l 1343 708 l 1343 694 l 1349 694 l 1349 681 l 1356 681 l 1356 668 z m 1458 668 l 1458 681 l 1460 681 l 1460 694 l 1468 694 l 1468 708 l 1478 708 l 1478 722 l 1415 722 l 1415 708 l 1422 708 l 1422 694 l 1429 694 l 1429 681 l 1433 681 l 1433 668 z m 1536 668 l 1536 681 l 1542 681 l 1542 694 l 1547 694 l 1547 708 l 1557 708 l 1557 722 l 1493 722 l 1493 708 l 1501 708 l 1501 694 l 1508 694 l 1508 681 l 1514 681 l 1514 668 z m 821 713 l 597 713 l 597 706 l 621 679 l 651 679 l 671 706 l 696 679 l 724 679 l 744 706 l 768 679 l 799 679 l 821 706 z m 1194 557 l 967 557 l 967 682 l 1194 682 z m 329 671 l 329 663 l 346 629 l 365 629 l 381 663 l 394 629 l 415 629 l 429 663 l 444 629 l 465 629 l 481 663 l 481 671 z m 1682 671 l 1682 663 l 1697 629 l 1717 629 l 1732 663 l 1747 629 l 1768 629 l 1782 663 l 1796 629 l 1817 629 l 1832 663 l 1832 671 z m 899 539 l 821 539 l 821 571 l 899 571 z m 1340 539 l 1264 539 l 1264 571 l 1340 571 z m 597 507 l 515 507 l 515 539 l 597 539 z m 1647 507 l 1565 507 l 1565 539 l 1647 539 z m 197 0 l 328 0 l 328 129 l 197 129 z m 456 0 l 614 0 l 614 129 l 456 129 z m 796 0 l 951 0 l 951 129 l 796 129 z m 1211 0 l 1367 0 l 1367 129 l 1211 129 z m 1549 0 l 1706 0 l 1706 129 l 1549 129 z m 1833 0 l 1965 0 l 1965 129 l 1833 129 z "},"ꀈ":{"ha":900,"x_min":0,"x_max":0,"o":"m 756 344 l 743 357 b 722 374 739 361 729 369 l 622 426 b 604 442 617 431 608 438 l 571 476 b 558 496 565 482 561 490 l 542 539 b 544 557 540 544 540 553 l 564 581 b 581 590 567 585 576 590 l 586 590 b 606 594 592 592 601 593 b 608 600 607 596 608 597 b 603 613 610 603 608 608 l 578 636 b 571 656 575 642 571 649 l 565 686 b 578 721 567 690 572 707 b 576 747 581 729 581 740 l 571 757 b 557 765 568 763 563 765 b 549 763 554 765 551 765 l 518 742 b 506 744 514 740 508 740 b 482 756 501 751 490 756 l 421 753 b 396 750 414 753 401 751 l 339 735 l 335 735 b 321 739 329 735 325 736 l 318 742 b 299 750 313 747 306 750 b 292 749 297 750 293 750 l 272 742 b 250 739 267 740 257 739 l 235 738 b 214 744 229 738 219 742 l 185 763 b 171 767 182 765 176 767 b 160 765 167 767 164 767 b 142 747 153 761 146 753 b 143 721 138 739 139 728 b 210 639 189 665 204 644 b 190 606 206 633 196 617 b 190 578 186 597 185 586 l 204 549 b 204 533 207 544 207 536 b 196 511 199 526 196 518 b 210 500 196 506 203 500 b 215 501 211 500 213 500 l 229 504 l 231 504 b 243 497 235 504 240 501 l 250 485 b 265 465 253 479 261 471 l 293 426 b 313 408 299 421 307 413 b 374 358 329 396 372 360 l 376 358 b 410 367 376 358 379 358 b 431 367 414 369 425 369 l 483 350 b 503 338 490 347 499 342 l 561 268 b 571 249 565 263 569 256 b 575 221 572 222 572 222 l 576 221 b 617 224 579 221 607 222 b 636 219 622 225 632 222 l 653 210 b 674 206 657 207 665 206 l 678 206 l 701 210 b 722 226 711 211 719 219 l 738 271 b 746 293 739 276 743 288 l 758 318 b 756 344 763 326 761 338 z "},"ꀉ":{"ha":1081,"x_min":0,"x_max":0,"o":"m 615 972 l 463 972 l 463 517 l 615 517 z m 740 489 l 332 489 l 332 372 l 740 372 z m 854 344 l 226 344 l 226 186 l 854 186 z m 357 214 l 300 214 l 300 317 l 357 317 z m 442 214 l 385 214 l 385 317 l 442 317 z m 526 214 l 469 214 l 469 317 l 526 317 z m 613 214 l 554 214 l 554 317 l 613 317 z m 697 214 l 639 214 l 639 317 l 697 317 z m 781 214 l 724 214 l 724 317 l 781 317 z m 139 158 l 139 0 l 942 0 l 942 158 z m 268 11 l 232 11 b 213 47 222 11 213 28 b 231 92 213 67 231 83 b 218 108 231 103 218 101 b 282 108 218 117 282 117 b 269 92 282 101 269 103 b 288 47 269 83 288 67 b 268 11 288 28 276 11 z m 850 11 l 813 11 b 793 47 804 11 793 28 b 811 92 793 67 811 83 b 800 108 811 103 800 101 b 863 108 800 117 863 117 b 850 92 863 101 850 103 b 869 47 850 83 869 67 b 850 11 869 28 858 11 z "},"ꀠ":{"ha":1000,"x_min":0,"x_max":0,"o":"m 699 408 b 721 465 719 428 735 435 b 664 492 706 497 664 492 l 664 518 b 696 590 671 526 688 572 b 690 649 707 610 696 638 b 667 726 685 660 675 696 b 614 804 660 765 639 797 b 513 825 589 811 513 825 l 511 853 b 521 871 519 851 524 865 b 524 899 519 875 521 888 b 519 908 525 910 519 908 l 519 918 b 475 972 519 942 499 972 b 451 968 458 972 451 968 b 429 972 451 968 447 972 b 392 933 404 972 392 933 b 383 940 392 933 385 938 b 363 942 381 943 365 942 b 335 917 360 942 338 925 b 343 863 332 907 344 875 b 317 797 342 851 322 813 b 290 733 313 781 301 774 b 294 697 283 708 288 697 b 317 701 299 697 308 700 b 360 689 333 703 350 699 b 428 599 375 674 428 599 b 428 576 431 594 439 585 b 407 583 418 569 408 581 b 340 668 383 617 357 660 b 290 667 329 674 311 676 b 269 574 269 657 269 633 b 307 435 269 551 297 468 b 314 401 311 421 314 411 b 297 364 314 394 301 371 b 267 311 288 349 264 335 b 329 308 269 286 299 299 b 364 346 361 318 363 331 l 364 401 b 369 436 364 414 369 426 b 358 521 369 458 369 489 b 367 538 356 529 360 535 b 383 528 374 540 381 535 b 397 421 393 504 397 471 b 415 401 403 414 410 406 b 481 374 435 388 453 374 b 538 371 519 378 531 371 b 558 385 546 371 553 371 b 615 443 569 404 579 431 b 640 444 619 444 635 451 b 633 429 646 438 640 432 b 583 378 600 415 593 396 b 551 342 572 357 567 347 b 514 308 536 336 514 332 b 564 281 514 290 533 281 b 679 307 610 281 679 275 b 638 343 679 329 638 328 b 699 408 638 375 676 390 z m 369 786 l 369 835 b 382 881 369 854 379 865 b 389 854 382 881 388 869 b 401 838 389 842 401 838 l 414 807 z m 622 628 b 607 543 628 594 615 561 b 571 500 593 510 586 493 b 579 553 558 506 575 528 b 585 628 583 575 588 597 b 575 683 583 646 582 665 b 578 704 574 689 571 697 b 601 694 586 713 597 701 b 622 628 615 671 618 650 z m 794 497 l 717 497 b 744 472 731 493 738 485 b 721 389 763 435 757 419 b 664 350 706 376 664 367 b 706 307 664 339 706 339 b 563 253 706 260 651 253 b 488 308 517 253 488 269 b 514 347 488 317 490 335 b 479 346 503 349 492 346 b 411 369 449 346 435 350 b 390 389 403 376 394 386 b 390 344 392 372 390 354 b 342 283 390 308 369 294 b 279 268 325 276 294 268 b 240 307 256 268 240 283 b 267 367 240 336 257 357 b 283 401 274 374 283 396 b 279 429 283 407 282 419 b 256 497 276 440 265 467 l 206 497 l 139 225 l 861 225 z m 139 197 l 139 0 l 861 0 l 861 197 z m 704 51 l 296 51 l 296 146 l 704 146 z "},"ꀡ":{"ha":857,"x_min":0,"x_max":0,"o":"m 678 175 l 678 578 l 650 578 b 599 543 642 558 621 543 l 599 526 l 539 526 l 539 1000 l 506 1000 l 489 975 l 443 1032 l 443 1111 l 415 1111 l 415 1032 l 369 974 l 351 1000 l 318 1000 l 318 526 l 258 526 l 258 543 b 206 578 236 543 214 558 l 178 578 l 178 175 l 139 0 l 718 0 z m 379 888 l 479 888 l 479 860 l 379 860 z m 379 832 l 479 832 l 479 804 l 379 804 z m 379 776 l 479 776 l 479 749 l 379 749 z m 379 721 l 479 721 l 479 693 l 379 693 z m 379 665 l 479 665 l 479 638 l 379 638 z m 379 610 l 479 610 l 479 582 l 379 582 z m 379 554 l 479 554 l 479 526 l 379 526 z m 225 467 l 318 467 l 318 439 l 225 439 z m 488 242 l 464 242 b 428 221 457 229 443 221 b 393 242 414 221 400 229 l 369 242 l 369 467 l 488 467 z m 539 467 l 629 467 l 629 439 l 539 439 z m 225 411 l 318 411 l 318 383 l 225 383 z m 539 411 l 629 411 l 629 383 l 539 383 z m 225 356 l 318 356 l 318 328 l 225 328 z m 539 356 l 629 356 l 629 328 l 539 328 z m 225 300 l 318 300 l 318 272 l 225 272 z m 539 300 l 629 300 l 629 272 l 539 272 z m 225 244 l 318 244 l 318 217 l 225 217 z m 539 244 l 629 244 l 629 217 l 539 217 z m 488 35 l 369 35 l 369 208 l 379 208 b 428 188 392 194 410 188 b 476 208 447 188 465 194 l 488 208 z m 335 35 l 192 35 l 222 174 l 335 174 z m 522 174 l 635 174 l 665 35 l 522 35 z m 236 146 l 307 146 l 307 118 l 236 118 z m 392 118 l 465 118 l 465 146 l 392 146 z m 550 146 l 621 146 l 621 118 l 550 118 z m 236 90 l 307 90 l 307 63 l 236 63 z m 392 63 l 465 63 l 465 90 l 392 90 z m 550 90 l 621 90 l 621 63 l 550 63 z "},"ꀞ":{"ha":1779,"x_min":0,"x_max":0,"o":"m 1640 721 b 1597 801 1640 756 1624 786 l 1597 808 b 1510 904 1597 860 1558 900 b 1390 969 1485 943 1440 969 b 1264 890 1335 969 1288 936 b 1249 892 1258 890 1254 892 b 1156 833 1204 892 1172 860 l 1272 833 l 1272 496 b 1290 486 1282 492 1290 486 b 1326 339 1311 464 1322 388 l 1417 339 l 1417 160 l 1458 160 b 1449 325 1456 214 1449 282 b 1485 486 1449 399 1458 435 b 1640 642 1571 486 1640 556 b 1633 686 1640 657 1638 672 b 1640 721 1638 697 1640 710 z m 378 806 l 378 175 l 447 175 l 447 186 b 522 260 447 225 481 260 b 571 233 542 260 560 247 l 571 325 b 818 572 571 461 682 572 b 1065 325 954 572 1065 461 l 1065 225 b 1114 249 1076 239 1094 249 b 1175 186 1147 249 1175 221 l 1175 160 l 1244 160 l 1244 806 z m 1000 628 l 635 628 l 635 739 l 1000 739 z m 818 544 b 599 321 697 544 599 446 l 599 71 l 638 71 l 638 313 b 818 494 638 414 717 494 b 999 313 918 494 999 414 l 999 71 l 1038 71 l 1038 321 b 818 544 1038 446 939 544 z m 350 311 l 232 311 l 232 175 l 350 175 z m 1389 160 l 1389 311 l 1272 311 l 1272 160 z m 522 232 b 475 186 496 232 475 211 l 475 147 l 139 147 l 139 0 l 568 0 l 568 186 b 522 232 568 211 547 232 z m 1160 133 l 1160 186 b 1114 232 1160 211 1140 232 b 1065 186 1089 232 1065 211 l 1065 0 l 1550 0 l 1550 133 z "},"ꀟ":{"ha":1199,"x_min":0,"x_max":0,"o":"m 317 806 l 882 806 b 956 867 938 806 956 847 b 950 875 956 871 953 874 b 942 874 946 876 943 876 l 938 871 b 908 854 931 863 924 854 b 763 914 869 856 786 903 l 763 932 b 757 938 763 935 761 938 b 731 946 744 938 740 940 b 747 1001 744 963 747 983 b 732 1017 747 1008 740 1017 b 717 1001 722 1017 717 1008 b 683 975 717 976 694 975 b 614 1067 646 1011 621 1056 l 614 1106 b 608 1111 614 1110 613 1111 l 589 1111 b 583 1106 586 1111 583 1110 l 583 1067 b 514 975 578 1056 554 1011 b 481 1001 506 975 481 978 b 465 1017 481 1008 475 1017 b 450 1001 457 1017 450 1008 b 468 946 450 983 451 963 b 442 938 460 940 451 938 b 436 932 438 938 436 936 l 436 914 b 289 854 413 903 328 856 b 260 871 274 854 267 863 l 257 874 b 249 875 254 876 250 876 b 243 867 244 874 243 871 b 317 806 243 847 263 806 z m 599 1015 b 664 933 617 989 646 950 l 535 933 b 599 1015 551 949 581 989 z m 832 653 l 833 778 l 364 778 l 367 653 l 557 653 l 557 743 l 640 743 l 640 653 z m 1053 578 b 1043 574 1049 579 1044 576 b 1013 553 1039 564 1033 554 b 861 625 975 556 861 625 l 339 625 l 186 553 b 154 574 165 553 158 564 b 146 578 153 576 149 579 b 139 568 142 576 139 574 b 213 506 139 539 165 507 l 985 506 b 1060 568 1033 507 1060 539 b 1053 578 1060 574 1057 576 z m 225 478 l 225 297 l 260 297 l 260 478 z m 311 297 l 889 297 l 889 478 l 311 478 z m 938 478 l 938 297 l 972 297 l 972 478 z m 532 408 b 599 408 554 390 578 397 b 667 408 622 417 644 426 l 667 342 b 599 342 644 361 622 351 b 532 343 578 333 554 324 z m 183 210 l 1014 210 l 1014 269 l 183 269 z m 183 0 l 317 0 l 317 100 b 361 135 317 118 336 135 b 406 100 386 135 406 118 l 406 0 l 481 0 l 481 100 b 525 135 481 118 500 135 b 569 100 550 135 569 118 l 569 0 l 672 0 l 672 100 b 717 135 672 118 692 135 b 761 100 742 135 761 118 l 761 0 l 821 0 l 821 100 b 865 135 821 118 840 135 b 910 100 890 135 910 118 l 910 0 l 1014 0 l 1014 182 l 183 182 z "},"ꁠ":{"ha":1250,"x_min":0,"x_max":0,"o":"m 625 972 b 139 486 357 972 139 754 b 625 0 139 219 357 0 b 1111 486 893 0 1111 219 b 625 972 1111 754 893 972 z m 625 61 b 200 486 392 61 200 253 b 625 911 200 719 392 911 b 1051 486 858 911 1051 719 b 625 61 1051 253 858 61 z m 551 594 l 581 568 l 625 610 l 558 676 l 507 635 l 507 706 l 597 706 l 597 768 l 446 768 l 446 622 l 390 679 l 319 610 l 365 568 l 390 594 l 422 560 l 446 581 l 446 494 l 390 550 l 319 483 l 365 440 l 390 465 l 422 432 l 446 454 l 446 404 l 346 404 l 346 344 l 446 344 l 446 276 l 346 276 l 346 217 l 606 217 l 606 276 l 507 276 l 507 344 l 606 344 l 606 404 l 507 404 l 507 431 l 551 469 l 581 440 l 625 483 l 558 549 l 507 506 l 507 560 z m 883 765 l 642 765 l 642 583 l 883 583 z m 824 643 l 704 643 l 704 704 l 824 704 z m 642 471 l 704 471 l 704 406 l 642 406 l 642 217 l 888 217 l 888 276 l 704 276 l 704 346 l 888 346 l 888 531 l 642 531 z m 826 406 l 765 406 l 765 471 l 826 471 z "},"ꁡ":{"ha":1250,"x_min":0,"x_max":0,"o":"m 1111 485 l 664 485 l 664 550 l 1106 550 b 665 968 1072 781 892 950 l 665 888 b 1000 633 817 872 946 771 l 664 633 l 664 668 b 768 733 664 708 768 733 l 768 828 b 664 853 768 846 685 853 l 582 853 b 479 828 561 853 479 846 l 479 733 b 583 668 479 733 583 708 l 583 633 l 249 633 b 585 888 304 771 432 872 l 585 968 b 144 550 358 950 165 767 l 583 550 l 583 485 l 139 485 b 624 0 139 218 357 0 b 1111 485 893 0 1111 222 z m 624 81 b 229 403 431 81 268 219 l 583 403 l 583 340 b 483 297 578 328 557 311 b 343 256 400 282 343 265 l 343 208 l 901 208 l 901 256 b 763 297 901 265 844 282 b 664 340 689 311 667 328 l 664 403 l 1021 403 b 624 81 982 219 818 81 z "},"ꁞ":{"ha":1235,"x_min":0,"x_max":0,"o":"m 231 618 b 256 594 231 618 243 594 b 268 625 268 600 257 621 b 351 674 275 633 332 649 b 369 757 371 694 392 721 b 282 788 344 792 290 788 b 169 744 272 788 211 782 b 158 633 129 706 131 657 b 231 618 182 608 231 618 z m 1061 668 b 1096 718 1089 688 1096 708 b 1006 783 1096 731 1101 783 b 853 683 913 783 853 740 b 944 617 853 626 900 617 b 969 594 951 608 956 592 b 982 626 982 596 983 621 b 1061 668 982 626 1032 649 z m 1044 749 b 1053 749 1046 749 1050 751 b 1063 743 1057 747 1058 747 b 1071 726 1071 735 1075 728 b 1057 726 1067 725 1061 722 l 1046 736 b 1040 743 1043 739 1040 739 b 1044 749 1040 744 1043 749 z m 340 747 b 353 740 344 744 349 744 b 353 728 357 736 353 728 l 343 728 b 332 744 335 728 332 740 b 340 747 332 744 339 751 z m 188 643 b 164 683 164 651 164 665 b 190 731 164 701 172 721 b 226 749 204 744 225 749 b 215 726 231 749 233 747 b 199 683 200 713 199 683 b 213 647 199 664 208 651 b 188 643 217 639 213 635 z m 288 747 b 300 744 296 747 300 744 b 290 739 300 740 294 739 b 274 743 286 739 275 739 b 288 747 274 744 288 747 z m 935 726 b 913 682 926 718 913 708 b 925 644 913 668 925 656 b 896 649 925 633 900 640 b 879 686 888 660 879 668 b 900 731 879 704 890 721 b 939 744 913 743 932 749 b 935 726 944 744 940 731 z m 1006 744 b 1019 744 1013 744 1022 747 b 1006 735 1019 739 1013 735 b 988 740 996 735 989 736 b 1006 744 986 744 989 747 z m 247 694 b 279 708 251 701 272 710 b 292 701 286 708 292 708 b 275 674 292 690 283 675 b 244 678 272 671 244 671 b 247 694 244 688 244 688 z m 965 690 b 993 708 965 696 983 708 b 1006 694 1001 708 1006 704 b 979 674 1006 686 989 674 b 965 690 965 674 961 679 z m 913 481 b 879 446 913 481 883 476 b 778 257 874 419 865 336 b 532 169 690 182 568 169 b 244 432 226 183 244 411 b 218 490 244 454 253 490 b 182 399 186 490 182 440 b 544 118 204 118 506 118 b 944 421 896 131 944 389 b 913 481 944 458 935 481 z "},"ꁟ":{"ha":1247,"x_min":0,"x_max":0,"o":"m 1011 886 l 239 886 b 139 800 186 886 138 844 b 229 190 147 593 201 279 b 356 67 251 122 285 67 l 881 67 b 1006 190 950 67 986 121 b 1108 800 1033 279 1093 594 b 1011 886 1110 844 1064 885 z m 867 104 l 381 104 b 307 174 336 106 313 129 l 239 861 l 1011 861 l 942 174 b 867 104 936 129 913 106 z m 751 803 l 706 803 b 701 686 706 803 704 719 b 667 522 694 604 675 549 b 644 472 653 481 647 472 b 665 563 644 472 654 506 b 681 803 679 629 681 803 l 533 803 b 535 492 533 803 547 560 b 499 368 528 447 525 425 l 489 368 b 336 235 426 368 360 317 b 357 211 331 218 339 211 b 499 265 393 211 463 240 b 754 188 499 265 657 188 b 924 324 839 188 894 283 b 608 347 815 324 718 324 b 751 781 713 471 751 597 z m 367 238 b 363 240 365 238 363 239 b 424 290 363 254 389 290 b 440 288 431 290 436 290 b 367 238 418 264 374 238 z "},"ꁘ":{"ha":1178,"x_min":0,"x_max":0,"o":"m 981 846 b 356 972 775 926 574 965 b 264 925 306 972 278 954 b 140 296 199 768 125 419 b 183 233 144 261 154 250 b 442 151 225 210 401 161 b 376 31 436 126 424 74 b 371 15 368 25 368 22 b 375 10 371 13 374 11 b 393 7 378 4 385 0 b 547 129 454 33 504 69 b 844 100 642 111 742 101 b 917 153 882 99 899 118 b 1039 771 1000 356 1038 551 b 981 846 1038 806 1025 824 z "},"ꁜ":{"ha":1239,"x_min":0,"x_max":0,"o":"m 647 786 b 672 781 656 782 664 781 b 700 785 683 781 692 781 b 794 810 732 793 761 806 b 836 781 826 817 833 813 b 840 686 839 749 839 718 b 843 671 840 682 838 675 b 861 678 850 668 857 671 b 890 729 874 693 885 710 b 853 925 907 800 903 867 b 817 935 840 939 828 942 b 722 888 786 915 751 910 b 638 844 697 868 661 869 b 647 786 614 819 615 803 z m 653 496 b 700 557 664 519 678 544 b 779 643 738 576 757 611 b 768 760 814 696 810 725 b 697 738 740 783 707 772 b 688 718 696 729 693 724 b 614 542 638 668 624 604 b 626 496 619 524 615 510 b 653 496 640 474 646 482 z m 268 457 b 213 507 250 475 231 490 b 214 556 197 522 197 538 b 271 593 231 571 249 583 b 363 653 303 608 338 622 b 358 693 374 667 379 682 b 307 699 343 717 325 708 b 172 633 258 683 213 663 b 139 576 153 619 136 603 b 256 438 144 517 199 451 b 275 442 261 436 271 433 b 268 457 279 449 272 454 z m 1094 476 b 974 608 1071 533 1033 581 b 942 608 964 614 951 621 b 947 574 932 597 942 585 b 1003 517 964 551 981 533 b 1021 428 1053 481 1056 468 b 996 410 1014 419 1006 415 b 868 321 954 382 906 363 b 919 315 889 340 901 310 b 1053 372 964 332 1011 346 b 1094 476 1089 396 1110 443 z m 369 497 b 551 465 433 503 492 482 b 572 465 560 463 567 458 b 572 486 579 472 575 479 b 464 581 550 535 515 568 b 419 592 450 592 435 592 l 364 592 b 333 582 351 593 342 590 b 285 553 313 579 300 565 b 288 525 276 544 275 531 b 369 497 314 513 339 496 z m 953 450 b 982 447 961 446 974 435 b 976 478 988 456 982 468 b 967 492 974 482 971 488 b 822 565 926 531 883 563 b 694 492 763 575 728 533 b 683 469 689 485 676 479 b 710 460 690 460 700 460 b 813 463 743 458 778 457 b 953 450 861 469 907 471 z m 494 203 b 542 208 510 193 528 199 b 572 225 551 215 561 228 b 606 240 590 222 597 229 b 651 292 618 260 633 276 b 690 342 667 307 679 325 b 686 386 699 356 703 372 b 667 418 675 393 671 404 b 633 449 663 435 654 450 b 607 440 624 447 614 447 b 490 242 540 390 510 319 b 494 203 488 228 481 211 z m 757 225 b 688 207 735 221 711 215 b 546 158 639 193 594 168 b 414 194 483 144 461 139 b 372 257 399 214 386 236 b 329 293 361 271 350 289 b 311 272 313 296 303 290 b 336 221 319 256 326 238 b 438 67 364 167 396 114 b 507 31 456 47 476 32 l 517 31 b 685 94 574 44 635 53 b 783 165 715 121 754 138 b 800 210 796 178 807 192 b 757 225 793 228 774 228 z "},"ꁝ":{"ha":1249,"x_min":0,"x_max":0,"o":"m 621 575 b 847 758 667 575 847 632 b 790 814 847 801 806 814 b 717 853 776 814 738 819 b 636 904 706 872 693 904 b 507 731 579 904 507 864 b 621 575 507 590 581 575 z m 564 361 b 999 65 564 260 885 65 b 1092 157 1079 65 1092 135 b 1017 272 1092 189 1071 217 b 933 386 965 324 933 350 b 1033 485 933 421 958 446 b 1110 575 1107 525 1110 547 b 1029 663 1110 611 1083 663 b 564 361 940 663 564 511 z m 415 636 b 525 403 443 636 525 610 b 415 147 525 196 472 147 b 333 239 360 147 333 192 b 294 329 333 286 317 329 b 199 292 272 329 225 292 b 139 353 171 292 139 315 b 415 636 139 418 279 636 z "},"ꁚ":{"ha":1253,"x_min":0,"x_max":0,"o":"m 968 917 b 967 928 968 921 967 924 b 860 956 935 944 899 956 b 636 731 736 956 636 854 b 656 639 636 697 643 667 b 688 638 665 638 676 638 b 968 917 842 638 968 761 z m 442 836 b 347 807 407 836 372 826 b 536 631 356 708 438 631 b 604 643 561 631 583 635 b 607 675 606 653 607 664 b 442 836 607 764 533 836 z m 499 314 b 604 547 499 407 539 492 b 429 606 554 583 496 606 b 139 314 269 606 139 474 b 429 19 139 150 269 19 b 604 76 496 19 554 40 b 499 314 539 135 499 218 z m 754 314 b 650 76 754 218 715 135 b 822 21 699 40 758 21 b 1114 314 982 21 1114 151 b 822 606 1114 472 982 606 b 650 547 758 606 699 583 b 754 314 715 490 754 407 z m 726 314 b 626 533 726 400 688 479 b 526 314 565 479 526 400 b 626 93 526 225 565 146 b 726 314 688 146 726 225 z "},"ꁛ":{"ha":1071,"x_min":0,"x_max":0,"o":"m 542 972 l 139 972 l 139 0 l 542 0 b 932 392 750 0 931 167 l 932 581 b 542 972 931 799 758 972 z m 260 119 l 260 478 b 731 774 456 506 625 615 l 733 774 b 813 581 785 721 813 653 l 813 392 b 810 358 813 381 813 368 b 783 347 800 350 789 347 b 699 392 758 347 724 363 l 625 314 l 629 314 b 767 242 667 274 721 249 b 542 119 715 169 644 118 z m 656 606 b 564 514 604 606 564 565 b 656 422 564 463 606 422 b 747 514 696 422 746 457 b 656 606 747 565 707 606 z "},"ꁙ":{"ha":1249,"x_min":0,"x_max":0,"o":"m 401 511 b 628 738 401 636 503 738 b 854 511 753 738 854 638 b 628 285 856 386 754 285 b 401 511 503 285 401 386 z m 953 478 b 964 525 954 494 957 510 b 1058 550 982 565 1022 576 b 1106 471 1085 531 1099 503 b 1108 428 1110 457 1111 443 b 1085 394 1104 414 1097 403 b 1008 385 1061 381 1035 376 b 960 442 981 393 967 415 b 953 478 957 454 956 467 z m 293 486 b 282 425 292 461 289 443 b 213 382 269 396 244 379 b 175 389 200 382 186 385 b 139 442 150 397 139 415 b 182 546 139 482 151 518 b 239 563 199 560 217 568 b 285 519 264 558 278 542 b 293 486 289 506 292 493 z m 383 275 b 351 268 372 272 363 269 b 335 272 343 267 340 269 b 331 285 331 275 328 281 b 340 294 332 289 336 292 b 357 299 344 296 351 296 b 382 332 371 304 382 314 b 392 344 382 339 385 343 b 410 343 397 344 404 344 b 418 329 415 342 419 336 b 411 303 417 321 414 313 b 411 293 410 300 408 297 b 486 218 426 260 453 235 b 669 188 543 188 606 179 b 781 225 708 192 746 204 b 843 293 807 242 829 264 b 842 303 844 297 844 300 b 828 333 835 313 829 322 b 847 354 825 346 835 356 b 860 342 854 353 857 349 b 885 311 863 326 871 315 b 900 308 890 310 896 308 b 917 293 911 308 917 303 b 901 276 917 283 911 276 b 886 276 896 276 892 276 l 872 281 b 835 226 864 260 851 242 b 721 164 803 196 764 175 b 469 190 635 142 550 147 b 385 274 433 208 403 236 z "},"ꁖ":{"ha":824,"x_min":0,"x_max":0,"o":"m 219 768 b 197 747 207 768 197 758 b 219 725 197 735 207 725 b 240 747 231 725 240 735 b 219 768 240 758 231 768 z m 275 725 b 296 747 288 725 296 735 b 275 768 296 758 288 768 b 253 747 263 768 253 758 b 275 725 253 735 263 725 z m 161 714 b 139 692 149 714 139 703 b 161 669 139 679 149 669 b 183 692 171 671 182 681 b 161 714 183 703 172 714 z m 219 714 b 197 693 207 714 197 704 b 219 671 197 681 207 671 b 240 693 231 671 240 681 b 219 714 240 704 231 714 z m 275 714 b 253 692 263 714 253 703 b 275 669 253 679 263 669 b 299 692 288 669 299 679 b 275 714 299 703 288 714 z m 332 714 b 310 692 318 714 310 703 b 332 669 310 679 318 669 b 351 692 343 669 351 679 b 332 714 351 703 343 714 z m 218 657 b 196 635 206 657 196 646 b 218 613 196 622 206 613 b 240 635 229 613 240 622 b 218 657 240 646 229 657 z m 275 657 b 253 635 263 657 253 646 b 275 613 253 622 263 613 b 299 635 288 613 299 622 b 275 657 299 646 288 657 z m 275 601 b 253 579 263 601 253 590 b 275 557 253 567 263 557 b 299 579 288 557 299 567 b 275 601 299 590 288 601 z m 332 601 b 310 579 318 601 310 590 b 332 557 310 567 318 557 b 351 579 343 557 351 567 b 332 601 351 590 343 601 z m 275 546 b 253 524 263 546 253 535 b 275 501 253 511 263 501 b 299 524 288 501 299 511 b 275 546 299 535 288 546 z m 332 546 b 310 524 318 546 310 535 b 332 501 310 511 318 501 b 351 524 343 501 351 511 b 332 546 351 535 343 546 z m 388 546 b 365 524 375 546 365 535 b 388 501 365 511 375 501 b 408 524 399 501 408 511 b 388 546 408 535 399 546 z m 443 546 b 421 524 431 546 421 535 b 443 501 421 511 431 501 b 464 524 454 501 464 511 b 443 546 464 535 454 546 z m 275 490 b 253 468 263 490 253 479 b 275 446 253 456 263 446 b 299 468 288 446 299 456 b 275 490 299 479 288 490 z m 332 490 b 310 468 318 490 310 479 b 332 446 310 456 318 446 b 351 468 343 446 351 456 b 332 490 351 479 343 490 z m 388 490 b 365 468 375 490 365 479 b 388 446 365 456 375 446 b 408 468 399 446 408 456 b 388 490 408 479 399 490 z m 499 490 b 476 468 486 490 476 479 b 499 446 476 456 486 446 b 519 468 510 446 519 456 b 499 490 519 479 510 490 z m 218 435 b 196 413 206 435 196 425 b 218 390 196 399 206 390 b 240 413 229 390 240 399 b 218 435 240 425 229 435 z m 332 435 b 310 413 318 435 310 425 b 332 390 310 399 318 390 b 351 413 343 390 351 399 b 332 435 351 425 343 435 z m 388 435 b 365 413 375 435 365 425 b 388 390 365 399 375 390 b 408 413 399 390 408 399 b 388 435 408 425 399 435 z m 554 435 b 532 413 542 435 532 425 b 554 390 532 399 542 390 b 575 413 565 390 575 399 b 554 435 575 425 565 435 z m 388 379 b 365 357 375 379 365 369 b 388 335 365 343 375 335 b 408 357 399 335 408 343 b 388 379 408 369 399 379 z m 443 379 b 421 357 431 379 421 369 b 443 335 421 343 431 335 b 464 357 454 335 464 343 b 443 379 464 369 454 379 z m 388 322 b 365 300 375 322 365 314 b 388 278 365 288 375 278 b 408 300 399 278 408 288 b 388 322 408 314 399 322 z m 443 322 b 421 300 431 322 421 314 b 443 278 421 288 431 278 b 464 300 454 278 464 288 b 443 322 464 314 454 322 z m 388 267 b 365 244 375 267 365 258 b 388 222 365 232 375 222 b 408 244 399 222 408 232 b 388 267 408 258 399 267 z m 499 267 b 476 244 486 267 476 258 b 499 222 476 232 486 222 b 519 244 510 222 519 232 b 499 267 519 258 510 267 z m 332 211 b 310 189 318 211 310 201 b 332 167 310 176 318 167 b 351 189 343 167 351 176 b 332 211 351 201 343 211 z m 554 211 b 532 189 542 211 532 201 b 554 167 532 176 542 167 b 575 189 565 167 575 176 b 554 211 575 201 565 211 z m 275 156 b 253 133 263 156 253 146 b 275 111 253 121 263 111 b 299 133 289 111 299 121 b 275 156 299 146 289 156 z m 611 154 b 590 133 600 154 590 144 b 611 113 590 122 600 113 b 632 133 622 113 632 122 b 611 154 632 144 622 154 z m 161 100 b 139 78 149 100 139 90 b 161 56 139 65 149 56 b 183 78 174 56 183 65 b 161 100 183 90 174 100 z m 218 100 b 196 78 206 100 196 90 b 218 56 196 65 206 56 b 240 78 231 56 240 65 b 218 100 240 90 231 100 z m 275 100 b 253 78 263 100 253 90 b 275 56 253 65 263 56 b 299 78 289 56 299 65 b 275 100 299 90 289 100 z m 664 57 b 685 78 675 57 685 67 b 664 99 685 89 675 99 b 643 78 653 99 643 89 b 664 57 643 67 653 57 z m 664 43 b 643 22 653 43 643 33 b 664 1 643 11 653 1 b 685 22 675 1 685 11 b 664 43 685 33 675 43 z "},"ꁗ":{"ha":1111,"x_min":0,"x_max":0,"o":"m 556 888 b 139 471 325 888 139 701 b 556 54 139 240 325 54 b 972 471 786 54 972 240 b 556 888 972 701 786 888 z m 556 161 b 244 471 383 161 244 299 b 556 782 244 643 383 782 b 865 471 725 782 865 643 b 556 161 865 299 725 161 z m 386 589 l 496 589 l 496 639 b 440 694 496 669 471 694 b 386 639 411 694 386 669 z m 669 585 b 724 639 699 585 724 610 b 669 694 724 669 699 694 b 614 639 639 694 614 669 b 669 585 614 610 639 585 z m 669 560 b 599 489 631 560 599 528 l 511 489 b 440 560 511 528 479 560 b 371 489 400 560 371 528 l 371 289 l 511 289 l 511 431 l 599 431 l 599 289 l 739 289 l 739 489 b 669 560 739 528 708 560 z "},"ꁣ":{"ha":1724,"x_min":0,"x_max":0,"o":"m 1078 896 b 1411 628 1360 896 1411 732 l 1439 628 b 1346 875 1439 743 1401 822 b 1017 975 1289 931 1189 975 b 139 461 532 975 176 614 l 338 461 b 1078 896 475 747 797 896 z m 1247 535 l 675 535 l 856 651 l 917 768 l 719 768 l 568 483 l 424 483 l 407 456 l 886 456 l 801 413 l 842 222 l 1071 222 l 1011 506 l 1231 507 z m 1078 760 l 825 590 l 1063 590 l 1318 760 z m 1385 515 b 644 79 1247 228 926 79 b 315 296 407 79 333 196 l 311 347 l 283 347 b 376 100 283 232 321 153 b 706 0 433 44 533 0 b 1585 515 1190 0 1547 361 z m 636 222 l 731 406 l 533 406 l 440 222 z "},"ꁢ":{"ha":1297,"x_min":0,"x_max":0,"o":"m 715 882 b 986 582 868 882 986 778 l 1158 582 b 792 972 1157 822 1004 972 b 147 442 388 972 188 608 l 257 556 b 715 882 300 661 467 882 z m 640 676 l 851 676 l 831 717 l 569 717 b 533 707 553 717 544 714 b 385 561 524 696 392 567 b 371 556 381 556 378 556 l 297 556 l 164 419 l 479 419 b 515 436 496 419 508 429 b 646 564 526 444 633 553 b 679 579 660 578 667 579 l 929 579 l 900 646 l 681 646 b 636 626 672 646 651 643 b 576 568 618 613 586 578 b 553 558 568 558 561 558 l 504 558 b 600 657 504 558 582 636 b 640 676 617 676 640 676 z m 661 296 l 449 296 l 468 254 l 729 254 b 767 264 746 254 756 257 b 913 410 776 275 907 404 b 926 415 918 415 921 415 l 1000 415 l 1135 551 l 819 551 b 782 535 801 551 790 543 l 656 407 b 619 392 642 393 635 392 l 369 392 l 399 325 l 618 325 b 664 344 629 325 650 328 b 722 403 681 358 711 393 b 746 414 731 413 739 414 l 794 414 b 699 315 794 414 717 335 b 661 296 682 296 661 296 z m 583 89 b 314 388 432 89 314 193 l 139 388 b 506 0 142 149 294 0 b 1150 529 911 0 1110 363 l 1042 415 b 583 89 999 310 831 89 z "},"ꀪ":{"ha":1972,"x_min":0,"x_max":0,"o":"m 907 526 l 1681 526 l 1681 557 b 1307 972 1339 693 1324 867 l 1279 972 b 907 557 1264 867 1249 693 z m 719 515 b 519 838 539 607 528 739 l 492 838 b 292 515 483 739 475 607 l 292 488 l 719 488 z m 1596 725 l 1458 719 b 1596 625 1492 688 1538 656 z m 1819 14 b 1758 38 1789 14 1775 25 b 1681 67 1740 51 1719 67 l 1671 67 l 1588 499 l 907 499 b 879 526 892 499 879 511 l 879 557 b 896 583 879 568 886 579 b 1086 683 972 613 1036 647 b 1111 704 1094 690 1104 697 l 583 681 b 732 540 611 622 660 576 b 747 515 742 536 747 526 l 747 488 b 719 460 747 472 735 460 l 364 460 l 294 67 l 292 67 b 214 38 253 67 232 51 b 153 14 197 25 183 14 b 139 0 144 14 139 8 b 153 -14 139 -8 144 -14 b 231 15 192 -14 213 1 b 292 39 247 28 261 39 b 353 15 322 39 336 28 b 431 -14 371 1 392 -14 b 508 15 469 -14 490 1 b 569 39 525 28 539 39 b 631 15 600 39 614 28 b 708 -14 649 1 669 -14 b 786 15 747 -14 768 1 b 847 39 803 28 817 39 b 908 15 878 39 892 28 b 986 -14 926 1 947 -14 b 1064 15 1025 -14 1046 1 b 1125 39 1081 28 1094 39 b 1186 15 1156 39 1169 28 b 1264 -14 1204 1 1225 -14 b 1342 15 1303 -14 1324 1 b 1403 39 1358 28 1372 39 b 1464 15 1433 39 1447 28 b 1542 -14 1482 1 1503 -14 b 1619 15 1581 -14 1601 1 b 1681 39 1636 28 1650 39 b 1742 15 1711 39 1725 28 b 1819 -14 1760 1 1781 -14 b 1833 0 1828 -14 1833 -8 b 1819 14 1833 8 1828 14 z m 429 679 l 371 679 l 371 601 b 429 679 396 625 415 650 z m 1249 656 b 1292 679 1249 656 1268 679 b 1335 656 1315 679 1335 656 l 1353 633 l 1229 633 z m 986 14 b 940 26 965 14 951 19 l 1022 471 l 1118 471 l 1118 122 l 1060 122 l 1060 47 b 1047 38 1056 43 1051 40 b 986 14 1031 25 1017 14 z m 1603 38 b 1542 14 1586 25 1572 14 b 1526 15 1536 14 1531 14 l 1526 122 l 1485 122 l 1485 471 l 1565 471 l 1643 61 b 1603 38 1626 56 1614 46 z m 369 38 b 322 63 357 47 343 57 l 388 432 l 475 432 l 475 363 l 974 363 l 968 335 l 475 335 l 475 26 b 431 14 464 19 451 14 b 369 38 400 14 386 25 z m 1174 317 l 1174 381 l 1238 381 l 1238 317 z m 1269 317 l 1269 381 l 1333 381 l 1333 317 z m 1429 317 l 1365 317 l 1365 381 l 1429 381 z m 1201 122 l 1201 261 l 1401 261 l 1401 122 z m 551 115 l 551 242 l 631 242 l 631 115 z m 668 115 l 668 242 l 879 242 l 879 115 z m 706 14 l 708 14 b 708 14 708 14 708 14 z "},"ꀫ":{"ha":840,"x_min":0,"x_max":0,"o":"m 400 0 b 604 142 731 0 631 88 b 569 239 590 172 578 206 b 561 310 564 263 558 286 b 632 465 567 367 594 446 b 665 476 642 471 657 471 b 688 538 685 489 676 519 b 696 600 690 543 679 576 b 688 638 706 611 701 629 b 665 676 676 647 674 664 b 638 747 649 699 646 724 b 622 783 635 761 632 775 b 600 794 617 788 607 792 b 542 843 578 804 544 815 b 532 853 542 846 535 851 b 481 853 526 856 486 856 b 424 882 471 863 425 863 b 406 903 424 892 411 899 b 357 929 379 917 354 901 b 353 957 360 942 360 947 b 319 953 340 972 328 964 b 282 896 307 933 293 915 b 251 803 264 865 250 838 b 275 746 251 779 250 758 b 299 706 289 738 300 726 b 304 694 299 701 301 699 b 369 619 343 649 329 646 b 399 600 379 614 393 611 b 421 550 408 583 408 565 b 436 524 428 542 429 532 b 454 493 444 517 453 506 b 450 468 456 485 450 476 b 453 458 450 465 453 460 b 449 449 453 454 449 451 b 454 422 449 439 454 438 b 453 401 454 414 453 407 b 396 296 451 390 432 342 b 326 210 357 244 346 233 b 233 156 301 181 267 171 b 154 54 160 104 114 99 b 269 8 182 24 232 14 b 400 0 315 1 358 0 z "},"ꀩ":{"ha":1382,"x_min":0,"x_max":0,"o":"m 750 861 l 750 972 l 718 972 l 718 931 l 692 931 l 692 903 l 719 903 b 907 28 719 589 833 268 l 761 28 l 761 156 l 693 218 l 624 156 l 624 28 l 475 28 b 663 903 549 268 663 589 l 690 903 l 690 931 l 664 931 l 664 972 l 632 972 l 632 861 b 139 33 632 700 354 163 l 139 17 l 140 15 l 140 0 l 1243 0 l 1243 33 b 750 861 1028 163 750 700 z m 204 28 b 613 683 407 189 532 438 b 296 28 539 401 435 156 z m 1086 28 b 769 683 947 156 843 401 b 1178 28 850 438 975 189 z "},"ꀘ":{"ha":1546,"x_min":0,"x_max":0,"o":"m 1079 797 l 1142 807 l 1142 835 b 1047 904 1078 835 1047 904 b 1056 917 1051 904 1056 910 b 1043 935 1056 931 1049 935 b 1011 904 1026 935 1011 918 l 533 904 b 501 933 533 918 519 933 b 489 917 494 933 489 925 b 497 904 489 910 492 904 b 404 835 497 904 467 835 l 404 807 l 465 797 z m 538 628 l 538 681 l 444 681 l 444 742 l 281 742 b 239 771 269 756 258 771 b 221 757 231 771 221 767 b 231 742 221 749 226 742 b 139 667 231 742 201 667 l 139 639 l 203 628 z m 1315 742 b 1325 757 1319 742 1325 749 b 1307 771 1325 767 1315 771 b 1265 742 1288 771 1276 756 l 1101 742 l 1101 681 l 1008 681 l 1008 628 l 1343 628 l 1407 639 l 1407 667 b 1315 742 1344 667 1315 742 z m 1074 769 l 472 769 l 472 708 l 1074 708 z m 565 681 l 565 518 l 981 518 l 981 681 z m 953 546 l 593 546 l 593 653 l 953 653 z m 629 574 l 914 574 b 922 583 918 574 922 578 l 922 615 b 914 625 922 622 918 625 l 629 625 b 621 615 625 625 621 622 l 621 583 b 629 574 621 578 625 574 z m 394 600 l 203 600 l 203 450 l 394 450 l 331 529 z m 469 600 l 431 600 l 367 529 l 431 450 l 469 450 l 406 529 z m 506 600 l 442 529 l 506 450 l 1040 450 l 1103 529 l 1040 600 l 1008 600 l 1008 490 l 538 490 l 538 600 z m 1115 600 l 1076 600 l 1140 529 l 1076 450 l 1115 450 l 1179 529 z m 1343 600 l 1151 600 l 1215 529 l 1151 450 l 1343 450 z m 322 422 l 203 422 l 203 144 l 322 144 z m 554 407 l 554 422 l 507 422 l 507 407 b 475 356 488 399 475 379 b 507 307 475 333 488 315 l 507 293 l 554 293 l 554 307 b 586 356 574 315 586 333 b 554 407 586 379 574 399 z m 708 407 l 708 422 l 660 422 l 660 407 b 628 356 640 397 628 379 b 660 307 628 333 640 315 l 660 293 l 708 293 l 708 307 b 740 356 728 315 740 333 b 708 407 740 379 728 399 z m 882 407 l 882 422 l 833 422 l 833 407 b 801 356 814 397 801 379 b 833 307 801 333 814 315 l 833 293 l 882 293 l 882 307 b 913 356 900 315 913 333 b 882 407 913 379 900 399 z m 1036 407 l 1036 422 l 988 422 l 988 407 b 956 356 968 399 956 379 b 988 307 956 333 968 315 l 988 293 l 1036 293 l 1036 307 b 1067 356 1054 315 1067 333 b 1036 407 1067 378 1054 397 z m 1343 144 l 1343 422 l 1225 422 l 1225 144 z m 181 0 l 346 0 l 346 117 l 181 117 z m 1203 0 l 1365 0 l 1365 117 l 1203 117 z "},"ꀜ":{"ha":1550,"x_min":0,"x_max":0,"o":"m 1136 694 l 411 694 l 411 643 l 1136 643 z m 1196 539 b 1136 615 1153 561 1136 585 l 411 615 b 351 550 411 585 396 572 b 139 482 310 529 139 482 l 139 453 l 1411 453 l 1411 482 b 1196 539 1411 482 1238 518 z m 1383 425 l 167 425 l 167 368 l 1383 368 z m 1356 340 l 194 340 l 194 285 l 1356 285 z m 222 56 l 268 56 l 268 257 l 222 257 z m 350 56 l 350 257 l 315 257 l 315 56 z m 429 56 l 429 257 l 396 257 l 396 56 z m 510 56 l 510 257 l 476 257 l 476 56 z m 590 56 l 590 257 l 556 257 l 556 56 z m 638 257 l 638 168 l 671 168 l 671 257 z m 718 257 l 718 168 l 751 168 l 751 257 z m 832 257 l 799 257 l 799 168 l 832 168 z m 911 56 l 911 257 l 878 257 l 878 56 z m 990 56 l 990 257 l 960 257 l 960 56 z m 1072 56 l 1072 257 l 1040 257 l 1040 56 z m 1154 56 l 1154 257 l 1119 257 l 1119 56 z m 1233 56 l 1233 257 l 1200 257 l 1200 56 z m 1281 56 l 1328 56 l 1328 257 l 1281 257 z m 832 56 l 832 139 l 638 139 l 638 56 l 671 56 l 671 99 l 799 99 l 799 56 z m 156 0 l 1399 0 l 1399 28 l 156 28 z "},"ꀝ":{"ha":1431,"x_min":0,"x_max":0,"o":"m 364 1111 l 196 922 l 531 922 z m 254 733 l 472 733 l 513 894 l 451 894 l 433 811 b 400 790 428 790 417 790 l 322 790 b 290 811 307 790 294 790 b 271 894 285 832 271 894 l 214 894 z m 1251 271 l 1208 271 l 1208 299 l 1181 299 l 1181 474 l 590 474 l 590 299 l 563 299 l 563 271 l 460 271 l 460 706 l 267 706 l 267 271 l 188 271 l 139 0 l 626 0 l 661 257 l 786 257 l 814 0 l 1292 0 z m 389 590 l 338 590 l 338 650 l 389 650 z m 661 643 l 661 615 l 1103 615 l 1103 643 z m 1210 526 l 1126 588 l 640 588 l 563 526 l 563 501 l 1210 501 z m 389 453 l 338 453 l 338 513 l 389 513 z m 739 299 l 638 299 l 638 394 b 688 429 638 414 660 429 b 739 394 715 429 739 414 z m 872 299 l 772 299 l 772 394 b 822 429 772 414 794 429 b 872 394 850 429 872 414 z m 1007 299 l 907 299 l 907 394 b 957 429 907 414 929 429 b 1007 394 985 429 1007 414 z m 1136 299 l 1036 299 l 1036 394 b 1086 429 1036 414 1058 429 b 1136 394 1114 429 1136 414 z m 389 271 l 338 271 l 338 361 l 389 361 z "},"ꀚ":{"ha":1340,"x_min":0,"x_max":0,"o":"m 974 832 l 974 925 l 957 925 b 813 885 888 863 813 885 l 813 972 l 796 972 b 676 929 761 935 715 929 b 556 972 638 929 593 935 l 540 972 l 540 885 b 390 925 540 885 474 863 l 375 925 l 375 839 l 676 832 z m 1181 853 b 974 808 1131 810 1061 808 l 375 808 b 160 853 279 808 210 810 l 139 853 b 224 701 139 801 199 701 l 1117 701 b 1201 853 1142 701 1201 801 z m 224 401 l 1117 401 l 1117 674 l 224 674 z m 379 618 l 494 618 l 494 464 l 379 464 z m 849 618 l 964 618 l 964 464 l 849 464 z m 674 599 b 735 538 708 599 735 572 b 674 476 735 503 708 476 b 613 538 639 476 613 503 b 674 599 613 572 639 599 z m 407 492 l 467 492 l 467 590 l 407 590 z m 876 492 l 936 492 l 936 590 l 876 590 z m 224 0 l 504 0 l 504 126 b 667 289 504 215 575 289 b 829 126 757 289 829 215 l 829 0 l 1117 0 l 1117 374 l 224 374 z m 667 261 b 532 126 592 261 532 200 l 532 0 l 560 0 l 560 126 b 667 233 560 185 607 233 b 774 126 725 233 774 185 l 774 0 l 801 0 l 801 126 b 667 261 801 200 740 261 z "},"ꀛ":{"ha":1354,"x_min":0,"x_max":0,"o":"m 1215 746 l 1197 781 b 1128 769 1197 781 1175 769 b 1007 833 1038 769 1007 833 l 1007 972 l 972 972 l 972 938 l 382 938 l 382 972 l 347 972 l 347 833 b 225 769 347 833 318 769 b 156 781 181 769 156 781 l 139 746 b 264 694 139 746 188 694 l 1090 694 b 1215 746 1167 694 1215 746 z m 1090 660 l 264 660 l 264 461 l 299 461 l 299 572 l 347 607 l 364 607 l 399 572 l 399 461 l 433 461 l 433 572 l 468 607 l 521 607 l 556 572 l 556 451 l 590 451 l 590 572 l 625 607 l 729 607 l 764 572 l 764 451 l 799 451 l 799 572 l 833 607 l 885 607 l 919 572 l 919 465 l 954 465 l 954 572 l 989 607 l 1021 607 l 1056 572 l 1056 465 l 1090 465 z m 278 433 l 243 433 l 243 329 l 521 329 l 521 364 l 468 364 l 468 399 l 433 399 l 433 433 l 399 433 l 399 399 l 364 399 l 364 364 l 313 364 l 313 399 l 278 399 z m 954 433 l 919 433 l 919 399 l 885 399 l 885 364 l 833 364 l 833 329 l 1111 329 l 1111 433 l 1076 433 l 1076 399 l 1042 399 l 1042 364 l 989 364 l 989 399 l 954 399 z m 556 417 l 556 329 l 799 329 l 799 417 z m 1111 107 l 1111 294 l 243 294 l 243 107 l 481 107 l 481 0 l 572 0 l 572 156 b 676 260 572 214 619 260 b 781 156 736 260 781 214 l 781 0 l 875 0 l 875 107 z m 453 79 l 181 79 l 181 0 l 453 0 z m 1174 79 l 903 79 l 903 0 l 1174 0 z "},"ꀙ":{"ha":1292,"x_min":0,"x_max":0,"o":"m 1146 575 l 1146 647 b 1142 654 1146 650 1144 653 l 1092 699 b 1086 701 1092 699 1089 701 l 1057 701 b 1047 690 1051 701 1047 696 l 1046 621 l 988 621 l 988 724 l 925 724 l 925 831 l 833 831 l 640 972 l 446 831 l 365 831 l 365 724 l 303 724 l 303 621 l 250 621 l 250 690 b 240 701 250 696 246 701 l 210 701 b 204 699 208 701 206 700 l 156 654 b 151 647 153 651 151 650 l 151 578 l 139 572 l 139 36 l 244 1 l 586 0 l 586 129 b 649 192 586 164 614 192 b 713 129 685 192 713 164 l 713 0 l 1046 0 l 1153 36 l 1153 572 z m 393 803 l 464 803 l 640 932 l 815 803 l 897 803 l 897 724 l 808 724 l 640 844 l 471 724 l 393 724 z m 789 586 l 676 586 l 676 699 l 789 699 z m 960 586 l 853 586 l 853 699 l 960 699 z m 331 696 l 438 696 l 438 583 l 331 583 z m 614 583 l 500 583 l 500 696 l 614 696 z m 172 642 l 201 668 l 201 586 l 172 576 z m 1125 576 l 1096 586 l 1096 668 l 1125 642 z m 697 469 l 697 343 l 593 343 l 593 469 b 644 522 593 499 617 522 b 697 469 674 522 697 499 z m 217 344 l 174 350 l 174 482 l 217 496 z m 1118 350 l 1075 344 l 1075 496 l 1118 482 z m 329 494 l 431 494 l 431 343 l 329 343 z m 860 494 l 960 494 l 960 343 l 860 343 z m 507 260 l 250 260 l 250 288 l 507 288 z m 1046 260 l 789 260 l 789 288 l 1046 288 z m 525 215 l 551 286 l 746 286 l 771 215 z m 449 60 l 346 60 l 346 164 b 397 215 346 192 368 215 b 449 164 425 215 449 192 z m 969 60 l 867 60 l 867 164 b 918 215 867 192 889 215 b 969 164 946 215 969 192 z m 397 192 b 368 164 381 192 368 179 l 368 82 l 425 82 l 425 164 b 397 192 425 179 413 192 z m 918 192 b 889 164 901 192 889 179 l 889 82 l 946 82 l 946 164 b 918 192 946 179 933 192 z "},"ꀖ":{"ha":1076,"x_min":0,"x_max":0,"o":"m 540 444 l 721 625 l 563 785 l 614 813 l 563 842 l 614 871 l 563 900 l 589 928 l 542 1110 l 494 928 l 521 900 l 469 871 l 521 842 l 469 813 l 521 785 l 361 625 z m 542 1007 l 556 931 l 528 931 z m 682 625 l 540 485 l 401 625 l 542 767 z m 526 708 l 526 539 l 540 525 l 554 539 l 554 708 l 540 722 z m 522 425 l 342 606 l 169 433 l 350 254 z m 558 425 l 731 254 l 911 433 l 739 606 z m 332 231 l 157 410 l 156 290 l 332 115 z m 749 231 l 749 115 l 925 290 l 924 410 z m 360 114 l 521 272 l 521 388 l 360 229 z m 721 114 l 721 229 l 560 388 l 560 272 z m 576 54 l 576 82 b 601 131 590 93 601 108 b 540 153 601 143 575 153 b 479 131 506 153 479 143 b 504 82 479 108 490 93 l 504 54 l 139 54 l 139 0 l 938 0 l 938 54 z "},"ꀗ":{"ha":1607,"x_min":0,"x_max":0,"o":"m 310 725 l 367 665 l 511 665 l 511 861 l 525 861 l 525 894 l 414 894 l 414 960 b 563 956 464 1006 514 903 l 563 1094 b 411 1094 513 1039 461 1147 l 388 1094 l 388 894 l 294 894 l 294 861 l 310 861 z m 539 638 l 367 638 l 367 525 l 446 525 l 446 482 l 521 482 l 521 521 l 632 521 l 632 482 l 708 482 l 708 521 l 746 521 l 746 643 l 731 643 l 731 701 l 1179 701 l 1179 643 l 1160 643 l 1160 521 l 1189 521 l 1189 482 l 1269 482 l 1269 521 l 1343 521 l 1343 838 l 1225 838 l 1225 800 l 1069 800 l 1069 838 l 946 838 l 946 800 l 792 800 l 792 838 l 665 838 l 665 800 l 539 800 z m 1083 482 l 1083 521 l 1132 521 l 1132 643 l 774 643 l 774 521 l 815 521 l 815 482 l 894 482 l 894 521 l 1003 521 l 1003 482 z m 913 547 l 815 547 l 815 608 l 913 608 z m 986 547 l 986 608 l 1083 608 l 1083 547 z m 1343 161 l 1343 493 l 1297 493 l 1297 454 l 1161 454 l 1161 493 l 1111 493 l 1111 454 l 975 454 l 975 493 l 922 493 l 922 454 l 788 454 l 788 493 l 736 493 l 736 454 l 604 454 l 604 493 l 549 493 l 549 454 l 418 454 l 418 493 l 367 493 l 367 161 l 792 161 l 792 308 b 853 347 792 329 818 347 b 913 308 886 347 913 329 l 913 161 z m 696 217 l 574 217 l 574 308 b 635 347 574 329 600 347 b 696 308 668 347 696 329 z m 1008 308 b 1069 347 1008 329 1035 347 b 1131 308 1104 347 1131 329 l 1131 217 l 1008 217 z m 228 133 l 228 89 l 183 89 l 183 44 l 139 44 l 139 0 l 1468 0 l 1468 133 z "},"ꀧ":{"ha":1694,"x_min":0,"x_max":0,"o":"m 1542 -10 b 1403 43 1478 -10 1481 43 b 1281 -8 1339 43 1326 0 l 1281 60 l 1238 60 l 1215 178 b 1496 113 1331 160 1419 136 l 1496 206 b 1189 272 1411 226 1315 254 b 821 972 1092 569 986 719 l 786 919 b 842 817 786 919 810 879 b 921 324 875 729 913 576 b 993 319 950 324 965 322 b 942 606 993 344 979 461 b 1047 289 985 504 1026 392 b 843 297 985 294 918 297 b 190 206 522 297 340 243 l 190 113 b 843 204 335 156 517 204 b 1058 196 922 204 994 201 b 1060 171 1060 188 1060 179 l 1060 60 l 1013 60 b 1000 172 1011 76 1007 110 b 932 176 983 174 951 176 l 932 171 b 921 60 932 114 925 78 l 906 60 l 906 28 b 847 43 892 36 875 43 b 708 -10 776 43 769 -10 b 569 43 644 -10 647 43 b 431 -10 499 43 492 -10 b 292 43 367 -10 369 43 b 153 -10 221 43 214 -10 b 139 -24 144 -10 139 -15 b 153 -37 139 -32 144 -37 b 292 15 224 -37 231 15 b 431 -37 356 15 353 -37 b 569 15 501 -37 508 15 b 708 -37 633 15 631 -37 b 847 15 779 -37 786 15 b 986 -37 911 15 908 -37 b 1125 15 1057 -37 1064 15 b 1264 -37 1189 15 1186 -37 b 1403 15 1335 -37 1342 15 b 1542 -37 1467 15 1464 -37 b 1556 -24 1550 -37 1556 -32 b 1542 -10 1556 -15 1550 -10 z "},"ꀨ":{"ha":1561,"x_min":0,"x_max":0,"o":"m 317 547 l 317 308 l 664 308 l 664 547 l 490 694 z m 571 375 l 418 375 l 418 592 l 490 653 l 571 585 z m 467 539 l 536 539 l 536 575 l 467 575 z m 386 471 l 349 471 l 349 533 l 386 565 z m 604 558 l 632 533 l 632 471 l 604 471 z m 1297 499 l 1360 464 l 1360 531 l 692 531 l 692 411 l 1140 411 z m 163 368 l 178 379 l 178 307 l 289 307 l 289 524 l 139 396 z m 453 403 l 536 403 l 536 511 l 453 511 z m 1297 465 l 1169 394 l 1169 56 l 1200 56 l 1200 181 l 1272 181 l 1272 56 l 1321 56 l 1321 181 l 1393 181 l 1393 56 l 1422 56 l 1422 394 z m 1106 281 l 1004 281 l 1004 383 l 969 383 l 969 281 l 856 281 l 856 383 l 821 383 l 821 281 l 726 281 l 726 383 l 692 383 l 692 56 l 736 56 l 736 118 b 782 168 736 144 756 168 b 831 118 808 168 831 144 l 831 56 l 872 56 l 872 118 b 919 168 872 144 893 168 b 965 118 943 168 965 144 l 965 56 l 1006 56 l 1006 118 b 1051 168 1006 144 1025 168 b 1099 118 1076 168 1099 144 l 1099 56 l 1142 56 l 1142 383 l 1106 383 z m 1197 281 l 1197 367 l 1283 367 l 1283 281 z m 1394 281 l 1311 281 l 1311 367 l 1394 367 z m 178 56 l 289 56 l 289 281 l 178 281 z m 317 56 l 664 56 l 664 281 l 317 281 z m 349 240 l 396 240 l 396 97 l 349 97 z m 426 240 l 475 240 l 475 97 l 426 97 z m 506 240 l 554 240 l 554 97 l 506 97 z m 585 240 l 632 240 l 632 97 l 585 97 z m 206 239 l 261 239 l 261 97 l 206 97 z m 178 0 l 289 0 l 289 28 l 178 28 z m 317 0 l 664 0 l 664 28 l 317 28 z m 692 0 l 1142 0 l 1142 28 l 692 28 z m 1169 0 l 1422 0 l 1422 28 l 1169 28 z "},"ꀥ":{"ha":1653,"x_min":0,"x_max":0,"o":"m 154 972 l 139 881 l 544 881 l 536 972 z m 660 972 l 651 881 l 1058 881 l 1050 972 z m 1449 621 b 1471 726 1449 656 1457 693 b 1485 754 1475 736 1479 746 l 1469 772 l 1439 785 l 1404 785 l 1360 810 l 1326 810 l 1303 840 l 1249 838 l 1232 858 l 1182 853 b 1238 799 1203 839 1221 821 b 1301 621 1275 750 1301 683 z m 267 621 l 414 621 b 535 853 414 711 469 810 l 147 853 b 267 621 213 810 267 711 z m 781 621 l 928 621 b 1049 853 928 711 983 810 l 661 853 b 781 621 726 810 781 711 z m 443 593 l 238 593 l 235 489 l 204 489 l 204 433 l 232 433 l 214 0 l 463 0 l 449 433 l 476 433 l 476 489 l 447 489 z m 957 593 l 751 593 l 747 489 l 717 489 l 717 433 l 744 433 l 726 0 l 976 0 l 961 433 l 989 433 l 989 489 l 961 489 z m 1514 489 l 1485 489 l 1482 593 l 1276 593 l 1272 489 l 1243 489 l 1243 433 l 1271 433 l 1253 0 l 1501 0 l 1486 433 l 1514 433 z "},"ꀦ":{"ha":1700,"x_min":0,"x_max":0,"o":"m 1542 -10 b 1481 14 1511 -10 1497 1 b 1464 25 1475 18 1471 22 b 1475 19 1468 24 1472 22 l 1550 281 l 1561 321 l 1174 432 l 1186 472 l 851 568 l 840 528 l 586 601 l 599 642 l 411 694 l 199 3 b 153 -10 188 -4 174 -10 b 139 -24 144 -10 139 -15 b 153 -37 139 -32 144 -37 b 231 -8 192 -37 213 -22 b 292 15 247 4 261 15 b 353 -8 322 15 336 4 b 431 -37 371 -22 392 -37 b 508 -8 469 -37 490 -22 b 569 15 525 4 539 15 b 631 -8 600 15 614 4 b 708 -37 649 -22 669 -37 b 786 -8 747 -37 768 -22 b 847 15 803 4 817 15 b 908 -8 878 15 892 4 b 986 -37 926 -22 947 -37 b 1064 -8 1025 -37 1046 -22 b 1089 8 1072 -1 1081 4 l 1090 8 l 1092 8 b 1125 15 1100 13 1111 15 b 1186 -8 1156 15 1169 4 b 1264 -37 1204 -22 1225 -37 b 1342 -8 1303 -37 1324 -22 b 1403 15 1358 4 1372 15 b 1464 -8 1433 15 1447 4 b 1542 -37 1482 -22 1503 -37 b 1556 -24 1550 -37 1556 -32 b 1542 -10 1556 -15 1550 -10 z m 575 561 l 642 542 l 622 475 l 556 494 z m 668 535 l 736 515 l 717 449 l 650 468 z m 763 507 l 829 488 l 810 421 l 743 440 z m 549 468 l 615 449 l 596 382 l 529 401 z m 689 354 l 622 374 l 642 440 l 708 422 z m 717 347 l 735 414 l 801 394 l 783 328 z m 1163 392 l 1229 372 l 1210 306 l 1143 325 z m 521 374 l 589 356 l 569 289 l 503 307 z m 1304 279 l 1236 299 l 1256 365 l 1322 346 z m 682 328 l 663 261 l 596 281 l 615 347 z m 1331 272 l 1350 338 l 1417 319 l 1397 253 z m 775 301 l 756 235 l 689 254 l 708 321 z m 1490 225 l 1424 244 l 1443 311 l 1510 292 z m 1136 299 l 1203 279 l 1183 213 l 1117 232 z m 494 281 l 561 261 l 542 194 l 475 214 z m 1296 253 l 1276 186 l 1210 206 l 1229 272 z m 654 235 l 636 168 l 569 188 l 588 254 z m 1369 158 l 1303 178 l 1322 244 l 1389 226 z m 749 208 l 729 142 l 663 160 l 682 226 z m 1464 132 l 1397 151 l 1417 218 l 1483 199 z m 1108 206 l 1175 186 l 1157 119 l 1090 139 z m 468 188 l 535 168 l 515 101 l 449 121 z m 1269 160 l 1250 93 l 1183 111 l 1203 178 z m 925 14 b 900 31 918 19 910 25 l 939 165 l 1032 139 l 989 -10 l 986 -10 b 925 14 956 -10 942 1 z m 628 142 l 608 75 l 542 93 l 561 161 z m 1363 132 l 1343 65 l 1276 85 l 1296 151 z m 654 133 l 721 114 l 694 47 l 628 67 z m 1456 106 l 1436 39 l 1369 58 l 1389 125 z m 1088 38 l 1063 44 l 1082 113 l 1149 93 b 1135 43 1140 63 1136 49 l 1125 43 b 1088 38 1110 43 1099 40 z m 440 94 l 507 75 l 490 13 b 486 10 489 11 488 10 l 422 28 z m 1163 38 l 1175 85 l 1242 65 l 1224 0 b 1226 -1 1225 0 1225 -1 b 1203 14 1218 3 1211 8 b 1163 38 1192 22 1179 32 z m 525 35 l 535 67 l 601 47 l 599 40 b 569 43 590 42 581 43 b 525 35 551 43 536 40 z m 1325 14 b 1264 -10 1308 1 1294 -10 l 1253 -10 l 1250 -8 l 1269 58 l 1336 39 l 1329 18 z m 625 29 l 628 40 l 694 21 l 686 -7 b 647 14 669 -4 660 4 b 625 29 640 19 633 25 z m 360 21 b 378 8 367 17 372 13 b 386 3 381 6 383 4 b 369 14 381 6 375 10 b 360 21 367 17 363 19 z m 413 -8 l 414 0 l 446 -8 b 431 -10 442 -10 436 -10 b 413 -8 424 -10 418 -10 z "},"ꀮ":{"ha":1938,"x_min":0,"x_max":0,"o":"m 650 238 l 690 238 l 749 313 l 783 313 l 794 325 l 840 382 l 868 382 l 931 442 l 960 442 l 960 532 l 889 532 l 939 586 l 939 614 b 968 642 939 628 961 638 b 950 671 957 647 950 658 b 983 704 950 689 964 704 b 1015 671 1001 704 1015 689 b 997 642 1015 658 1008 646 b 1025 614 1004 638 1025 628 l 1025 586 l 1075 532 l 1006 532 l 1006 442 l 1040 442 l 1103 382 l 1131 382 l 1144 364 l 1144 365 l 1175 326 l 1188 313 l 1222 313 l 1281 238 l 1319 238 l 1382 151 l 1760 151 l 1760 213 l 1736 213 l 1715 510 l 1654 510 l 1632 213 l 1613 213 l 1575 257 l 1525 257 l 1478 314 l 1533 314 l 1533 375 l 1510 375 l 1488 672 l 1426 672 l 1406 375 l 1386 375 l 1333 439 l 1299 439 l 1218 528 l 1156 528 b 1200 574 1172 528 1200 540 b 1156 618 1200 601 1183 618 b 1131 644 1142 618 1135 624 b 1119 757 1129 651 1126 721 b 1029 811 1113 796 1029 811 b 1025 824 1029 811 1025 818 l 1026 825 b 1054 901 1043 846 1054 876 b 982 972 1054 942 1019 972 b 910 901 944 972 910 942 b 936 828 910 878 919 847 b 938 824 936 826 938 825 b 936 811 938 818 936 811 b 843 757 936 811 853 796 b 835 644 835 721 836 651 b 810 618 829 624 819 618 b 763 574 782 618 763 601 b 810 528 763 540 793 528 l 732 528 l 651 439 l 617 439 l 564 375 l 547 375 l 528 672 l 461 672 l 442 375 l 415 375 l 415 314 l 471 314 l 425 257 l 375 257 l 340 213 l 325 213 l 306 510 l 239 510 l 219 213 l 193 213 l 193 151 l 589 151 z m 494 688 b 533 726 515 688 533 706 b 494 765 533 747 515 765 b 456 726 474 765 456 747 b 494 688 456 706 474 688 z m 1457 688 b 1497 726 1479 688 1497 706 b 1457 765 1497 747 1479 765 b 1419 726 1436 765 1419 747 b 1457 688 1419 706 1436 688 z m 272 525 b 311 564 293 525 311 543 b 272 603 311 586 293 603 b 233 564 251 603 233 586 b 272 525 233 543 251 525 z m 1685 525 b 1724 564 1706 525 1724 543 b 1685 603 1724 586 1706 603 b 1646 564 1663 603 1646 586 b 1685 525 1646 543 1663 525 z m 983 593 b 960 571 971 593 960 583 l 960 532 l 1006 532 l 1006 571 b 983 593 1006 583 994 593 z m 794 500 l 932 500 l 932 469 l 826 469 l 826 408 l 794 368 z m 1175 500 l 1175 369 l 1144 408 l 1144 469 l 1033 469 l 1033 500 z m 1103 171 l 1083 256 l 882 256 l 868 171 l 919 171 l 919 207 l 1050 207 l 1050 171 z m 764 151 l 692 -29 l 844 -29 l 844 47 l 1122 47 l 1122 -29 l 1279 -29 l 1197 151 z m 139 125 l 139 0 l 672 0 l 722 125 z m 1239 125 l 1297 0 l 1799 0 l 1799 125 z "},"ꀣ":{"ha":1676,"x_min":0,"x_max":0,"o":"m 1524 0 b 1449 -18 1486 0 1467 -8 b 1386 -32 1432 -25 1417 -32 l 1386 13 l 1349 13 l 1349 119 l 1386 119 l 1386 164 l 1349 164 l 1349 269 b 1386 297 1372 272 1386 281 b 1376 314 1386 301 1383 314 b 1371 311 1372 314 1371 313 l 1369 304 l 1363 303 b 1265 324 1350 303 1310 313 l 1265 343 l 1251 343 l 1251 417 b 1269 414 1257 415 1264 414 b 1310 440 1310 414 1310 435 b 1299 457 1310 446 1308 457 b 1289 450 1290 457 1289 450 b 1265 460 1286 450 1276 454 l 1265 500 l 1251 500 l 1251 575 b 1269 572 1257 574 1264 572 b 1310 599 1310 572 1310 593 b 1299 615 1310 604 1308 615 b 1289 608 1290 615 1289 608 b 1265 618 1286 608 1276 613 l 1265 658 l 1251 658 l 1251 733 b 1269 731 1257 732 1264 731 b 1310 757 1310 731 1310 751 b 1299 774 1310 761 1308 774 b 1289 767 1290 774 1289 767 b 1156 851 1276 767 1200 817 l 1144 924 l 1144 958 b 1132 971 1144 965 1138 971 b 1119 958 1126 971 1119 965 l 1119 924 l 1108 851 b 975 767 1065 817 988 767 b 965 774 975 767 974 774 b 954 757 956 774 954 761 b 994 731 954 751 954 731 b 1013 733 999 731 1007 732 l 1013 658 l 996 658 l 996 617 b 975 608 986 611 978 608 b 965 615 975 608 974 615 b 954 599 956 615 954 604 b 994 572 954 593 954 572 b 1013 575 999 572 1007 574 l 1013 500 l 996 500 l 996 458 b 975 450 986 453 978 450 b 965 457 975 450 974 457 b 954 440 956 457 954 446 b 994 414 954 435 954 414 b 1013 417 999 414 1007 415 l 1013 343 l 996 343 l 996 328 b 892 303 949 313 906 303 l 883 303 l 883 311 b 876 314 882 313 881 314 b 869 297 871 314 869 301 b 911 268 869 279 882 271 l 911 164 l 876 164 l 876 119 l 911 119 l 911 13 l 876 13 l 876 -28 b 839 -32 867 -29 854 -32 b 810 -29 828 -32 817 -31 l 810 13 l 772 13 l 772 119 l 810 119 l 810 164 l 772 164 l 772 269 b 810 297 797 272 810 281 b 800 314 810 301 808 314 b 794 311 796 314 794 313 l 793 304 l 786 303 b 689 324 774 303 733 313 l 689 343 l 675 343 l 675 417 b 693 414 681 415 689 414 b 733 440 733 414 733 435 b 722 457 733 446 732 457 b 713 450 714 457 713 450 b 689 460 710 450 700 454 l 689 500 l 675 500 l 675 575 b 693 572 681 574 689 572 b 733 599 733 572 733 593 b 722 615 733 604 732 615 b 713 608 714 615 713 608 b 689 618 710 608 700 613 l 689 658 l 675 658 l 675 733 b 693 731 681 732 689 731 b 733 757 733 731 733 751 b 722 774 733 761 732 774 b 713 767 714 774 713 767 b 579 851 700 767 624 817 l 568 924 l 568 958 b 556 971 568 965 561 971 b 543 958 550 971 543 965 l 543 924 l 532 851 b 399 767 489 817 411 767 b 389 774 399 767 397 774 b 378 757 379 774 378 761 b 418 731 378 751 378 731 b 436 733 424 731 431 732 l 436 658 l 419 658 l 419 617 b 399 608 410 611 401 608 b 389 615 399 608 397 615 b 378 599 379 615 378 604 b 418 572 378 593 378 572 b 436 575 424 572 431 574 l 436 500 l 419 500 l 419 458 b 399 450 410 453 401 450 b 389 457 399 450 397 457 b 378 440 379 457 378 446 b 418 414 378 435 378 414 b 436 417 424 414 431 415 l 436 343 l 419 343 l 419 328 b 315 303 372 313 329 303 l 307 303 l 307 311 b 300 314 306 313 306 314 b 293 297 294 314 293 301 b 335 268 293 279 306 271 l 335 164 l 300 164 l 300 119 l 335 119 l 335 13 l 300 13 l 300 -32 l 292 -32 b 231 -18 260 -32 246 -25 b 154 0 213 -8 193 0 b 139 -15 146 0 139 -7 b 154 -29 139 -24 146 -29 b 217 -44 185 -29 200 -37 b 292 -62 235 -54 254 -62 b 365 -44 329 -62 349 -54 b 429 -29 382 -37 397 -29 b 490 -44 458 -29 474 -37 b 564 -62 508 -54 528 -62 b 639 -44 601 -62 622 -54 b 701 -29 657 -37 671 -29 b 764 -44 733 -29 747 -37 b 839 -62 781 -54 801 -62 b 914 -44 876 -62 896 -54 b 975 -29 931 -37 946 -29 b 1038 -44 1007 -29 1021 -37 b 1113 -62 1056 -54 1075 -62 b 1188 -44 1150 -62 1169 -54 b 1250 -29 1204 -37 1218 -29 b 1311 -44 1279 -29 1294 -37 b 1386 -62 1329 -54 1349 -62 b 1461 -44 1424 -62 1444 -54 b 1524 -29 1478 -37 1492 -29 b 1538 -15 1531 -29 1538 -24 b 1524 0 1538 -7 1531 0 z m 579 642 l 529 642 l 529 707 b 554 729 529 718 540 729 b 579 707 568 729 579 718 z m 1156 642 l 1106 642 l 1106 707 b 1131 729 1106 718 1117 729 b 1156 707 1144 729 1156 718 z m 503 692 l 492 681 l 475 681 l 464 692 l 464 708 l 475 719 l 492 719 l 503 708 z m 644 692 l 633 681 l 617 681 l 606 692 l 606 708 l 617 719 l 633 719 l 644 708 z m 1079 692 l 1068 681 l 1051 681 l 1040 692 l 1040 708 l 1051 719 l 1068 719 l 1079 708 z m 1221 692 l 1210 681 l 1193 681 l 1182 692 l 1182 708 l 1193 719 l 1210 719 l 1221 708 z m 579 485 l 529 485 l 529 549 b 554 569 529 560 540 569 b 579 549 568 569 579 560 z m 1156 485 l 1106 485 l 1106 549 b 1131 569 1106 560 1117 569 b 1156 549 1144 569 1156 560 z m 503 528 l 492 517 l 475 517 l 464 528 l 464 544 l 475 556 l 492 556 l 503 544 z m 644 528 l 633 517 l 617 517 l 606 528 l 606 544 l 617 556 l 633 556 l 644 544 z m 1079 528 l 1068 517 l 1051 517 l 1040 528 l 1040 544 l 1051 556 l 1068 556 l 1079 544 z m 1221 528 l 1210 517 l 1193 517 l 1182 528 l 1182 544 l 1193 556 l 1210 556 l 1221 544 z m 579 326 l 529 326 l 529 390 b 554 411 529 401 540 411 b 579 390 568 411 579 401 z m 1156 326 l 1106 326 l 1106 390 b 1131 411 1106 401 1117 411 b 1156 390 1144 411 1156 401 z m 507 374 l 494 361 l 476 361 l 464 374 l 464 392 l 476 404 l 494 404 l 507 392 z m 644 374 l 632 361 l 614 361 l 601 374 l 601 392 l 614 404 l 632 404 l 644 392 z m 1083 374 l 1071 361 l 1053 361 l 1040 374 l 1040 392 l 1053 404 l 1071 404 l 1083 392 z m 1221 374 l 1208 361 l 1190 361 l 1178 374 l 1178 392 l 1190 404 l 1208 404 l 1221 392 z m 394 164 l 364 164 l 364 268 l 394 268 z m 742 164 l 715 164 l 715 268 l 742 268 z m 971 164 l 940 164 l 940 268 l 971 268 z m 1318 164 l 1292 164 l 1292 268 l 1318 268 z m 579 165 l 529 165 l 529 232 b 554 253 529 242 540 253 b 579 232 568 253 579 242 z m 1156 165 l 1106 165 l 1106 232 b 1131 253 1106 242 1117 253 b 1156 232 1144 253 1156 242 z m 503 213 l 490 200 l 472 200 l 460 213 l 460 231 l 472 243 l 490 243 l 503 231 z m 649 213 l 636 200 l 618 200 l 606 213 l 606 231 l 618 243 l 636 243 l 649 231 z m 1079 213 l 1067 200 l 1049 200 l 1036 213 l 1036 231 l 1049 243 l 1067 243 l 1079 231 z m 1225 213 l 1213 200 l 1194 200 l 1182 213 l 1182 231 l 1194 243 l 1213 243 l 1225 231 z m 394 13 l 364 13 l 364 119 l 394 119 z m 742 13 l 715 13 l 715 119 l 742 119 z m 971 13 l 940 13 l 940 119 l 971 119 z m 1318 13 l 1292 13 l 1292 119 l 1318 119 z m 579 11 l 529 11 l 529 75 b 554 96 529 88 540 96 b 579 75 568 96 579 88 z m 1156 11 l 1106 11 l 1106 75 b 1131 96 1106 88 1117 96 b 1156 75 1144 96 1156 88 z m 504 58 l 492 46 l 474 46 l 461 58 l 461 76 l 474 89 l 492 89 l 504 76 z m 650 58 l 638 46 l 619 46 l 607 58 l 607 76 l 619 89 l 638 89 l 650 76 z m 1081 58 l 1068 46 l 1050 46 l 1038 58 l 1038 76 l 1050 89 l 1068 89 l 1081 76 z m 1226 58 l 1214 46 l 1196 46 l 1183 58 l 1183 76 l 1196 89 l 1214 89 l 1226 76 z "},"ꀤ":{"ha":1117,"x_min":0,"x_max":0,"o":"m 578 1111 l 546 1111 l 546 1058 l 494 1058 l 494 1026 l 546 1026 l 546 963 l 461 769 l 446 769 l 446 732 l 676 732 l 676 769 l 660 769 l 578 963 l 578 1026 l 628 1026 l 628 1058 l 578 1058 z m 676 700 l 446 700 l 446 0 l 493 0 l 493 103 b 561 169 493 140 524 169 b 628 103 599 169 628 140 l 628 0 l 676 0 z m 526 517 l 526 592 b 561 626 526 610 540 626 b 596 592 581 626 596 610 l 596 517 z m 390 582 l 374 582 l 374 540 l 322 435 l 414 435 l 414 472 l 390 538 z m 746 582 l 729 582 l 729 538 l 706 472 l 706 435 l 799 435 l 746 540 z m 478 407 l 478 435 l 644 435 l 644 407 z m 414 407 l 322 407 l 322 247 l 414 247 z m 799 407 l 706 407 l 706 247 l 799 247 z m 290 401 l 139 347 l 139 308 l 290 360 z m 828 401 l 828 360 l 978 306 l 978 344 z m 565 288 b 522 331 540 288 522 307 b 565 372 522 353 540 372 b 606 331 588 372 606 353 b 565 288 606 307 588 288 z m 290 331 l 139 279 l 139 247 l 290 247 z m 828 331 l 828 247 l 978 247 l 978 276 z m 478 219 l 478 247 l 644 247 l 644 219 z m 290 219 l 140 219 l 140 0 l 172 0 l 172 69 l 258 69 l 258 0 l 290 0 z m 414 219 l 322 219 l 322 0 l 414 0 z m 799 219 l 706 219 l 706 0 l 799 0 z m 978 219 l 828 219 l 828 0 l 860 0 l 860 69 l 946 69 l 946 0 l 978 0 z m 172 118 l 172 136 b 215 179 172 160 192 179 b 258 136 239 179 258 160 l 258 118 z m 861 118 l 861 136 b 904 179 861 160 881 179 b 947 136 928 179 947 160 l 947 118 z "},"ꀢ":{"ha":1521,"x_min":0,"x_max":0,"o":"m 1196 719 b 760 807 1079 776 925 807 b 325 719 596 807 442 776 b 139 499 204 661 139 583 b 325 278 139 414 204 336 b 539 210 386 247 460 225 l 539 239 b 413 272 494 247 451 258 l 443 286 b 539 254 472 274 504 263 l 539 283 b 478 301 518 289 497 294 l 500 311 l 539 299 l 539 381 b 472 446 497 400 472 422 b 553 515 472 471 501 496 b 760 549 607 538 682 549 b 968 515 839 549 913 538 b 1047 446 1019 496 1047 471 b 982 381 1047 422 1024 400 l 982 299 b 1014 310 993 303 1004 306 l 1035 299 b 982 283 1018 293 1000 288 l 982 254 b 1071 282 1013 263 1043 272 l 1100 268 b 982 238 1063 257 1024 246 l 982 210 b 1196 278 1061 225 1133 247 b 1382 499 1315 336 1382 414 b 1196 719 1382 583 1315 661 z m 746 728 b 457 678 640 726 540 710 l 404 722 b 746 779 503 758 621 778 z m 774 779 b 1128 718 904 778 1026 757 l 1072 675 b 774 728 988 708 885 726 z m 211 604 b 336 694 240 638 282 668 l 374 711 l 428 667 l 411 658 b 261 494 321 614 268 557 l 167 510 b 211 604 169 543 185 574 z m 1310 604 b 1354 510 1336 575 1351 543 l 1258 493 b 1110 658 1251 556 1200 614 l 1101 663 l 1157 706 b 1183 694 1167 703 1175 699 b 1310 604 1238 668 1281 638 z m 746 653 b 525 621 667 651 590 640 l 482 657 b 746 700 558 685 650 699 z m 774 700 b 1046 654 874 699 968 683 l 1001 619 b 774 653 935 640 856 651 z m 453 646 l 494 611 b 467 600 485 607 475 604 b 340 481 393 568 350 526 l 289 489 b 322 561 292 514 303 539 b 422 633 346 588 379 613 z m 1181 479 b 1054 600 1171 526 1128 568 l 1032 610 l 1076 643 b 1097 633 1083 640 1090 636 b 1197 561 1140 613 1175 588 b 1232 489 1218 538 1229 514 z m 746 576 b 600 560 694 575 644 569 l 551 600 b 746 625 610 615 676 624 z m 774 625 b 974 599 846 624 914 615 l 922 558 b 774 576 878 569 828 575 z m 542 542 b 447 461 489 521 456 493 l 368 475 b 478 575 375 511 414 547 b 519 590 490 581 504 586 l 568 550 z m 978 542 l 954 550 l 1006 589 b 1043 575 1018 585 1031 581 b 1153 475 1107 547 1146 511 l 1074 461 b 978 542 1065 492 1033 519 z m 375 285 l 336 303 b 211 393 282 329 240 360 b 168 482 186 422 171 451 l 261 465 b 408 300 267 403 319 344 z m 638 482 b 567 450 599 482 567 468 l 567 354 b 638 363 583 360 610 363 b 710 354 667 363 693 360 l 710 450 b 638 482 710 468 678 482 z m 882 482 b 811 450 843 482 811 468 l 811 354 b 882 363 828 360 854 363 b 954 354 911 363 938 360 l 954 450 b 882 482 954 468 922 482 z m 1310 393 b 1183 303 1281 360 1238 329 l 1136 282 l 1104 297 b 1110 300 1106 299 1108 299 b 1258 465 1200 344 1253 401 l 1353 482 b 1310 393 1349 451 1335 421 z m 442 315 b 422 325 436 318 429 322 b 322 396 379 346 346 369 b 290 461 304 417 293 439 l 339 453 b 464 325 344 404 388 358 z m 1097 325 l 1071 313 l 1050 322 b 1054 324 1051 324 1053 324 b 1182 451 1131 357 1176 401 l 1231 461 b 1197 396 1226 438 1215 417 b 1097 325 1175 369 1140 346 z m 529 356 l 499 342 l 478 350 b 368 447 415 376 376 411 l 446 433 b 529 356 453 404 481 376 z m 1017 339 l 988 353 b 1074 433 1038 374 1068 403 l 1153 447 b 1043 350 1143 411 1106 376 b 1017 339 1035 346 1025 343 z m 738 314 l 783 314 l 783 342 l 738 342 z m 567 325 l 567 193 b 638 196 582 194 608 196 b 710 193 667 196 694 194 l 710 325 b 638 335 700 331 672 335 b 567 325 603 335 576 331 z m 811 325 l 811 193 b 882 196 826 194 853 196 b 954 193 911 196 939 194 l 954 325 b 882 335 944 331 917 335 b 811 325 847 335 821 331 z m 738 272 l 783 272 l 783 300 l 738 300 z m 738 229 l 783 229 l 783 257 l 738 257 z m 738 190 l 783 190 l 783 218 l 738 218 z m 567 165 l 567 0 l 710 0 l 710 165 b 638 168 696 167 668 168 b 567 165 607 168 579 167 z m 811 165 l 811 0 l 954 0 l 954 165 b 882 168 940 167 913 168 b 811 165 851 168 824 167 z "},"ꀯ":{"ha":1139,"x_min":0,"x_max":0,"o":"m 986 -11 b 925 13 956 -11 942 0 b 847 43 907 26 886 43 b 769 13 807 43 788 26 b 728 -10 757 3 744 -6 b 703 36 718 3 703 24 b 724 97 703 60 715 76 b 767 194 738 131 742 167 b 818 221 781 210 804 210 b 872 279 825 225 840 258 b 982 356 894 293 969 338 b 969 410 993 372 986 399 b 901 444 939 428 918 439 b 864 483 883 450 872 472 b 825 529 856 494 840 515 b 732 615 771 583 749 583 b 697 650 726 626 710 650 b 565 694 678 650 589 694 b 482 685 538 694 510 685 b 386 654 463 685 417 671 b 297 636 351 636 324 644 b 174 569 288 633 185 593 b 176 543 169 563 178 553 b 150 510 174 529 150 522 b 228 347 147 413 161 424 b 293 329 244 329 269 321 b 379 296 343 344 368 321 b 410 222 392 267 400 240 b 378 7 436 176 411 56 b 369 13 375 8 372 10 b 292 43 351 26 331 43 b 214 13 251 43 232 26 b 153 -11 197 0 182 -11 b 139 -25 144 -11 139 -17 b 153 -39 139 -32 144 -39 b 231 -8 192 -39 213 -22 b 292 15 247 4 261 15 b 353 -8 321 15 336 4 b 431 -39 371 -22 390 -39 b 496 -18 461 -39 481 -29 b 524 3 506 -12 515 -4 b 569 15 535 10 549 15 b 631 -8 599 15 614 4 b 708 -39 649 -22 668 -39 b 786 -8 747 -39 768 -22 b 847 15 803 4 817 15 b 908 -8 876 15 892 4 b 986 -39 926 -22 946 -39 b 1000 -25 993 -39 1000 -32 b 986 -11 1000 -17 993 -11 z "},"ꀱ":{"ha":889,"x_min":0,"x_max":0,"o":"m 357 761 l 525 761 l 525 903 l 471 939 l 471 972 l 410 972 l 410 939 l 357 903 z m 385 878 l 497 878 l 497 825 l 385 825 z m 642 733 l 240 733 l 240 685 l 275 685 b 268 515 275 640 272 583 l 615 515 b 607 685 611 574 608 629 l 642 685 z m 469 568 l 411 568 l 411 657 l 469 657 z m 246 275 l 638 275 b 617 492 628 356 622 426 l 267 492 b 246 275 261 429 254 357 z m 479 56 l 665 56 b 640 254 656 129 649 194 l 243 254 b 218 56 236 193 228 126 l 404 56 l 404 164 l 479 164 z m 139 28 l 139 0 l 750 0 l 750 28 z "},"ꀰ":{"ha":1008,"x_min":0,"x_max":0,"o":"m 499 894 b 538 933 519 894 538 911 b 499 972 538 956 519 972 b 460 933 476 972 460 956 b 499 894 460 911 476 894 z m 479 819 b 499 839 479 831 488 839 b 518 819 510 839 518 831 l 529 139 l 661 139 b 567 792 649 181 583 450 b 499 874 564 844 539 874 b 431 792 458 874 432 844 b 336 139 419 450 349 181 l 468 139 z m 194 83 l 139 0 l 411 0 l 411 111 l 194 111 z m 814 83 l 814 111 l 597 111 l 597 0 l 869 0 z m 439 56 l 569 56 l 569 83 l 439 83 z m 439 0 l 569 0 l 569 28 l 439 28 z "},"ꀬ":{"ha":1739,"x_min":0,"x_max":0,"o":"m 1600 0 l 1599 457 l 1543 565 l 1363 565 b 1353 589 1354 572 1353 579 l 1353 613 l 1269 613 l 1269 694 l 964 694 l 964 613 l 683 613 l 683 665 l 468 665 l 468 613 l 372 613 l 372 589 b 364 565 372 579 369 572 l 139 565 l 139 0 z m 275 28 b 401 257 275 129 401 76 b 286 457 401 422 286 376 b 400 585 286 536 400 506 l 478 585 b 590 463 481 504 592 536 b 478 272 590 376 478 432 b 574 28 478 144 574 143 z m 669 28 b 782 258 669 143 782 104 b 663 460 782 379 663 376 b 782 585 663 532 782 511 l 908 585 b 1028 460 908 511 1028 532 b 908 257 1028 376 908 379 b 1021 28 908 104 1021 143 z m 1086 28 b 1199 258 1086 143 1199 104 b 1079 460 1199 379 1079 379 b 1199 585 1079 532 1199 511 l 1325 585 b 1444 460 1325 511 1444 532 b 1325 257 1444 376 1325 379 b 1438 28 1325 104 1438 143 z m 167 538 l 306 538 b 258 457 278 524 258 503 l 167 457 z m 1568 457 l 1478 457 b 1414 538 1478 503 1446 524 l 1524 538 z "},"ꀭ":{"ha":1060,"x_min":0,"x_max":0,"o":"m 276 285 l 785 285 b 851 367 813 285 851 315 b 799 442 851 396 829 442 b 749 481 772 442 754 449 b 733 632 746 488 743 576 b 592 703 724 686 592 703 b 589 724 592 703 589 713 b 611 746 589 728 611 746 b 629 738 611 742 614 738 b 646 757 639 738 646 747 l 646 822 b 628 842 646 838 638 842 b 626 894 628 849 629 867 b 531 972 622 938 576 972 b 436 894 486 972 440 938 b 435 842 433 867 435 849 b 415 822 422 842 415 838 l 415 757 b 433 738 415 747 422 738 b 450 746 443 738 449 743 b 472 724 450 746 472 739 b 469 703 472 713 469 703 b 328 632 469 703 338 686 b 313 481 318 576 315 488 b 263 442 307 449 289 442 b 210 367 232 442 210 396 b 276 285 210 315 249 285 z m 200 67 l 863 67 l 864 67 b 908 163 889 67 908 108 b 864 257 908 215 889 257 l 200 257 b 156 164 175 257 156 215 b 200 67 156 107 175 67 z m 139 39 l 139 0 l 921 0 l 921 39 z "},"ꀴ":{"ha":900,"x_min":0,"x_max":0,"o":"m 674 56 l 674 522 b 560 553 674 535 628 547 l 560 610 b 481 624 560 615 525 621 b 474 653 481 633 475 643 l 474 679 b 485 789 486 717 486 751 b 496 863 486 793 494 851 b 521 842 499 856 510 846 b 569 889 557 831 569 850 b 572 900 569 892 572 900 l 578 900 b 571 967 586 910 579 956 b 475 1028 549 997 533 1011 b 478 1051 475 1036 478 1043 b 436 1090 478 1064 465 1090 b 390 1054 401 1090 400 1063 b 372 1047 381 1051 372 1051 b 383 1042 372 1043 381 1042 b 394 1035 390 1042 394 1039 b 396 1006 394 1024 394 1014 b 360 972 381 996 368 989 b 336 911 349 950 340 931 b 314 871 324 903 314 885 b 332 840 314 858 321 846 b 346 800 335 815 343 800 l 363 804 b 381 761 368 794 378 772 b 390 728 386 740 386 736 b 432 732 397 713 411 714 b 438 696 432 732 436 713 b 422 646 438 635 440 678 b 399 625 415 639 396 646 l 400 622 b 340 610 364 619 340 615 l 340 553 b 226 522 272 547 226 535 l 226 56 b 139 43 172 51 139 47 l 139 0 l 761 0 l 761 43 b 674 56 761 47 728 53 z m 499 903 b 500 936 499 928 499 931 b 522 957 506 946 510 958 b 540 901 533 957 540 924 l 546 901 l 546 896 b 521 901 543 882 529 901 b 515 888 514 901 515 889 b 499 889 511 886 504 886 z m 429 775 b 410 783 419 775 414 776 l 404 799 b 392 854 393 831 393 843 b 414 865 397 857 404 861 b 425 821 440 857 426 836 b 429 775 421 803 425 789 z "},"ꀵ":{"ha":1644,"x_min":0,"x_max":0,"o":"m 688 361 b 821 493 688 433 747 493 b 954 361 894 493 954 433 l 954 222 l 1240 222 l 1240 694 l 1111 694 l 1111 639 l 1069 639 l 1069 694 l 989 694 l 989 639 l 947 639 l 947 694 l 696 694 l 696 639 l 654 639 l 654 694 l 574 694 l 574 639 l 532 639 l 532 694 l 417 694 l 417 222 l 688 222 z m 739 647 l 904 647 l 904 567 l 739 567 z m 389 222 l 389 407 l 319 407 l 319 360 l 278 360 l 278 407 l 208 407 l 208 222 z m 1449 222 l 1449 407 l 1379 407 l 1379 360 l 1338 360 l 1338 407 l 1268 407 l 1268 222 z m 208 194 l 139 0 l 657 0 l 699 194 z m 726 194 l 721 167 l 921 167 l 915 194 z m 1450 194 l 943 194 l 985 0 l 1506 0 z m 708 111 l 933 111 l 926 139 l 714 139 z m 697 56 l 946 56 l 939 83 l 703 83 z m 690 28 l 685 0 l 957 0 l 951 28 z "},"ꀷ":{"ha":814,"x_min":0,"x_max":0,"o":"m 407 972 b 139 694 258 972 139 856 b 318 322 139 569 231 425 l 332 243 l 339 124 l 475 124 l 482 243 l 496 322 b 675 694 583 425 675 569 b 407 972 675 856 556 972 z m 407 944 b 467 694 447 903 467 794 b 422 350 467 590 443 444 l 392 350 b 347 694 371 444 347 590 b 407 944 347 794 367 903 z m 172 694 b 339 938 172 810 236 904 b 249 694 285 888 249 815 b 351 350 249 572 301 456 l 328 350 b 172 694 261 443 172 575 z m 486 350 l 463 350 b 565 694 513 456 565 572 b 475 938 565 815 529 888 b 642 694 578 904 642 810 b 486 350 642 575 553 443 z m 454 243 l 360 243 l 346 322 l 468 322 z "},"ꀶ":{"ha":1651,"x_min":0,"x_max":0,"o":"m 1494 238 b 824 514 1179 238 1106 514 b 157 238 539 514 474 238 l 139 238 l 139 192 l 157 192 b 824 468 474 192 544 468 b 1494 192 1094 468 1179 192 l 1513 192 l 1513 238 z m 139 56 l 575 56 b 565 126 568 78 565 101 b 826 388 565 271 682 388 b 1088 126 971 388 1088 271 b 1079 56 1088 104 1085 81 l 1513 56 l 1513 164 l 1494 164 b 824 438 1179 164 1081 438 b 157 164 554 438 474 164 l 139 164 z m 139 0 l 585 0 l 585 28 l 139 28 z m 1513 0 l 1513 28 l 1075 28 l 1075 0 z "},"ꀲ":{"ha":625,"x_min":0,"x_max":0,"o":"m 351 992 b 329 1024 350 1006 342 1018 l 329 1097 b 315 1111 329 1104 322 1111 b 301 1097 307 1111 301 1104 l 301 1024 b 279 992 289 1018 279 1006 b 226 911 250 975 226 943 l 406 911 b 351 992 406 943 382 976 z m 274 1097 l 239 1097 l 239 1063 l 274 1063 z m 392 1097 l 357 1097 l 357 1063 l 392 1063 z m 194 744 l 213 744 l 213 672 l 419 672 l 419 744 l 438 744 b 453 761 447 744 453 753 l 453 763 b 438 779 453 772 447 779 l 406 779 l 406 885 l 226 885 l 226 779 l 194 779 b 178 763 185 779 178 772 l 178 761 b 194 744 178 753 185 744 z m 139 644 l 139 617 l 157 617 l 222 543 l 196 0 l 436 0 l 410 543 l 475 617 l 486 617 l 486 644 z m 185 617 l 226 617 l 224 572 z m 408 572 l 406 617 l 447 617 z m 332 343 l 300 343 l 300 413 l 332 413 z m 332 114 l 300 114 l 300 183 l 332 183 z "},"ꀳ":{"ha":1311,"x_min":0,"x_max":0,"o":"m 426 978 l 354 1026 l 282 978 l 282 860 l 426 860 z m 507 832 l 201 832 l 201 750 l 507 750 z m 493 694 l 493 722 l 215 722 l 215 694 b 257 646 243 694 257 675 l 236 69 l 303 69 l 303 174 l 354 207 l 406 174 l 406 69 l 472 69 l 451 646 b 493 694 451 675 465 694 z m 367 533 l 367 585 l 403 585 l 403 533 z m 318 382 l 282 382 l 282 433 l 318 433 z m 1089 358 l 992 358 l 992 386 l 939 386 l 939 358 l 842 358 l 842 386 l 789 386 l 789 358 l 692 358 l 692 386 l 639 386 l 639 358 l 542 358 l 542 331 l 1089 331 z m 431 299 l 394 299 l 394 350 l 431 350 z m 1089 303 l 542 303 l 542 69 l 1089 69 z m 706 111 l 625 111 l 625 200 b 665 240 625 221 643 240 b 706 200 688 240 706 221 z m 856 111 l 775 111 l 775 200 b 815 240 775 221 793 240 b 856 200 838 240 856 221 z m 1006 111 l 925 111 l 925 200 b 965 240 925 221 943 240 b 1006 200 988 240 1006 221 z m 378 150 l 331 150 l 331 69 l 378 69 z m 139 42 l 139 0 l 1172 0 l 1172 42 z "},"ꀔ":{"ha":1768,"x_min":0,"x_max":0,"o":"m 996 167 l 1086 167 l 1086 435 l 1150 435 l 1150 167 l 1629 167 l 1629 538 l 1260 538 l 1260 707 l 1083 707 l 1083 765 l 1060 765 b 889 883 1035 833 967 883 b 718 765 811 883 743 833 l 688 765 l 688 707 l 513 707 l 513 538 l 139 538 l 139 167 l 622 167 l 622 435 l 688 435 l 688 167 l 776 167 l 776 435 l 840 435 l 840 167 l 931 167 l 931 435 l 996 435 z m 614 565 l 886 706 l 1158 565 l 1158 558 l 614 558 z m 1158 471 l 614 471 l 614 531 l 1158 531 z m 272 356 l 210 356 l 210 456 l 272 456 z m 392 356 l 329 356 l 329 456 l 392 456 z m 513 356 l 450 356 l 450 456 l 513 456 z m 1322 356 l 1260 356 l 1260 456 l 1322 456 z m 1443 356 l 1379 356 l 1379 456 l 1443 456 z m 1563 356 l 1500 356 l 1500 456 l 1563 456 z m 272 224 l 210 224 l 210 308 l 272 308 z m 392 224 l 329 224 l 329 308 l 392 308 z m 513 224 l 450 224 l 450 308 l 513 308 z m 1322 224 l 1260 224 l 1260 308 l 1322 308 z m 1443 224 l 1379 224 l 1379 308 l 1443 308 z m 1563 224 l 1500 224 l 1500 308 l 1563 308 z m 139 0 l 588 0 l 588 139 l 139 139 z m 1157 139 l 615 139 l 615 111 l 1157 111 z m 1185 0 l 1629 0 l 1629 139 l 1185 139 z m 615 56 l 1157 56 l 1157 83 l 615 83 z m 615 0 l 1157 0 l 1157 28 l 615 28 z "},"ꀓ":{"ha":1899,"x_min":0,"x_max":0,"o":"m 501 501 l 507 481 b 642 457 507 481 564 457 l 1256 457 b 1389 481 1332 457 1389 481 l 1396 501 b 1243 617 1275 481 1244 613 l 1269 694 l 1243 694 b 949 624 1215 681 1154 624 b 654 694 743 624 682 681 l 626 694 l 653 617 b 501 501 653 613 622 481 z m 949 639 b 972 664 961 639 972 650 b 949 688 972 676 961 688 b 924 664 935 688 924 676 b 949 639 924 650 935 639 z m 1551 461 b 1454 539 1458 447 1454 529 l 1464 590 l 1436 590 b 1306 554 1418 567 1433 558 b 1372 528 1322 536 1344 528 b 1419 525 1393 528 1411 533 b 1418 471 1424 521 1428 507 b 1408 460 1417 465 1414 463 b 1286 431 1406 458 1344 435 l 1286 400 l 1482 400 b 1551 433 1521 400 1551 433 z m 347 460 l 347 432 b 417 399 347 432 378 399 l 613 399 l 613 429 b 490 458 554 433 493 457 b 481 469 485 461 482 464 b 479 524 471 506 475 519 b 526 526 488 532 506 526 b 593 553 554 526 576 535 b 463 589 465 557 481 565 l 435 589 l 444 538 b 347 460 444 528 440 446 z m 1510 350 l 1760 350 l 1760 378 b 1660 476 1713 411 1660 476 l 1569 476 b 1579 450 1572 475 1579 467 l 1579 433 b 1574 414 1579 426 1578 418 b 1510 378 1568 408 1547 385 z m 389 349 l 389 376 b 325 413 351 383 331 407 b 319 432 321 417 319 425 l 319 449 b 329 475 319 465 326 474 l 239 475 b 139 376 239 475 186 410 l 139 349 z m 1256 83 l 1256 429 l 640 429 l 640 83 l 699 83 l 699 336 l 789 336 l 789 83 l 889 83 l 889 336 l 1007 336 l 1007 83 l 1108 83 l 1108 336 l 1199 336 l 1199 83 z m 1042 364 l 856 364 l 856 401 l 1042 401 z m 613 83 l 613 371 l 417 371 l 417 83 l 474 83 l 474 322 l 540 322 l 540 83 z m 1479 83 l 1479 371 l 1283 371 l 1283 83 l 1358 83 l 1358 322 l 1422 322 l 1422 83 z m 389 83 l 389 321 l 197 321 l 197 83 z m 1507 83 l 1699 83 l 1699 321 l 1507 321 z m 197 56 l 197 0 l 1699 0 l 1699 56 z "},"ꀂ":{"ha":844,"x_min":0,"x_max":0,"o":"m 557 967 b 574 972 561 968 568 972 l 578 972 b 592 964 583 972 589 968 l 608 942 b 625 933 610 938 619 933 l 674 917 b 688 908 679 917 683 913 l 703 882 b 703 869 708 881 704 874 l 672 838 b 663 822 669 835 667 826 l 657 794 l 657 775 l 663 763 b 668 743 667 757 668 749 l 669 735 b 668 715 669 731 669 721 l 653 681 b 644 664 651 676 646 669 l 613 583 b 608 563 608 578 608 568 b 608 546 608 557 610 550 b 574 358 600 494 578 369 l 549 286 b 542 267 546 282 542 272 b 532 236 538 251 540 247 l 485 157 b 474 144 483 153 476 146 l 438 104 b 429 89 436 100 431 94 l 396 4 b 394 -14 394 -1 394 -11 l 394 -103 b 390 -121 394 -110 392 -115 l 385 -140 b 372 -144 382 -144 376 -147 l 356 -136 b 340 -125 353 -133 344 -131 l 333 -121 b 329 -103 332 -115 329 -110 l 333 -79 b 332 -61 333 -74 333 -67 l 313 -19 b 300 -3 311 -14 307 -8 l 258 35 b 240 42 253 40 246 42 l 239 42 b 225 51 235 42 228 46 l 194 94 b 188 111 192 99 190 106 l 179 142 b 176 160 179 146 176 156 l 176 192 b 169 204 176 197 175 203 l 146 224 b 139 239 140 225 139 235 l 140 254 b 144 272 140 260 144 267 l 149 294 b 154 310 149 299 154 306 l 158 313 b 163 329 163 318 165 324 l 158 424 b 163 439 158 428 158 435 l 324 722 b 336 739 326 728 332 735 l 372 781 b 385 794 376 783 382 790 l 425 885 b 438 894 426 889 435 894 l 479 910 b 500 917 485 913 492 915 l 525 921 b 536 933 531 924 536 929 b 542 951 536 938 538 946 z "},"ꀆ":{"ha":858,"x_min":0,"x_max":0,"o":"m 618 503 b 686 572 651 503 686 538 b 719 640 686 606 719 606 l 719 675 b 686 708 719 708 686 708 b 651 742 669 708 651 726 b 583 776 651 776 618 776 l 549 776 b 378 708 515 776 411 708 b 343 675 343 708 343 708 b 310 640 343 640 322 640 b 275 606 275 640 275 619 b 275 538 275 572 275 572 l 275 468 b 207 367 275 435 242 367 b 139 264 174 367 139 297 b 207 196 139 229 174 196 l 240 196 b 343 264 275 196 319 239 b 618 503 378 297 583 503 z "},"ꀇ":{"ha":1343,"x_min":0,"x_max":0,"o":"m 1200 344 l 1181 372 b 1168 378 1178 376 1174 378 b 1158 376 1165 378 1161 378 l 1157 375 b 1144 375 1154 372 1149 372 l 1076 421 b 1063 436 1072 424 1065 431 l 1024 497 b 1021 515 1021 501 1019 510 l 1031 549 b 1025 574 1032 557 1031 568 l 932 710 b 913 725 929 715 919 722 l 761 775 b 736 778 754 778 743 779 l 644 769 b 622 758 638 769 628 764 l 563 678 b 550 657 558 674 553 664 l 522 567 b 513 549 522 561 517 553 l 471 503 b 456 497 467 499 461 497 l 326 528 b 308 536 321 529 313 533 l 176 617 b 167 618 175 618 171 618 b 153 614 163 618 157 618 l 150 610 b 139 586 143 604 139 594 b 154 567 139 578 146 569 l 167 565 b 186 557 174 564 182 560 l 306 467 b 318 450 310 463 315 456 l 342 401 b 354 379 343 394 350 385 l 425 288 b 446 278 429 282 439 278 l 489 279 b 503 272 494 279 501 276 l 510 263 b 532 250 514 257 524 251 l 572 247 b 594 243 579 247 589 246 l 617 233 b 642 229 622 229 633 228 b 711 243 686 238 703 240 b 726 226 714 239 722 232 b 742 222 731 224 736 222 b 751 224 746 222 749 222 l 804 251 b 821 251 808 254 817 254 l 835 246 b 858 242 842 243 851 242 l 956 254 b 974 250 961 256 969 254 l 1047 199 b 1064 193 1051 196 1058 193 b 1072 194 1067 193 1071 194 l 1151 222 b 1169 239 1158 225 1167 233 l 1203 319 b 1200 344 1206 326 1204 338 z "},"ꀄ":{"ha":976,"x_min":0,"x_max":0,"o":"m 835 450 l 824 464 b 815 482 821 468 817 478 l 803 518 b 803 536 801 522 801 531 l 815 572 b 815 582 817 576 815 579 b 806 585 813 585 808 585 l 794 582 b 785 589 790 582 786 585 b 775 635 785 590 776 632 b 763 643 775 638 767 642 b 754 656 757 644 754 650 l 754 676 b 740 692 754 685 747 692 l 721 693 b 704 700 717 693 708 696 b 679 725 694 711 681 722 b 660 758 679 726 676 732 b 640 767 657 764 649 768 l 632 764 b 613 753 625 763 617 758 l 611 751 b 599 733 608 747 601 739 l 583 711 b 568 704 581 707 574 704 l 557 704 b 542 692 550 704 543 697 l 539 668 b 546 647 539 661 542 651 l 549 642 b 549 628 551 638 551 632 l 543 619 b 529 607 539 615 533 608 l 514 600 b 506 582 507 597 503 589 l 508 576 b 507 561 510 572 510 565 l 476 513 b 463 508 474 508 468 507 l 378 535 b 360 544 372 538 364 542 l 276 611 b 254 614 271 615 261 617 l 200 588 b 185 571 193 585 186 578 l 174 546 b 182 528 171 539 175 531 l 197 519 b 207 521 201 518 204 518 b 208 529 208 521 208 524 l 207 531 b 213 540 206 535 208 539 b 232 544 217 542 225 543 l 238 546 b 246 539 242 546 244 543 l 246 536 b 239 522 246 531 243 525 l 228 514 b 217 497 222 510 217 503 b 221 479 217 493 218 485 l 243 401 b 239 388 244 397 242 390 l 226 376 b 213 357 222 372 215 364 l 208 350 b 196 340 207 344 200 340 l 183 338 b 161 332 178 338 167 335 l 146 325 b 139 319 142 325 140 321 b 142 308 139 315 139 311 l 167 281 b 185 265 171 275 181 269 l 215 249 b 233 238 221 246 228 240 l 293 206 b 301 204 296 206 299 204 b 314 210 307 204 310 206 l 338 235 b 349 253 340 239 347 247 l 368 299 b 381 314 371 304 376 311 l 485 388 b 503 393 489 390 497 393 l 574 394 b 589 388 579 394 586 390 l 594 381 b 614 368 599 375 607 371 l 639 364 b 657 356 644 363 653 360 l 675 342 b 683 326 679 338 683 332 l 685 304 b 694 296 685 299 689 296 l 700 296 l 757 322 b 775 336 763 325 771 331 l 793 354 b 801 375 797 360 801 368 b 803 399 801 385 801 396 l 833 431 b 835 450 839 436 839 444 z "},"ꀅ":{"ha":778,"x_min":0,"x_max":0,"o":"m 639 651 l 631 735 b 624 744 629 739 626 742 l 611 749 l 600 749 l 535 722 b 525 721 533 721 529 721 l 478 717 l 469 717 l 444 717 b 443 719 443 717 443 718 l 443 751 b 438 758 443 756 440 758 b 433 757 436 758 435 757 l 413 746 b 406 744 411 744 407 744 b 378 747 404 744 386 747 b 371 746 375 747 371 747 b 322 710 368 740 344 725 b 314 708 321 708 317 707 l 233 717 b 222 718 229 717 225 718 l 189 729 b 176 729 185 731 179 729 l 172 726 b 165 728 171 726 168 726 l 154 733 b 144 729 150 736 146 733 b 139 693 139 696 139 694 b 151 668 140 692 147 678 b 167 643 163 649 165 644 b 257 532 172 638 224 575 b 260 525 260 531 260 526 l 240 376 b 242 372 240 375 242 374 b 247 368 243 369 244 368 l 331 358 b 339 356 333 358 338 357 l 444 290 b 450 283 446 289 450 286 l 464 257 b 468 249 465 256 467 251 l 475 224 b 483 217 476 219 479 217 l 507 214 l 508 213 b 518 215 511 213 515 214 b 551 231 533 222 549 229 l 597 219 b 608 224 601 218 606 219 l 618 233 b 617 244 619 238 619 243 l 578 279 b 574 288 576 282 574 285 l 554 343 b 547 353 553 346 549 350 l 525 371 b 524 375 524 372 524 374 b 549 435 535 401 546 431 l 588 435 b 597 442 590 435 596 438 l 607 458 b 608 469 608 461 608 467 l 603 515 b 604 524 603 518 603 522 b 624 554 610 533 622 553 b 639 640 624 556 625 557 z "},"ꀃ":{"ha":1003,"x_min":0,"x_max":0,"o":"m 596 972 b 585 963 593 972 588 968 l 578 950 b 568 935 576 944 571 938 l 565 933 l 551 918 l 550 917 b 543 903 546 914 543 907 b 551 896 543 899 547 896 b 558 888 556 896 558 892 b 567 881 558 883 563 881 b 581 886 571 881 576 882 l 582 888 b 599 899 586 892 594 897 l 626 907 b 635 919 632 910 635 915 l 635 931 b 628 949 635 936 633 943 l 626 950 b 613 956 622 954 615 956 b 604 964 607 956 604 960 b 596 972 604 969 601 972 z m 407 636 b 436 607 407 621 421 607 b 451 621 451 607 451 613 b 467 636 451 629 451 636 l 497 636 b 513 621 513 636 513 635 l 513 607 b 528 575 513 590 513 575 b 543 544 543 575 543 575 b 528 514 543 531 528 531 b 575 497 528 504 558 497 b 589 531 589 497 589 514 b 575 544 589 544 589 544 b 558 560 560 544 558 544 b 589 590 558 575 568 590 b 604 607 599 590 604 594 b 558 682 604 624 563 682 l 528 682 b 513 699 515 682 522 699 b 497 682 506 699 497 699 b 467 667 497 676 483 667 l 436 667 b 407 636 421 667 407 647 z m 285 292 b 285 329 311 292 288 318 b 286 381 281 343 279 367 b 314 406 292 392 308 393 b 324 511 331 439 300 478 b 382 532 339 531 364 524 b 388 554 390 536 394 547 b 358 561 381 561 368 563 b 310 575 340 561 322 561 b 331 607 290 596 331 589 b 300 621 331 621 331 621 b 267 557 263 621 279 581 b 250 532 264 549 254 542 b 251 494 246 519 246 507 b 263 442 256 478 265 458 b 214 407 258 422 213 425 b 246 385 214 397 240 393 b 240 336 258 368 254 349 b 182 322 225 322 201 322 b 143 282 168 322 126 297 b 196 289 154 271 185 283 b 254 297 217 297 232 303 b 285 292 260 296 275 292 z m 619 468 b 604 497 619 474 619 497 l 589 497 b 558 468 575 497 558 483 b 575 453 558 453 568 453 l 589 453 b 619 468 604 453 619 453 z m 864 269 b 851 283 863 276 857 283 b 838 290 847 285 840 285 b 832 318 832 297 835 310 b 832 342 828 326 828 335 b 833 361 835 349 833 353 b 803 439 833 376 828 439 b 774 426 785 439 790 426 b 756 446 763 426 763 433 b 726 453 750 454 736 453 b 711 443 718 453 711 453 b 704 429 711 438 710 433 b 688 426 699 426 694 426 b 672 428 683 425 678 424 b 665 439 668 432 667 433 b 644 453 665 451 656 458 b 615 436 631 446 629 438 b 582 439 603 433 596 440 b 579 414 568 436 575 421 b 585 390 583 403 585 403 b 569 374 585 385 575 376 b 557 360 564 369 557 367 b 554 349 557 353 558 350 b 538 349 549 343 542 346 b 528 375 529 357 529 361 b 510 390 526 385 522 394 b 485 375 499 388 493 382 b 468 367 481 371 474 367 b 449 367 461 365 456 365 b 438 357 442 368 433 367 b 456 336 440 346 449 343 b 454 315 464 328 465 319 b 439 310 449 314 443 314 b 439 290 435 304 435 293 b 449 283 442 285 444 283 b 460 278 453 283 460 282 b 440 265 460 268 451 275 b 435 247 436 260 435 254 b 465 240 438 235 456 240 l 508 240 b 550 238 522 240 538 243 b 558 217 557 233 558 224 b 556 172 560 201 563 186 b 535 169 554 167 540 165 b 510 174 528 175 517 185 b 493 163 504 165 504 163 b 476 172 485 163 482 167 b 449 176 469 181 458 179 b 431 175 443 175 436 174 b 419 219 413 183 419 206 b 408 249 419 231 418 242 b 390 254 403 253 396 254 b 374 225 374 254 374 242 b 393 186 374 211 383 197 b 426 157 400 175 411 165 b 467 136 439 150 461 153 b 482 104 471 125 465 107 b 518 104 492 101 507 100 b 531 111 524 104 526 110 b 553 114 538 117 544 118 b 575 103 560 110 564 103 b 603 111 583 103 597 100 b 593 153 610 125 597 142 b 593 174 590 160 589 168 b 614 185 596 183 607 179 b 633 204 621 190 626 199 b 665 225 640 215 651 225 b 681 240 681 225 681 229 b 696 268 681 254 688 261 b 731 282 704 278 719 279 b 776 279 744 283 764 283 b 797 258 782 276 794 265 b 822 253 801 251 815 251 b 856 254 833 253 846 253 b 864 268 863 256 865 261 z m 376 58 b 365 67 374 63 369 65 b 321 47 346 74 331 63 b 307 32 318 43 314 33 b 283 40 299 29 292 40 b 269 24 272 40 267 33 b 319 17 274 0 304 13 b 351 24 331 18 340 22 b 389 33 363 26 381 19 b 376 58 393 42 388 53 z "},"ꀀ":{"ha":1194,"x_min":0,"x_max":0,"o":"m 139 800 l 139 189 l 1056 189 l 1056 800 z m 342 772 l 851 772 l 851 217 l 342 217 z m 519 453 b 521 461 521 456 521 458 l 519 499 b 521 504 519 500 519 501 l 588 621 l 592 626 l 607 644 b 613 650 608 646 610 649 l 629 688 b 633 692 629 689 633 690 l 650 696 b 660 700 654 699 657 700 l 671 701 l 674 706 b 676 714 674 708 675 713 l 683 719 b 689 722 685 721 688 722 l 690 722 b 697 718 694 722 696 721 l 704 710 b 711 706 704 708 708 706 l 731 700 b 738 696 732 700 733 699 l 742 686 b 742 679 744 685 743 682 l 729 667 b 726 661 729 667 728 663 l 724 650 b 725 642 724 647 724 644 l 726 636 b 728 628 728 635 728 632 l 729 625 b 728 618 729 624 729 619 l 722 604 b 718 596 722 603 719 599 l 706 564 b 704 554 704 560 704 557 l 704 549 b 689 472 700 526 690 476 l 678 442 b 676 433 678 440 676 436 b 672 421 675 428 676 426 l 654 389 b 649 385 651 388 649 385 l 633 367 b 631 361 633 365 632 363 l 617 325 l 617 318 l 617 282 b 614 276 617 281 615 278 l 613 267 b 607 265 610 265 608 264 l 600 268 b 593 272 600 269 594 271 l 590 276 l 589 282 l 590 292 l 590 299 l 582 317 l 578 322 l 560 339 b 553 343 558 340 554 343 l 551 343 b 547 346 550 343 547 344 l 535 364 b 532 371 533 364 533 368 l 528 383 l 526 390 l 526 403 b 524 408 526 406 525 407 l 514 415 b 511 422 513 417 511 419 l 513 429 l 513 436 l 517 444 z m 458 517 b 458 518 460 518 458 518 b 454 518 457 521 454 521 b 454 515 454 518 453 515 z m 451 500 l 453 500 b 454 504 456 501 456 503 b 453 504 454 504 454 504 l 451 507 b 450 501 449 507 449 503 z m 443 494 b 442 503 443 500 443 503 b 436 496 440 501 438 499 b 443 494 436 493 442 489 z m 453 488 b 446 486 450 488 446 486 l 446 479 b 465 482 449 476 464 479 b 465 500 468 486 467 499 b 453 488 464 501 457 489 z m 443 474 b 442 475 443 474 443 474 l 439 475 b 439 472 438 475 438 474 b 440 472 439 472 439 472 l 442 472 b 443 474 444 472 444 474 z m 431 456 b 431 450 428 456 428 450 b 431 456 435 450 435 456 z m 697 364 b 696 368 699 364 697 367 b 688 368 694 372 686 372 b 697 364 689 367 696 363 z m 540 329 b 540 322 539 325 539 322 b 542 325 540 322 542 322 b 540 329 542 326 542 331 z m 696 293 b 697 285 692 292 694 290 b 706 283 700 282 706 281 b 696 293 704 289 697 293 z "},"ꀁ":{"ha":1194,"x_min":0,"x_max":0,"o":"m 139 803 l 139 192 l 1056 192 l 1056 803 z m 1028 219 l 167 219 l 167 489 l 607 489 l 607 775 l 1028 775 z m 368 707 l 379 751 l 390 707 b 379 707 386 707 383 707 z m 324 735 l 356 706 b 346 699 351 701 349 700 b 336 692 342 697 339 694 z m 422 692 b 413 699 418 694 415 697 b 400 706 408 700 406 701 l 432 735 z m 379 586 b 321 640 349 586 321 610 b 379 697 321 672 349 697 b 433 640 410 697 433 672 b 379 586 433 610 410 586 z m 328 683 b 321 674 326 681 324 678 b 315 664 318 671 317 668 l 283 696 z m 472 696 l 440 664 b 435 674 439 668 436 671 b 429 683 433 678 431 681 z m 313 653 b 311 640 311 649 311 644 b 313 631 311 636 311 633 l 269 640 z m 443 631 b 444 640 444 633 444 636 b 443 653 444 644 444 649 l 489 640 z m 315 618 b 321 608 317 615 318 611 l 328 597 l 283 588 z m 429 597 b 435 608 431 600 433 604 l 440 618 l 472 588 z m 336 592 b 346 585 339 589 342 586 b 356 578 349 582 351 579 l 324 547 z m 413 585 b 422 592 415 586 418 589 l 432 547 l 400 578 b 413 585 406 579 408 582 z m 390 575 l 379 531 l 368 575 b 379 574 371 575 375 574 b 390 575 383 574 386 575 z "},"ꀑ":{"ha":1892,"x_min":0,"x_max":0,"o":"m 1661 396 b 1347 615 1556 396 1347 515 l 1347 694 b 1313 661 1322 694 1313 661 l 579 661 b 544 694 579 661 569 694 l 544 615 b 229 396 544 515 336 396 b 139 419 186 396 156 408 l 139 386 b 339 314 139 386 203 314 l 726 314 l 726 517 l 708 524 l 704 590 l 769 583 l 769 561 l 1121 561 l 1121 583 l 1188 590 l 1183 524 l 1165 517 l 1165 314 l 1553 314 b 1753 386 1660 314 1753 386 l 1753 419 b 1661 396 1736 408 1701 396 z m 1128 118 l 1128 508 l 764 508 l 764 118 l 808 118 l 808 194 l 868 194 l 868 118 l 903 118 l 903 194 l 988 194 l 988 118 l 1022 118 l 1022 194 l 1083 194 l 1083 118 z m 865 415 l 865 474 l 1026 474 l 1026 415 z m 868 235 l 808 235 l 808 383 l 868 383 z m 988 235 l 903 235 l 903 383 l 988 383 z m 1022 235 l 1022 383 l 1083 383 l 1083 235 z m 299 286 l 299 118 l 354 118 l 354 286 z m 424 286 l 424 118 l 478 118 l 478 286 z m 549 286 l 549 118 l 601 118 l 601 286 z m 672 286 l 672 118 l 725 118 l 725 286 z m 1165 286 l 1165 118 l 1218 118 l 1218 286 z m 1289 286 l 1289 118 l 1343 118 l 1343 286 z m 1414 286 l 1414 118 l 1467 118 l 1467 286 z m 1538 286 l 1538 118 l 1592 118 l 1592 286 z m 226 90 l 226 0 l 1665 0 l 1665 90 z "},"ꀒ":{"ha":1557,"x_min":0,"x_max":0,"o":"m 1213 500 b 1299 515 1279 500 1299 515 l 1294 554 b 1246 544 1294 554 1276 544 b 1075 651 1110 544 1075 651 l 1075 694 l 1047 694 l 1047 651 l 510 651 l 510 694 l 482 694 l 482 651 b 311 544 482 651 447 544 b 263 554 281 544 263 554 l 258 515 b 344 500 258 515 278 500 z m 1274 382 b 1418 422 1378 382 1418 422 l 1401 450 b 1221 472 1318 390 1221 472 l 336 472 b 154 450 336 472 247 404 l 139 422 b 283 382 139 422 181 382 z m 283 143 l 343 143 l 343 354 l 283 354 z m 483 143 l 483 354 l 371 354 l 371 143 z m 651 143 l 651 354 l 511 354 l 511 143 l 553 143 l 553 233 l 610 233 l 610 143 z m 878 143 l 878 354 l 679 354 l 679 143 l 739 143 l 739 261 l 818 261 l 818 143 z m 1046 143 l 1046 354 l 906 354 l 906 143 l 947 143 l 947 233 l 1004 233 l 1004 143 z m 1186 143 l 1186 354 l 1074 354 l 1074 143 z m 1274 143 l 1274 354 l 1214 354 l 1214 143 z m 1347 115 l 210 115 l 172 1 l 642 1 l 632 -46 l 925 -46 l 915 1 l 1385 1 z m 672 -18 l 693 86 l 864 86 l 885 -18 z "},"ꀏ":{"ha":2106,"x_min":0,"x_max":0,"o":"m 1250 793 l 1358 824 l 1358 856 b 1217 944 1285 856 1238 868 l 1217 972 b 1157 944 1169 972 1157 944 l 949 944 b 889 972 949 944 936 972 l 889 939 b 749 856 868 868 822 856 l 749 824 l 857 793 z m 700 675 l 774 719 l 774 753 b 690 769 722 753 715 760 b 658 797 665 779 658 797 l 644 833 l 422 833 l 410 797 b 378 769 410 797 403 779 b 281 753 353 760 333 753 l 281 719 l 375 675 z m 1333 719 l 1407 675 l 1732 675 l 1826 719 l 1826 753 b 1729 769 1774 753 1754 760 b 1697 797 1704 779 1697 797 l 1685 833 l 1463 833 l 1449 797 b 1417 769 1449 797 1442 779 b 1333 753 1392 760 1385 753 z m 1731 647 l 1407 647 l 1407 535 l 1250 535 l 1250 765 l 857 765 l 857 535 l 700 535 l 700 647 l 375 647 l 375 456 l 244 456 l 244 0 l 413 0 l 413 69 l 333 69 l 333 293 l 404 376 l 679 376 l 733 301 l 733 97 l 814 97 l 814 376 l 904 453 l 1197 453 l 1292 376 l 1292 97 l 1374 97 l 1374 301 l 1424 376 l 1699 376 l 1772 293 l 1772 69 l 1688 69 l 1688 0 l 1850 0 l 1850 456 l 1731 456 z m 1181 563 l 925 563 l 925 704 l 1181 704 z m 728 563 l 829 563 l 829 626 l 728 626 z m 1278 563 l 1379 563 l 1379 626 l 1278 626 z m 347 483 l 347 607 l 300 607 b 206 553 300 607 278 563 b 153 550 193 551 168 550 b 139 550 146 550 142 550 l 139 518 b 244 483 139 518 190 483 z m 1953 550 b 1900 553 1938 550 1913 551 b 1806 607 1828 563 1806 607 l 1758 607 l 1758 483 l 1861 483 b 1967 518 1915 483 1967 518 b 1967 550 1967 518 1967 543 z m 640 483 l 433 483 l 433 583 l 640 583 z m 1674 483 l 1467 483 l 1467 583 l 1674 583 z m 1213 164 l 1213 97 l 1250 97 l 1250 151 b 1060 369 1250 272 1181 369 b 856 151 939 369 856 272 l 856 97 l 894 97 l 894 164 b 1060 332 894 251 961 332 b 1213 164 1158 332 1213 251 z m 654 97 l 692 97 l 692 139 b 535 310 692 242 629 310 b 375 139 453 310 375 242 l 375 97 l 413 97 l 413 151 b 535 272 413 218 476 272 b 654 151 606 272 654 218 z m 1693 97 l 1731 97 l 1731 139 b 1572 310 1731 242 1667 310 b 1414 139 1478 310 1414 242 l 1414 97 l 1451 97 l 1451 151 b 1572 272 1451 218 1501 272 b 1693 151 1643 272 1693 218 z m 1175 128 b 1167 143 1175 135 1171 139 b 1176 161 1172 146 1176 153 b 1156 182 1176 172 1168 182 b 1135 161 1144 182 1135 172 b 1144 142 1135 153 1139 146 b 1138 128 1140 139 1138 135 l 1138 36 l 1117 36 l 1117 0 l 1194 0 l 1194 36 l 1175 36 z m 968 128 b 960 142 968 133 965 139 b 971 160 967 144 971 151 b 949 181 971 171 961 181 b 928 160 938 181 928 171 b 939 142 928 151 932 144 b 931 128 933 139 931 133 l 931 36 l 911 36 l 911 0 l 988 0 l 988 36 l 968 36 z m 654 0 l 894 0 l 894 69 l 654 69 z m 1213 0 l 1451 0 l 1451 69 l 1213 69 z "},"ꀐ":{"ha":1682,"x_min":0,"x_max":0,"o":"m 463 410 l 1188 410 b 1340 453 1261 410 1340 453 l 1340 474 b 1189 626 1200 474 1189 626 l 1199 694 l 1175 694 b 840 624 1132 653 986 624 b 504 694 693 624 549 653 l 481 694 l 490 626 b 339 474 490 626 479 474 l 339 453 b 463 410 339 453 363 410 z m 443 314 l 443 382 b 311 449 383 389 332 417 l 311 467 l 264 467 l 264 499 b 233 467 247 499 233 485 b 139 353 233 467 210 353 l 139 343 b 222 314 139 343 188 314 z m 1449 467 b 1418 499 1449 483 1436 499 l 1418 467 l 1368 467 l 1368 439 b 1240 383 1350 418 1281 383 l 1240 314 l 1460 314 b 1543 343 1494 314 1543 343 l 1543 353 b 1449 467 1475 353 1449 460 z m 1199 71 l 1199 382 l 471 382 l 471 71 l 546 71 l 546 246 b 614 315 546 283 575 315 b 682 246 651 315 682 283 l 682 71 l 747 71 l 747 285 l 792 315 l 879 315 l 924 285 l 924 71 l 989 71 l 989 246 b 1060 315 989 283 1021 315 b 1128 246 1096 315 1128 283 l 1128 71 z m 650 257 b 624 286 650 271 640 283 b 611 293 624 290 618 293 b 600 286 606 293 600 290 b 572 257 585 283 572 271 b 606 226 572 242 586 229 l 606 192 l 619 192 l 619 226 b 650 257 636 231 650 242 z m 1099 257 b 1071 286 1099 271 1088 283 b 1060 293 1071 290 1065 293 b 1046 286 1053 293 1047 290 b 1019 257 1031 283 1019 271 b 1053 226 1019 242 1033 229 l 1051 192 l 1068 192 l 1067 226 b 1099 257 1085 231 1099 242 z m 222 71 l 443 71 l 443 286 l 222 286 z m 1240 71 l 1460 71 l 1460 286 l 1240 286 z m 314 225 l 338 249 l 369 249 l 392 225 l 392 193 l 369 171 l 338 171 l 314 193 z m 1290 225 l 1313 249 l 1344 249 l 1368 225 l 1368 193 l 1344 171 l 1313 171 l 1290 193 z m 222 0 l 1460 0 l 1460 43 l 222 43 z "},"ꁁ":{"ha":736,"x_min":0,"x_max":0,"o":"m 529 1111 l 207 1111 l 207 1046 l 529 1046 z m 596 944 b 529 1018 593 981 565 1018 l 207 1018 b 140 944 172 1018 144 981 z m 139 917 l 139 813 l 597 813 l 597 917 z m 139 783 l 139 676 l 597 676 l 597 783 z m 139 649 l 139 543 l 597 543 l 597 649 z m 139 515 b 207 431 139 474 168 431 l 529 431 b 597 515 568 431 597 474 z m 207 343 l 529 343 l 529 399 l 207 399 z m 449 322 l 289 322 l 289 265 l 279 0 l 307 0 l 317 222 l 332 222 l 331 0 l 358 0 l 361 222 l 378 222 l 379 0 l 407 0 l 406 222 l 424 222 l 431 0 l 458 0 l 449 265 z "},"ꁂ":{"ha":1019,"x_min":0,"x_max":0,"o":"m 864 746 b 740 908 842 783 767 878 b 678 951 728 926 700 947 b 558 972 593 969 589 972 b 446 956 506 972 456 957 l 275 914 b 219 871 253 908 226 889 l 147 729 b 144 654 139 711 136 675 l 322 197 b 497 124 336 160 364 124 b 750 199 631 124 738 158 l 879 671 b 864 746 883 693 882 718 z m 507 151 b 372 194 440 151 372 169 b 568 254 372 213 461 254 b 710 207 657 254 710 219 b 507 151 710 183 608 151 z "},"ꀿ":{"ha":1694,"x_min":0,"x_max":0,"o":"m 1542 -10 b 1403 43 1478 -10 1481 43 b 1264 -10 1332 43 1325 -10 b 1249 -8 1258 -10 1253 -10 b 1306 175 1261 28 1299 150 b 1329 286 1319 231 1328 269 b 1356 310 1331 308 1339 310 b 1474 297 1381 310 1454 297 b 1517 338 1497 297 1517 317 b 1465 365 1517 350 1504 356 b 1418 385 1457 368 1435 378 b 1376 410 1392 396 1374 401 l 1413 410 b 1485 414 1435 410 1463 413 b 1515 417 1499 415 1510 417 b 1546 433 1524 417 1546 417 b 1539 461 1546 442 1540 457 b 1529 500 1539 465 1540 488 b 1503 511 1522 507 1514 511 b 1472 490 1481 511 1474 497 l 1393 490 b 1382 507 1389 490 1386 499 b 1294 568 1371 531 1353 568 b 1275 567 1286 568 1279 568 b 1193 675 1264 579 1204 658 b 1169 683 1185 688 1181 692 b 1165 665 1160 676 1163 671 b 1186 624 1168 658 1182 631 b 1140 629 1175 625 1157 626 b 1128 622 1133 631 1129 629 b 1136 610 1126 615 1129 611 b 1199 597 1146 608 1183 601 b 1219 557 1208 579 1217 561 b 1174 536 1199 553 1185 544 b 1133 522 1163 528 1151 522 b 1090 515 1106 522 1086 525 b 1144 463 1094 507 1117 475 b 1100 461 1135 461 1121 461 b 1067 451 1083 461 1067 458 b 1146 394 1067 442 1090 408 b 1128 389 1140 392 1135 389 b 1103 392 1119 389 1110 390 b 1088 389 1094 393 1088 396 b 1174 338 1088 383 1104 339 b 1057 136 1171 296 1135 136 l 592 136 b 431 228 518 136 431 175 b 458 360 431 260 458 313 b 401 525 458 421 396 458 b 399 529 401 526 400 529 b 394 528 397 529 396 529 b 364 444 372 504 363 486 b 347 481 358 458 353 469 b 325 582 332 513 319 539 b 322 588 325 585 324 588 b 318 585 321 588 319 588 b 293 421 286 519 285 460 b 268 525 274 447 268 467 b 265 529 268 526 267 529 b 261 526 264 529 263 529 b 281 268 206 414 229 338 b 379 168 328 201 360 229 b 447 -8 385 150 432 25 b 431 -10 442 -10 436 -10 b 292 43 367 -10 369 43 b 153 -10 221 43 214 -10 b 139 -24 144 -10 139 -15 b 153 -37 139 -32 144 -37 b 292 15 224 -37 231 15 b 431 -37 356 15 353 -37 b 569 15 501 -37 508 15 b 708 -37 633 15 631 -37 b 847 15 779 -37 786 15 b 986 -37 911 15 908 -37 b 1125 15 1057 -37 1064 15 b 1264 -37 1189 15 1186 -37 b 1403 15 1335 -37 1342 15 b 1542 -37 1467 15 1464 -37 b 1556 -24 1550 -37 1556 -32 b 1542 -10 1556 -15 1550 -10 z m 1319 526 b 1344 506 1335 526 1344 514 b 1321 494 1344 497 1331 494 b 1301 511 1310 494 1301 504 b 1319 526 1301 519 1308 526 z "},"ꁀ":{"ha":1144,"x_min":0,"x_max":0,"o":"m 571 908 b 731 876 665 908 725 883 l 731 899 b 572 972 731 939 665 972 b 413 899 479 972 413 939 l 413 878 b 571 908 419 885 478 908 z m 433 578 b 572 271 433 450 481 271 b 711 578 664 271 711 450 b 572 885 711 706 664 885 b 433 578 481 885 433 706 z m 406 578 b 513 876 406 690 446 832 b 306 578 390 846 306 722 b 510 279 306 443 374 325 b 406 578 442 332 406 465 z m 840 578 b 635 876 840 718 764 843 b 739 578 700 832 739 690 b 635 279 739 479 703 347 b 840 578 768 324 840 439 z m 935 578 b 711 863 935 710 840 819 b 868 578 811 796 868 693 b 711 293 868 456 801 349 b 935 578 846 339 935 450 z m 213 578 b 436 293 213 449 296 335 b 278 578 346 349 278 456 b 436 861 278 689 346 817 b 213 578 304 817 214 714 z m 1006 578 b 792 846 1006 674 944 786 b 963 578 897 789 963 689 b 792 307 963 456 882 363 b 1006 578 944 358 1006 482 z m 139 578 b 353 313 139 482 200 364 b 182 578 263 368 182 456 b 353 840 182 689 247 783 b 139 578 200 781 139 674 z m 571 244 b 390 269 451 244 390 269 l 390 24 l 418 17 l 418 207 l 446 201 l 446 10 l 474 6 l 474 197 l 501 193 l 501 3 l 529 1 l 529 192 l 557 190 l 557 0 l 585 0 l 585 190 l 613 192 l 613 1 l 640 3 l 640 193 l 668 197 l 668 7 l 696 11 l 696 201 l 724 207 l 724 17 l 751 25 l 751 269 b 571 244 751 269 690 244 z "},"ꀺ":{"ha":1133,"x_min":0,"x_max":0,"o":"m 994 799 b 567 972 956 906 792 972 b 139 799 351 972 181 903 b 175 789 135 789 172 782 b 567 938 210 876 371 938 b 958 789 722 938 919 899 b 994 799 963 779 999 789 z m 936 601 l 936 747 b 567 908 936 844 779 908 b 197 747 374 908 197 844 l 197 601 b 567 633 283 633 439 633 b 936 601 694 633 850 633 z m 529 669 b 243 644 529 669 278 667 l 243 744 b 465 854 243 807 394 844 b 529 810 522 861 529 825 z m 604 810 b 668 854 604 825 610 861 b 889 744 739 844 889 807 l 889 644 b 604 669 856 667 604 669 z m 567 606 b 153 539 393 606 153 592 l 153 421 l 282 421 b 567 303 399 421 503 392 b 851 421 631 392 735 421 l 981 421 l 981 539 b 567 606 981 592 740 606 z m 289 446 b 240 494 263 446 240 468 b 289 543 240 522 263 543 b 338 494 317 543 338 522 b 289 446 338 468 317 446 z m 653 494 l 481 494 l 481 543 l 653 543 z m 844 446 b 794 494 817 446 794 468 b 844 543 794 522 817 543 b 893 494 871 543 893 522 b 844 446 893 468 871 446 z m 567 206 b 282 363 518 314 408 363 l 153 363 l 153 178 l 981 178 l 981 363 l 851 363 b 567 206 725 363 615 314 z m 908 139 l 225 139 l 225 111 l 197 111 l 197 39 l 225 39 l 225 0 l 908 0 l 908 39 l 936 39 l 936 111 l 908 111 z "},"ꀽ":{"ha":1890,"x_min":0,"x_max":0,"o":"m 1751 364 b 1447 607 1721 503 1596 607 b 1249 536 1372 607 1303 581 l 1188 601 l 1228 726 l 1268 726 b 1318 769 1286 726 1318 743 b 1258 817 1318 796 1293 817 b 1107 783 1224 817 1164 783 b 1040 750 1051 783 1040 765 b 1068 726 1040 736 1050 726 l 1183 726 l 1064 350 l 1054 350 l 1053 350 b 963 283 1011 350 975 321 b 925 326 953 292 939 304 b 846 463 897 364 871 414 b 781 576 822 504 801 544 b 658 682 747 628 707 663 b 588 697 632 692 607 696 l 629 872 b 628 888 631 878 631 883 l 589 950 l 708 950 b 729 971 721 950 729 960 b 708 992 729 982 721 992 l 561 992 l 557 992 b 542 989 551 993 546 992 b 535 960 532 983 529 971 l 588 874 l 542 686 b 540 679 540 683 540 682 l 531 639 b 446 649 503 646 475 649 b 425 628 435 649 425 640 b 446 607 425 617 435 607 b 519 599 471 607 496 604 l 515 579 b 433 590 489 586 463 590 b 139 296 271 590 139 458 b 433 1 139 133 271 1 b 728 296 596 1 728 133 b 554 564 728 415 657 518 l 560 585 b 743 311 667 540 743 435 b 764 290 743 300 751 290 b 785 311 775 290 785 300 b 685 550 785 401 749 486 b 569 626 651 583 613 608 l 578 657 b 643 643 597 656 619 653 b 746 554 683 626 717 597 b 808 443 765 524 786 483 b 960 236 858 350 906 261 b 974 203 963 224 967 213 l 899 128 l 858 128 b 838 107 846 128 838 118 b 858 86 838 94 846 86 l 972 86 b 993 107 985 86 993 94 b 972 128 993 118 985 128 l 957 128 l 1003 172 b 1054 157 1018 163 1035 157 b 1136 203 1089 157 1119 175 l 1167 207 b 1447 1 1204 88 1315 1 b 1742 296 1610 1 1742 133 b 1735 360 1742 318 1740 339 b 1751 364 1743 361 1749 363 z m 357 715 b 403 676 361 694 381 676 l 476 676 b 524 715 497 676 519 693 l 554 847 b 524 885 558 868 546 885 l 374 885 b 339 846 351 885 336 868 z m 1174 557 l 1219 508 b 1143 367 1182 468 1156 419 b 1158 353 1147 361 1151 357 b 1157 350 1158 351 1158 351 l 1107 350 z m 419 361 l 413 358 l 326 510 b 419 535 354 524 386 532 z m 489 471 l 447 374 l 447 535 b 503 525 467 533 485 531 z m 301 496 l 389 344 l 385 340 l 233 426 b 301 496 251 454 275 478 z m 633 426 l 483 340 l 479 343 l 488 361 l 565 496 b 633 426 592 478 615 454 z m 1494 342 l 1560 454 l 1564 454 b 1644 418 1596 454 1624 439 l 1500 336 b 1494 342 1499 338 1497 340 z m 1471 357 l 1461 361 l 1461 364 b 1472 381 1465 369 1469 375 b 1518 439 1483 399 1497 424 z m 219 403 l 371 317 b 368 310 369 314 369 311 l 194 310 b 219 403 197 343 206 375 z m 672 310 l 499 310 b 497 317 497 311 497 314 l 647 403 b 672 310 661 375 671 343 z m 1514 303 b 1513 310 1513 306 1513 308 l 1661 396 b 1668 383 1664 392 1667 388 b 1675 371 1671 378 1672 374 b 1686 303 1682 350 1686 326 z m 194 282 l 368 282 l 371 275 l 219 189 b 194 282 206 217 197 249 z m 647 189 l 497 275 b 499 282 497 278 497 279 l 672 282 b 647 189 671 249 661 217 z m 1658 183 l 1508 269 b 1511 275 1510 272 1510 274 l 1686 275 b 1658 183 1683 242 1674 211 z m 233 164 l 385 251 l 389 246 l 301 96 b 233 164 275 114 251 138 z m 565 96 l 478 246 b 483 251 479 247 481 250 l 633 164 b 565 96 615 138 592 114 z m 1576 94 l 1489 244 l 1493 247 l 1644 160 b 1576 94 1626 133 1603 111 z m 1251 160 l 1385 236 l 1403 239 l 1319 94 b 1251 160 1292 111 1269 133 z m 419 231 l 419 57 b 326 82 386 58 354 68 l 413 232 b 419 231 415 232 417 231 z m 447 231 b 454 232 450 231 451 232 l 540 82 b 447 57 513 68 481 58 z m 1433 231 l 1433 57 b 1343 81 1401 58 1371 67 l 1431 232 b 1433 231 1432 231 1433 231 z m 1461 231 b 1465 232 1463 231 1464 232 l 1551 81 b 1461 57 1525 67 1494 58 z m 1313 226 l 1236 183 b 1222 215 1231 193 1226 204 z "},"ꀾ":{"ha":1651,"x_min":0,"x_max":0,"o":"m 1493 479 b 1472 500 1493 490 1483 500 b 1450 479 1460 500 1450 490 b 1357 349 1443 403 1415 379 b 824 282 1275 306 1061 282 b 293 349 589 282 376 306 b 199 479 238 378 206 399 b 178 500 199 490 189 500 b 156 479 165 500 156 490 b 139 203 149 392 136 290 b 301 0 139 47 163 4 b 824 13 408 0 599 13 b 1349 0 1051 13 1240 0 b 1508 158 1478 4 1488 17 b 1511 203 1510 171 1511 186 b 1493 479 1515 290 1503 392 z m 554 117 l 524 204 l 493 117 l 450 117 l 422 196 l 394 117 l 213 117 b 197 242 213 117 197 144 b 200 335 197 299 200 335 b 606 231 292 263 453 239 l 606 117 z m 1436 117 l 1261 117 l 1232 196 l 1206 117 l 1157 117 l 1126 204 l 1096 117 l 1046 117 l 1046 231 b 1450 335 1196 239 1354 263 b 1453 242 1450 335 1453 299 b 1436 117 1453 144 1436 117 z m 301 256 b 240 194 267 256 240 229 b 301 133 240 160 267 133 b 363 194 335 133 363 160 b 301 256 363 229 335 256 z m 1349 256 b 1288 194 1314 256 1288 229 b 1349 133 1288 160 1314 133 b 1410 194 1382 133 1410 160 b 1349 256 1410 229 1382 256 z m 925 214 l 858 169 l 792 214 l 724 169 l 665 208 l 665 228 b 824 226 722 226 776 226 b 985 228 872 226 928 226 l 985 178 z m 301 161 b 268 194 283 161 268 176 b 301 228 268 213 283 228 b 335 194 319 228 335 213 b 301 161 335 178 319 161 z m 1349 161 b 1315 194 1331 161 1315 176 b 1349 228 1315 213 1331 228 b 1382 194 1367 228 1382 213 b 1349 161 1382 178 1367 161 z m 985 117 l 665 117 l 665 168 l 724 131 l 792 175 l 858 131 l 925 175 l 985 138 z "},"ꀼ":{"ha":1160,"x_min":0,"x_max":0,"o":"m 139 1075 l 139 1019 l 415 975 l 424 1029 z m 558 824 b 536 715 558 775 551 739 l 599 715 b 615 824 613 754 615 797 l 615 910 l 732 892 l 749 992 l 461 1036 l 444 938 l 558 919 z m 1021 936 l 782 974 l 774 921 l 1021 882 z m 732 688 l 732 649 l 626 649 l 626 688 l 504 688 l 504 649 l 399 649 l 399 688 l 319 688 l 260 274 l 321 0 l 814 0 l 874 274 l 814 688 z m 763 275 l 750 218 l 382 218 l 369 274 l 369 275 l 406 547 l 726 547 z "},"ꀻ":{"ha":1331,"x_min":0,"x_max":0,"o":"m 1078 375 b 1107 678 1100 439 1110 539 l 1107 686 b 1046 853 1107 751 1083 815 b 660 963 960 944 788 963 b 272 853 531 963 358 944 b 211 686 235 815 211 751 b 250 381 210 635 213 482 b 139 178 174 340 139 251 b 207 63 139 113 176 74 b 660 0 275 36 407 0 b 1124 63 913 0 1056 36 b 1192 178 1156 74 1192 113 b 1078 375 1192 249 1153 333 z m 247 675 b 307 831 247 738 279 801 b 660 928 382 908 567 928 b 1021 819 750 928 946 897 b 1067 675 1049 790 1065 725 l 1067 665 b 1039 401 1069 525 1053 446 b 1018 361 1032 382 1025 369 b 918 244 986 321 939 279 b 660 83 860 147 821 83 b 424 229 506 83 475 138 b 318 343 401 267 369 301 b 282 399 304 354 289 379 b 247 675 254 468 246 586 z m 483 464 b 660 464 539 464 606 464 l 835 464 b 965 653 924 464 953 521 b 660 836 981 804 821 836 b 353 653 497 836 336 799 b 483 464 368 515 394 464 z "},"ꀸ":{"ha":1046,"x_min":0,"x_max":0,"o":"m 763 907 l 719 972 l 326 972 l 285 904 b 763 907 492 931 553 931 z m 813 865 b 233 865 603 907 443 907 b 139 776 174 850 139 831 l 139 156 l 410 156 l 410 192 l 636 192 l 636 156 l 907 156 l 907 776 b 813 865 907 831 872 850 z m 374 522 b 321 469 374 493 350 469 l 247 469 b 194 522 218 469 194 493 l 194 751 b 243 811 194 779 215 806 b 328 831 299 825 321 831 b 374 783 354 831 374 810 z m 672 783 b 718 831 672 810 692 831 b 801 811 726 831 783 815 b 851 751 829 806 851 779 l 851 522 b 799 469 851 493 828 469 l 725 469 b 672 522 696 469 672 493 z m 622 318 b 569 265 622 289 599 265 l 476 265 b 424 318 447 265 424 289 l 424 756 b 476 808 424 783 447 808 b 622 756 582 808 622 813 z m 328 803 b 249 783 324 803 286 793 b 222 751 235 781 222 767 l 222 688 l 346 688 l 346 783 b 328 803 346 794 339 803 z m 824 751 b 796 783 824 767 811 781 b 718 803 743 797 725 803 b 700 783 707 803 700 794 l 700 688 l 824 688 z m 547 761 l 499 761 b 469 733 482 761 469 749 l 469 535 b 499 507 469 519 482 507 l 547 507 b 576 535 564 507 576 519 l 576 733 b 547 761 576 749 564 761 z m 354 215 l 324 215 l 219 342 l 172 342 l 172 392 l 239 392 l 354 250 z m 874 342 l 826 342 l 721 215 l 692 215 l 692 250 l 807 392 l 874 392 z m 879 111 l 167 111 l 167 39 l 200 39 l 200 0 l 846 0 l 846 39 l 879 39 z "},"ꀹ":{"ha":1119,"x_min":0,"x_max":0,"o":"m 935 825 b 867 915 929 854 906 894 b 560 972 826 936 686 972 b 253 915 433 972 293 936 b 185 825 214 894 190 854 b 139 460 176 789 139 578 l 139 175 b 189 125 139 149 161 125 l 931 125 b 981 175 958 125 981 149 l 981 460 b 935 825 981 578 943 789 z m 221 817 b 268 885 225 839 239 869 b 560 938 304 903 438 938 b 851 883 682 936 815 900 b 901 818 881 868 897 840 b 946 460 911 778 946 572 l 946 389 l 175 389 l 175 460 b 221 817 175 572 211 776 z m 276 457 l 849 457 b 879 489 867 457 879 468 b 838 790 879 572 844 751 b 794 833 835 808 821 818 b 561 869 769 849 665 869 b 326 833 457 869 354 846 b 282 790 301 822 288 808 b 243 490 269 750 243 572 b 276 457 243 467 254 457 z m 313 539 l 329 742 b 357 765 331 754 342 765 l 446 765 b 469 742 460 765 469 754 l 469 539 b 446 515 469 526 460 515 l 335 515 b 313 539 321 515 311 525 z m 651 742 b 675 765 651 754 661 765 l 765 765 b 793 742 779 765 792 754 l 807 539 b 788 515 808 525 800 515 l 675 515 b 651 539 661 515 651 526 z m 399 317 b 374 292 399 303 386 292 l 321 292 b 297 317 308 292 297 303 b 321 339 297 329 308 339 l 374 339 b 399 317 386 339 399 329 z m 847 317 b 824 292 847 303 836 292 l 769 292 b 747 317 757 292 747 303 b 769 339 747 329 757 339 l 824 339 b 847 317 836 339 847 329 z m 924 160 l 197 160 b 174 185 185 160 174 174 l 174 240 l 946 240 l 946 185 b 924 160 946 174 936 160 z m 910 90 l 218 90 b 194 65 206 90 194 78 l 194 25 b 218 0 194 11 206 0 l 910 0 b 933 25 922 0 933 11 l 933 65 b 910 90 933 78 922 90 z "},"ꁈ":{"ha":846,"x_min":0,"x_max":0,"o":"m 694 744 l 547 744 l 626 1101 l 581 1111 l 500 744 l 153 744 b 139 731 146 744 139 739 b 153 717 139 724 146 717 l 178 717 l 183 529 l 210 438 l 228 13 b 242 0 228 6 235 0 l 607 0 b 621 13 614 0 621 6 l 639 438 l 664 529 l 672 717 l 694 717 b 707 731 701 717 707 724 b 694 744 707 739 701 744 z m 493 717 l 464 579 b 429 590 447 581 439 586 b 378 603 417 596 404 603 b 326 590 351 603 338 596 b 286 579 317 585 307 579 b 247 590 267 579 257 585 b 210 601 238 594 226 600 l 206 717 z m 639 581 b 614 590 628 582 621 586 b 561 603 601 596 588 603 b 514 592 539 603 526 597 l 542 717 l 643 717 z m 611 449 l 593 28 l 256 28 l 238 449 l 211 540 l 210 574 b 235 565 221 572 228 569 b 286 554 247 558 260 554 b 338 565 314 554 326 558 b 378 575 349 571 358 575 b 418 565 399 575 407 571 b 471 554 431 558 443 554 b 522 565 496 554 510 558 b 561 575 532 571 542 575 b 601 565 581 575 590 571 b 638 554 611 560 621 556 l 638 540 z m 315 278 b 356 318 338 278 356 296 b 315 357 356 340 338 357 b 275 318 294 357 275 340 b 315 278 275 296 294 278 z m 526 342 b 486 303 503 342 486 325 b 526 261 486 281 503 261 b 565 303 549 261 565 281 b 526 342 565 325 549 342 z m 414 213 b 454 253 438 213 454 231 b 414 292 454 272 438 292 b 375 253 393 292 375 272 b 414 213 375 231 393 213 z m 313 163 b 353 201 333 163 353 181 b 313 243 353 225 333 243 b 272 201 290 243 272 225 b 313 163 272 181 290 163 z m 518 157 b 560 197 542 157 560 175 b 518 238 560 219 542 238 b 479 197 497 238 479 219 b 518 157 479 175 497 157 z m 419 179 b 381 140 399 179 381 163 b 419 101 381 118 399 101 b 460 140 442 101 460 118 b 419 179 460 163 442 179 z m 324 128 b 283 88 303 128 283 108 b 324 47 283 65 303 47 b 364 88 346 47 364 65 b 324 128 364 108 346 128 z m 526 126 b 486 88 503 126 486 108 b 526 47 486 65 503 47 b 565 88 549 47 565 65 b 526 126 565 108 549 126 z "},"ꁉ":{"ha":826,"x_min":0,"x_max":0,"o":"m 661 932 l 665 932 b 674 940 669 932 674 935 l 674 965 b 665 972 674 969 669 972 l 161 972 b 151 965 157 972 151 969 l 151 940 b 161 932 151 935 157 932 l 167 932 b 139 839 164 925 139 851 l 139 79 b 206 25 139 61 146 39 l 222 0 l 604 0 l 621 25 b 688 79 679 39 688 61 l 688 839 b 661 932 688 869 664 925 z m 660 81 b 621 54 660 72 651 61 b 589 28 610 51 597 42 l 238 28 b 211 54 229 44 222 51 b 167 81 181 61 167 72 l 167 838 b 197 932 168 847 197 932 l 628 932 b 660 839 628 932 660 856 z m 413 810 b 219 572 344 810 219 772 l 219 275 b 322 136 219 204 243 136 l 504 136 b 606 275 583 136 606 204 l 606 572 b 413 810 606 772 482 810 z m 571 538 l 256 538 l 256 564 b 413 772 256 743 357 772 b 571 564 468 772 571 743 z m 469 700 b 450 693 461 700 454 697 b 413 711 440 703 428 711 b 376 693 399 711 385 703 b 357 700 372 697 365 700 b 322 665 339 700 322 683 b 357 631 322 644 339 631 b 376 638 365 631 372 633 b 413 618 385 625 399 618 b 450 638 428 618 440 625 b 469 631 454 633 461 631 b 503 665 488 631 503 644 b 469 700 503 683 488 700 z m 383 607 b 364 588 372 607 364 597 b 383 568 364 578 372 568 b 403 588 394 568 403 578 b 383 607 403 597 394 607 z m 447 607 b 428 588 436 607 428 597 b 447 568 428 578 436 568 b 465 588 457 568 465 578 b 447 607 465 597 457 607 z m 260 428 l 260 474 b 290 503 260 490 274 503 l 296 503 b 326 474 314 503 326 490 l 326 428 b 296 397 326 411 314 397 l 290 397 b 260 428 274 397 260 411 z m 342 428 l 342 474 b 371 503 342 490 354 503 l 378 503 b 407 474 394 503 407 490 l 407 428 b 378 397 407 411 394 397 l 371 397 b 342 428 354 397 342 411 z m 422 428 l 422 474 b 451 503 422 490 435 503 l 458 503 b 488 474 474 503 488 490 l 488 428 b 458 397 488 411 474 397 l 451 397 b 422 428 435 397 422 411 z m 501 428 l 501 474 b 531 503 501 490 515 503 l 539 503 b 568 474 554 503 568 490 l 568 428 b 539 397 568 411 554 397 l 531 397 b 501 428 515 397 501 411 z m 571 306 b 493 169 571 244 567 169 l 333 169 b 256 306 260 169 256 244 l 256 363 l 571 363 z m 326 283 l 493 283 b 508 299 500 283 508 292 l 508 310 b 493 324 508 317 500 324 l 326 324 b 314 310 319 324 314 317 l 314 299 b 326 283 314 292 319 283 z m 456 257 l 374 257 b 360 242 367 257 360 250 l 360 231 b 374 217 360 224 367 217 l 456 217 b 469 231 463 217 469 224 l 469 242 b 456 257 469 250 463 257 z "},"ꁆ":{"ha":858,"x_min":0,"x_max":0,"o":"m 597 747 b 511 800 551 775 511 800 l 511 857 b 549 893 539 864 549 878 l 549 932 b 508 972 549 954 529 972 l 350 972 b 310 932 328 972 310 954 l 310 893 b 347 857 310 878 319 864 b 347 800 347 832 347 800 l 261 747 b 139 544 219 722 139 661 b 246 54 139 429 186 243 b 421 0 250 42 288 4 l 438 0 b 613 54 571 4 608 42 b 719 544 679 261 719 429 b 597 747 719 661 639 722 z m 532 218 l 326 218 l 326 596 l 532 596 z "},"ꁇ":{"ha":1450,"x_min":0,"x_max":0,"o":"m 546 494 b 711 474 585 482 644 474 b 876 496 778 474 839 482 b 922 532 906 506 922 518 b 889 563 922 543 910 554 b 744 631 867 590 813 622 b 756 653 751 636 756 643 b 711 697 756 665 733 697 b 667 653 693 696 667 664 b 678 629 667 643 671 636 b 539 565 614 622 561 592 b 499 532 514 556 499 544 b 546 494 499 517 517 504 z m 1311 335 b 1151 525 1311 456 1243 525 b 990 443 1085 525 1036 501 b 983 449 989 444 986 447 b 917 483 964 461 942 474 b 711 446 875 458 778 446 b 507 482 647 446 563 454 b 442 449 482 472 460 461 l 424 436 b 332 432 415 432 367 413 b 222 528 293 457 282 521 b 139 500 163 535 133 518 b 207 451 142 476 169 486 b 260 308 244 418 235 363 b 329 242 282 261 319 244 b 375 128 335 208 350 171 b 714 0 426 40 568 0 b 1033 104 843 0 972 33 b 1311 335 1281 114 1311 263 z m 1067 157 b 1058 382 1118 261 1100 331 b 1149 453 1061 415 1103 453 b 1251 335 1208 453 1251 407 b 1067 157 1251 258 1207 161 z "},"ꁌ":{"ha":1099,"x_min":0,"x_max":0,"o":"m 958 525 b 950 633 961 561 958 597 b 797 831 931 711 858 824 b 753 792 772 832 757 815 b 676 532 740 701 715 614 b 526 307 638 449 588 374 b 521 256 514 292 511 271 b 774 257 549 203 701 221 b 864 321 807 274 838 294 b 928 414 890 347 913 381 b 958 525 944 449 954 486 z m 553 292 b 703 519 611 357 663 435 b 782 786 742 604 768 694 b 788 799 782 790 783 796 b 783 479 832 696 831 581 b 556 285 740 388 660 318 b 553 292 551 283 551 289 z m 201 564 b 139 351 158 500 136 428 b 257 131 143 275 200 146 b 306 163 279 125 299 138 b 428 406 331 250 375 332 b 614 600 479 479 539 547 b 629 650 629 611 635 629 b 379 692 613 706 458 713 b 201 564 306 671 242 626 z "},"ꁄ":{"ha":842,"x_min":0,"x_max":0,"o":"m 421 1006 b 139 939 265 1006 139 969 l 139 297 l 703 297 l 703 939 b 421 1006 703 969 576 1006 z m 200 876 l 378 876 l 378 828 l 200 828 z m 631 828 l 454 828 l 454 876 l 631 876 z m 417 774 b 464 725 443 774 464 751 b 417 678 464 699 443 678 b 369 725 390 678 369 699 b 417 774 369 751 390 774 z m 231 592 l 603 592 l 603 564 l 231 564 z m 353 457 l 481 457 l 481 394 l 353 394 z m 451 269 l 385 269 l 385 53 l 267 53 l 267 0 l 569 0 l 569 53 l 451 53 z "},"ꁅ":{"ha":1014,"x_min":0,"x_max":0,"o":"m 385 986 b 139 836 238 939 129 865 l 338 226 l 875 401 l 675 1010 b 385 986 664 1040 533 1036 z m 640 882 l 472 828 l 457 875 l 625 929 z m 215 796 l 385 850 l 400 806 l 231 750 z m 453 765 b 515 732 478 772 506 757 b 483 674 522 707 508 681 b 425 704 458 667 432 681 b 453 765 417 729 428 758 z m 333 535 l 686 649 l 696 625 l 340 507 z m 492 443 l 613 483 l 633 424 l 511 383 z m 557 268 l 596 53 l 478 53 l 478 0 l 781 0 l 781 53 l 663 53 l 621 288 z "},"ꁃ":{"ha":1150,"x_min":0,"x_max":0,"o":"m 411 694 l 372 654 l 372 0 l 421 0 l 421 644 l 729 644 l 729 0 l 778 0 l 778 654 l 739 694 z m 139 415 l 344 415 l 344 490 l 139 490 z m 449 415 l 701 415 l 701 490 l 449 490 z m 806 415 l 1011 415 l 1011 490 l 806 490 z m 139 313 l 344 313 l 344 388 l 139 388 z m 449 313 l 701 313 l 701 388 l 449 388 z m 806 313 l 1011 313 l 1011 388 l 806 388 z m 139 210 l 344 210 l 344 285 l 139 285 z m 449 210 l 701 210 l 701 285 l 449 285 z m 806 210 l 1011 210 l 1011 285 l 806 285 z m 139 107 l 344 107 l 344 182 l 139 182 z m 449 107 l 701 107 l 701 182 l 449 182 z m 806 107 l 1011 107 l 1011 182 l 806 182 z m 199 0 l 344 0 l 344 79 l 139 79 b 199 0 139 36 154 0 z m 449 0 l 701 0 l 701 79 l 449 79 z m 806 0 l 951 0 b 1011 79 996 0 1011 36 l 806 79 z "},"ꁍ":{"ha":1257,"x_min":0,"x_max":0,"o":"m 629 546 b 981 571 822 546 981 557 b 971 594 981 572 972 592 l 964 594 l 954 633 b 928 653 953 640 950 649 b 683 690 908 657 814 683 b 696 726 690 704 694 718 b 686 742 700 740 690 742 l 571 742 b 561 726 567 742 557 740 b 574 690 563 718 567 704 b 329 653 443 683 349 657 b 303 633 307 649 304 640 l 293 594 l 286 594 b 276 571 285 592 276 572 b 629 546 276 557 435 546 z m 268 553 l 268 554 z m 989 553 l 989 554 z m 629 518 b 268 553 481 518 274 525 l 286 353 l 328 101 b 629 60 328 74 463 60 b 929 101 794 60 929 74 l 971 353 l 989 553 b 629 518 983 525 778 518 z m 139 515 l 139 469 l 200 460 l 217 367 l 246 367 l 233 501 z m 1024 501 l 1011 367 l 1040 367 l 1057 460 l 1118 469 l 1118 515 z m 688 97 l 571 97 b 547 126 557 97 546 110 l 564 294 b 588 318 565 308 575 318 l 669 318 b 693 294 682 318 692 308 l 711 126 b 688 97 713 110 701 97 z m 600 218 l 615 218 l 615 131 l 643 131 l 643 218 l 658 218 l 658 276 l 600 276 z m 356 11 b 368 0 356 6 361 0 l 408 0 b 419 11 414 0 419 6 l 419 43 b 356 54 400 44 369 50 z m 838 11 b 849 0 838 6 843 0 l 889 0 b 901 11 896 0 901 6 l 901 54 b 838 43 888 50 857 44 z "},"ꁏ":{"ha":1482,"x_min":0,"x_max":0,"o":"m 1333 432 b 1332 450 1347 440 1346 447 b 1243 442 1314 453 1279 450 b 1067 397 1183 428 1094 376 b 740 594 1003 443 889 542 b 861 689 767 661 861 638 b 844 750 861 706 854 728 b 825 772 840 758 831 768 b 807 800 814 778 807 789 b 793 836 807 815 801 825 b 767 860 785 847 775 860 b 742 885 756 860 750 867 b 700 922 732 911 717 922 b 549 629 654 922 544 804 b 331 622 514 629 425 636 b 374 551 353 610 374 583 b 407 551 390 553 389 553 b 417 515 411 544 417 533 b 392 465 417 500 411 474 b 383 449 385 463 382 456 b 394 439 388 442 390 439 l 399 439 b 439 515 425 451 439 488 b 431 551 439 531 436 544 b 1032 314 653 551 847 500 b 311 433 867 392 500 433 b 165 511 254 433 165 472 b 211 554 165 526 197 549 b 233 603 211 571 219 588 b 139 511 197 586 139 554 b 311 400 139 450 233 400 b 665 368 360 400 510 390 b 810 281 690 332 739 281 b 756 354 790 294 771 325 b 1078 239 1001 313 1065 264 b 1229 78 1103 194 1186 101 b 1250 94 1244 69 1256 78 b 1178 306 1244 106 1178 247 b 1333 432 1178 369 1299 411 z m 576 642 b 618 779 583 694 597 742 b 703 869 640 822 669 856 b 717 860 710 871 714 867 b 710 842 718 853 715 844 b 635 764 681 831 656 801 b 597 638 618 729 603 685 b 586 626 597 631 593 626 b 576 642 576 626 575 638 z m 776 788 b 767 772 776 779 772 772 b 696 715 744 772 717 749 b 660 625 678 686 665 651 b 651 614 660 619 656 614 l 647 614 b 640 629 639 614 640 628 b 764 800 646 692 700 800 b 776 788 769 800 776 794 z m 808 725 b 821 711 814 725 821 719 b 807 697 821 704 814 697 b 753 675 788 697 769 690 b 711 604 739 663 715 617 b 701 597 710 600 706 597 b 692 617 692 597 689 608 b 808 725 715 686 757 725 z m 292 486 b 349 549 322 486 349 515 b 292 611 349 583 322 611 b 233 549 260 611 233 583 b 292 486 233 515 260 486 z "},"ꁎ":{"ha":1004,"x_min":0,"x_max":0,"o":"m 754 800 b 585 593 589 868 558 713 b 622 329 611 474 622 392 b 744 164 622 197 669 158 b 844 338 831 169 843 231 b 856 528 846 439 856 528 b 754 800 874 589 882 747 z m 425 636 b 194 774 408 758 326 893 b 193 482 93 679 154 533 b 268 307 193 482 232 403 b 421 179 306 207 339 154 b 479 376 493 199 525 251 b 425 636 458 435 440 515 z m 306 525 b 236 444 261 514 243 474 b 215 490 224 472 215 489 l 213 492 l 213 493 b 186 540 204 504 194 522 b 229 615 194 563 210 594 b 174 574 208 607 189 592 b 168 608 171 586 168 597 b 172 686 163 638 165 664 b 371 732 250 694 297 710 b 378 717 372 726 376 722 b 404 628 390 690 400 660 b 406 621 404 625 404 624 b 342 633 383 628 361 632 b 410 589 368 621 393 603 b 428 481 415 549 421 513 b 306 525 400 504 353 538 z m 842 585 b 833 531 840 564 838 544 l 833 529 l 832 528 l 828 476 b 735 529 811 503 781 533 b 635 446 686 525 653 476 b 615 554 631 478 624 514 b 664 618 626 572 643 597 b 608 585 646 610 626 599 b 607 592 608 588 608 589 b 601 685 600 624 599 656 b 603 701 601 690 603 696 b 804 726 679 706 729 707 b 836 654 819 707 831 683 b 842 619 839 643 840 632 b 775 640 821 632 799 639 b 842 585 801 626 826 603 z "},"ꁊ":{"ha":833,"x_min":0,"x_max":0,"o":"m 667 931 l 672 931 b 681 939 676 931 681 935 l 681 964 b 672 972 681 968 676 972 l 161 972 b 153 964 156 972 153 968 l 153 939 b 161 931 153 935 156 931 l 167 931 b 139 836 164 922 139 850 l 139 68 b 210 14 139 54 150 28 b 224 0 210 0 224 0 l 610 0 b 624 14 610 0 624 0 b 694 68 683 28 694 54 l 694 836 b 667 931 694 861 672 915 z m 667 71 b 599 39 667 54 660 53 l 596 32 l 238 32 l 235 39 b 167 89 186 50 167 64 l 167 751 b 244 736 181 742 217 736 b 432 789 296 736 339 754 b 642 836 526 822 604 836 l 667 836 z m 269 635 b 274 635 271 635 272 635 l 279 635 b 292 632 283 635 288 635 l 293 631 b 342 611 308 621 325 611 b 400 600 354 611 385 611 b 408 593 404 597 407 596 b 410 586 410 590 410 589 b 418 576 410 581 413 576 b 426 588 422 576 426 579 l 426 608 b 451 628 428 611 439 625 b 504 631 468 631 497 631 b 556 644 522 631 554 644 l 557 646 b 556 649 557 647 557 649 b 499 668 554 650 526 668 b 442 643 479 668 461 660 b 426 624 438 639 431 631 l 426 631 b 429 642 426 633 429 639 b 415 647 429 647 419 647 b 407 649 413 647 410 649 b 401 644 406 649 401 649 b 404 638 401 642 403 640 b 410 622 407 633 410 628 l 410 606 b 383 629 403 611 390 622 b 326 660 374 640 344 660 b 268 639 311 660 278 644 b 267 636 267 639 267 638 b 269 635 267 635 268 635 z m 411 515 b 565 569 436 528 532 569 b 600 567 589 569 600 567 b 549 614 600 567 594 614 b 464 581 503 614 479 588 b 428 567 449 574 440 567 b 317 600 413 567 343 600 b 243 496 289 600 243 588 b 297 486 258 488 283 486 b 411 515 346 486 385 501 z m 567 538 b 532 485 546 531 529 507 b 571 460 533 463 551 451 b 606 513 592 468 607 492 b 567 538 606 533 588 544 z m 469 506 b 429 456 446 500 426 478 b 475 428 431 435 451 422 b 517 476 499 433 518 456 b 469 506 515 497 494 511 z m 364 474 b 331 426 342 468 328 446 b 374 399 333 406 353 393 b 406 446 393 404 408 425 b 364 474 404 467 385 478 z m 279 378 b 310 419 297 382 310 400 b 275 450 308 439 293 453 b 246 408 258 447 244 429 b 279 378 246 388 261 374 z m 460 394 b 328 351 400 364 358 351 b 275 358 297 351 275 358 b 363 286 275 358 319 283 b 406 310 375 286 394 310 b 474 286 417 310 460 286 b 546 349 496 286 514 304 b 592 438 576 393 592 438 b 460 394 592 438 569 446 z m 583 233 l 278 233 b 269 225 274 233 269 231 l 269 203 b 278 194 269 199 274 194 l 583 194 b 592 203 588 194 592 199 l 592 225 b 583 233 592 231 588 233 z m 551 178 l 310 178 b 301 169 304 178 301 174 l 301 146 b 310 139 301 142 304 139 l 551 139 b 560 146 556 139 560 142 l 560 169 b 551 178 560 174 556 178 z "},"ꁋ":{"ha":1261,"x_min":0,"x_max":0,"o":"m 631 1026 l 139 535 l 631 43 l 1122 535 z m 631 939 l 669 900 l 631 861 l 592 900 z m 568 885 l 588 864 l 304 582 l 285 601 z m 697 885 l 981 601 l 960 582 l 678 864 z m 656 406 b 633 403 647 404 640 404 b 629 403 632 403 631 401 l 626 403 b 590 385 614 397 601 392 b 568 369 582 381 574 378 l 550 361 b 515 375 538 354 519 367 b 526 413 507 392 511 403 b 589 431 550 410 568 422 b 604 436 594 432 597 438 b 617 447 607 440 613 443 l 617 449 b 613 454 615 451 614 453 b 567 444 596 451 582 447 b 532 440 554 443 543 440 b 510 449 524 440 515 443 b 507 471 501 456 501 463 b 521 486 511 476 517 481 b 553 517 532 496 542 506 b 560 521 554 518 557 521 b 581 532 564 529 574 531 l 601 532 b 626 542 610 535 622 536 b 629 551 628 544 633 546 b 603 550 621 556 613 551 b 565 539 590 549 578 542 b 499 538 543 533 521 532 b 482 544 493 539 486 540 b 468 558 476 547 471 551 b 453 581 460 564 457 572 b 449 594 450 585 450 590 b 458 624 444 607 449 617 b 489 660 471 633 479 647 b 504 679 494 667 497 674 b 521 699 507 689 515 693 b 572 721 536 711 553 718 b 585 718 576 719 582 724 b 594 711 588 715 590 713 b 610 703 600 710 604 706 b 656 714 626 699 642 701 b 663 715 657 715 660 717 b 681 697 671 711 676 704 b 715 614 697 671 710 644 b 718 608 715 611 715 608 b 724 614 722 608 724 611 b 725 621 725 617 725 619 b 722 668 725 636 725 651 b 728 704 721 681 719 693 b 771 682 744 714 768 701 b 771 663 775 675 772 669 b 763 633 764 654 763 644 b 763 625 764 631 763 628 l 763 604 b 764 600 763 603 763 600 b 769 601 767 599 768 600 b 797 638 778 614 788 625 b 807 643 800 639 803 642 b 832 632 818 651 826 651 b 833 629 833 632 833 631 b 835 624 835 628 835 625 b 826 604 836 615 831 610 b 781 560 811 590 794 576 b 779 558 781 560 779 558 l 779 554 b 790 544 781 547 783 544 b 801 551 796 544 799 547 b 814 553 806 557 810 556 b 839 519 826 544 835 535 l 839 518 b 840 513 840 517 840 515 b 831 503 840 507 836 504 b 821 494 826 501 824 499 b 769 449 808 475 790 460 b 751 436 763 444 757 440 b 742 417 744 432 742 425 l 746 393 b 707 358 749 369 733 357 b 683 369 696 361 686 367 b 656 406 669 378 661 392 z m 625 621 b 635 624 628 619 631 622 b 657 626 642 625 650 626 b 664 636 665 626 667 628 l 664 640 b 651 657 661 646 656 651 b 633 668 646 663 640 667 b 625 661 628 669 625 667 b 624 632 625 651 624 642 b 622 624 624 629 624 626 l 624 622 b 625 621 624 621 625 621 z m 542 628 b 581 613 553 618 564 611 b 589 622 585 614 589 615 b 590 658 589 633 589 646 l 590 661 b 579 658 586 661 582 660 b 542 628 565 650 551 640 z m 585 585 b 560 583 576 585 568 585 b 544 593 556 583 546 592 b 539 619 543 603 540 611 b 531 615 535 619 533 617 b 513 593 525 607 518 600 b 504 576 508 588 506 583 b 524 557 508 567 515 561 b 576 560 542 556 558 561 b 586 572 585 560 586 563 l 586 583 b 585 585 586 583 586 585 z m 676 565 b 679 607 685 575 686 593 b 674 607 678 608 675 610 b 658 599 671 600 664 600 l 629 594 b 621 592 626 593 624 593 l 621 565 b 676 565 640 565 658 564 z m 226 535 l 265 574 l 304 535 l 265 496 z m 957 535 l 996 574 l 1035 535 l 996 496 z m 647 544 b 643 536 644 542 644 539 b 660 514 647 528 653 521 b 661 510 660 513 661 511 b 658 485 661 501 660 493 b 664 482 660 483 661 482 l 668 488 b 721 563 688 511 706 535 b 721 571 722 565 724 568 b 714 568 718 572 715 569 l 707 557 b 685 550 701 550 693 547 b 647 544 671 557 660 551 z m 747 443 b 821 507 776 458 800 483 b 819 522 826 514 825 517 b 801 522 814 526 807 525 b 742 478 779 511 760 494 b 713 458 732 469 724 461 b 700 461 708 458 704 457 b 689 478 692 464 689 468 b 688 493 688 482 690 488 b 676 486 683 492 681 489 b 610 438 656 468 633 451 b 604 435 608 436 607 433 b 603 432 604 433 603 432 b 610 432 604 426 608 431 b 647 432 622 436 635 442 b 653 426 650 431 651 429 b 661 431 657 426 658 428 b 671 438 661 436 667 438 l 735 438 b 747 443 739 439 743 440 z m 633 489 l 631 493 b 608 504 624 496 615 500 b 579 499 597 510 588 507 b 558 469 569 490 564 481 b 581 469 565 464 574 467 b 618 482 593 475 606 479 b 633 489 622 483 629 482 z m 568 189 l 285 472 l 304 492 l 588 208 z m 697 189 l 678 208 l 960 492 l 981 472 z m 631 131 l 592 169 l 631 208 l 669 169 z "},"ꁒ":{"ha":972,"x_min":0,"x_max":0,"o":"m 247 463 l 306 463 l 306 393 l 417 504 l 306 615 l 306 546 l 247 546 b 222 571 233 546 222 557 l 222 743 b 247 768 222 757 233 768 l 419 768 b 471 851 425 801 444 832 l 247 851 b 139 743 188 851 139 803 l 139 571 b 247 463 139 511 188 463 z m 725 851 l 553 851 b 444 743 493 851 444 803 l 444 685 l 375 685 l 486 574 l 597 685 l 528 685 l 528 743 b 553 768 528 757 539 768 l 725 768 b 750 743 739 768 750 757 l 750 571 b 833 519 783 565 814 546 l 833 743 b 725 851 833 803 785 851 z m 725 546 l 667 546 l 667 615 l 556 504 l 667 393 l 667 463 l 725 463 b 750 438 739 463 750 451 l 750 265 b 725 240 750 251 739 240 l 553 240 b 501 157 547 207 528 176 l 725 157 b 833 265 785 157 833 206 l 833 438 b 725 546 833 497 785 546 z m 528 324 l 597 324 l 486 435 l 375 324 l 444 324 l 444 265 b 419 240 444 251 433 240 l 247 240 b 222 265 233 240 222 251 l 222 438 b 139 489 189 443 158 463 l 139 265 b 247 157 139 206 188 157 l 419 157 b 528 265 479 157 528 206 z "},"ꁓ":{"ha":715,"x_min":0,"x_max":0,"o":"m 313 924 l 397 924 l 415 903 l 469 903 b 356 972 461 939 410 972 b 242 903 300 972 250 939 l 294 903 z m 356 808 b 469 876 410 808 461 842 l 415 876 l 397 858 l 313 858 l 294 876 l 242 876 b 356 808 250 842 300 808 z m 535 531 l 469 531 l 413 561 l 465 790 l 250 790 l 303 561 l 244 531 l 181 531 b 165 519 181 531 165 532 l 165 494 b 175 485 165 494 165 485 l 239 485 b 358 529 274 510 300 529 b 478 485 415 529 443 510 l 540 485 b 550 494 550 485 550 494 l 550 519 b 535 531 550 532 535 531 z m 463 567 l 507 556 l 576 688 l 494 783 l 479 715 l 513 688 z m 254 565 l 203 688 l 236 714 l 221 782 l 139 688 l 208 554 z m 358 503 b 271 442 310 503 271 475 b 358 381 271 408 310 381 b 446 442 406 381 446 408 b 358 503 446 475 406 503 z m 229 389 l 151 256 l 221 103 l 267 103 l 267 156 l 222 256 l 281 361 z m 489 389 l 565 256 l 497 103 l 450 103 l 450 156 l 494 256 l 436 361 z m 371 351 l 346 351 b 318 324 331 351 318 339 l 318 28 b 346 0 318 13 331 0 l 371 0 b 399 28 386 0 399 13 l 399 324 b 371 351 399 339 386 351 z "},"ꁕ":{"ha":678,"x_min":0,"x_max":0,"o":"m 294 785 b 311 801 304 785 311 792 b 294 818 311 811 304 818 b 278 801 285 818 278 811 b 294 785 278 792 285 785 z m 342 785 b 358 801 351 785 358 792 b 342 818 358 811 351 818 b 325 801 332 818 325 811 b 342 785 325 792 332 785 z m 389 785 b 406 801 399 785 406 792 b 389 818 406 811 399 818 b 372 801 379 818 372 811 b 389 785 372 792 379 785 z m 294 738 b 311 754 304 738 311 744 b 294 771 311 764 304 771 b 278 754 285 771 278 764 b 294 738 278 744 285 738 z m 342 738 b 358 754 351 738 358 744 b 342 771 358 764 351 771 b 325 754 332 771 325 764 b 342 738 325 744 332 738 z m 389 738 b 406 754 399 738 406 744 b 389 771 406 764 399 771 b 372 754 379 771 372 764 b 389 738 372 744 379 738 z m 294 690 b 311 707 304 690 311 697 b 294 724 311 717 304 724 b 278 707 285 724 278 717 b 294 690 278 697 285 690 z m 342 690 b 358 707 351 690 358 697 b 342 724 358 717 351 724 b 325 707 332 724 325 717 b 342 690 325 697 332 690 z m 389 690 b 406 707 399 690 406 697 b 389 724 406 717 399 724 b 372 707 379 724 372 717 b 389 690 372 697 379 690 z m 318 647 b 335 664 328 647 335 654 b 318 681 335 674 328 681 b 301 664 308 681 301 674 b 318 647 301 654 308 647 z m 365 647 b 382 664 375 647 382 654 b 365 681 382 674 375 681 b 349 664 356 681 349 674 b 365 647 349 654 356 647 z m 249 635 b 229 619 239 635 229 628 b 249 600 229 608 239 600 b 264 619 258 600 264 608 b 249 635 264 628 258 635 z m 294 635 b 276 619 285 635 276 628 b 294 600 276 608 285 600 b 310 619 301 600 310 608 b 294 635 310 628 301 635 z m 338 635 b 322 619 331 635 322 628 b 338 600 322 608 331 600 b 356 619 349 600 356 608 b 338 635 356 628 349 635 z m 386 635 b 368 619 376 635 368 628 b 386 600 368 608 376 600 b 403 619 396 600 403 608 b 386 635 403 628 396 635 z m 431 635 b 413 619 421 635 413 628 b 431 600 413 608 421 600 b 447 619 439 600 447 608 b 431 635 447 628 439 635 z m 200 589 b 186 571 192 589 186 581 b 200 556 186 561 192 556 b 218 571 211 556 218 561 b 200 589 218 581 211 589 z m 249 589 b 229 571 239 589 229 581 b 249 556 229 561 239 556 b 264 571 258 556 264 561 b 249 589 264 581 258 589 z m 294 589 b 276 571 285 589 276 581 b 294 556 276 561 285 556 b 310 571 301 556 310 561 b 294 589 310 581 301 589 z m 338 589 b 322 571 331 589 322 581 b 338 556 322 561 331 556 b 356 571 349 556 356 561 b 338 589 356 581 349 589 z m 386 589 b 368 571 376 589 368 581 b 386 556 368 561 376 556 b 403 571 396 556 403 561 b 386 589 403 581 396 589 z m 431 589 b 413 571 421 589 413 581 b 431 556 413 561 421 556 b 447 571 439 556 447 561 b 431 589 447 581 439 589 z m 476 589 b 460 571 468 589 460 581 b 476 556 460 561 468 556 b 493 571 486 556 493 561 b 476 589 493 581 486 589 z m 156 544 b 139 526 147 544 139 535 b 156 510 139 518 147 510 b 174 526 165 510 174 518 b 156 544 174 535 165 544 z m 200 544 b 186 526 192 544 186 535 b 200 510 186 518 192 510 b 218 526 211 510 218 518 b 200 544 218 535 211 544 z m 249 544 b 229 526 239 544 229 535 b 249 510 229 518 239 510 b 264 526 258 510 264 518 b 249 544 264 535 258 544 z m 294 544 b 276 526 285 544 276 535 b 294 510 276 518 285 510 b 310 526 301 510 310 518 b 294 544 310 535 301 544 z m 338 544 b 322 526 331 544 322 535 b 338 510 322 518 331 510 b 356 526 349 510 356 518 b 338 544 356 535 349 544 z m 386 544 b 368 526 376 544 368 535 b 386 510 368 518 376 510 b 403 526 396 510 403 518 b 386 544 403 535 396 544 z m 431 544 b 413 526 421 544 413 535 b 431 510 413 518 421 510 b 447 526 439 510 447 518 b 431 544 447 535 439 544 z m 476 544 b 460 526 468 544 460 535 b 476 510 460 518 468 510 b 493 526 486 510 493 518 b 476 544 493 535 486 544 z m 522 510 b 539 526 532 510 539 518 b 522 544 539 535 532 544 b 506 526 513 544 506 535 b 522 510 506 518 513 510 z m 156 497 b 139 481 147 497 139 490 b 156 463 139 471 147 463 b 174 481 165 463 174 471 b 156 497 174 490 165 497 z m 200 497 b 186 481 192 497 186 490 b 200 463 186 471 192 463 b 218 481 211 463 218 471 b 200 497 218 490 211 497 z m 249 497 b 229 481 239 497 229 490 b 249 463 229 471 239 463 b 264 481 258 463 264 471 b 249 497 264 490 258 497 z m 294 497 b 276 481 285 497 276 490 b 294 463 276 471 285 463 b 310 481 301 463 310 471 b 294 497 310 490 301 497 z m 338 497 b 322 481 331 497 322 490 b 338 463 322 471 331 463 b 356 481 349 463 356 471 b 338 497 356 490 349 497 z m 386 497 b 368 481 376 497 368 490 b 386 463 368 471 376 463 b 403 481 396 463 403 471 b 386 497 403 490 396 497 z m 431 497 b 413 481 421 497 413 490 b 431 463 413 471 421 463 b 447 481 439 463 447 471 b 431 497 447 490 439 497 z m 476 497 b 460 481 468 497 460 490 b 476 463 460 471 468 463 b 493 481 486 463 493 471 b 476 497 493 490 486 497 z m 522 497 b 506 481 513 497 506 490 b 522 463 506 471 513 463 b 539 481 532 463 539 471 b 522 497 539 490 532 497 z m 156 451 b 139 435 147 451 139 443 b 156 418 139 425 147 418 b 174 435 165 418 174 425 b 156 451 174 443 165 451 z m 200 451 b 186 435 192 451 186 443 b 200 418 186 425 192 418 b 218 435 211 418 218 425 b 200 451 218 443 211 451 z m 294 451 b 276 435 285 451 276 443 b 294 418 276 425 285 418 b 310 435 301 418 310 425 b 294 451 310 443 301 451 z m 338 451 b 322 435 331 451 322 443 b 338 418 322 425 331 418 b 356 435 349 418 356 425 b 338 451 356 443 349 451 z m 386 451 b 368 435 376 451 368 443 b 386 418 368 425 376 418 b 403 435 396 418 403 425 b 386 451 403 443 396 451 z m 476 451 b 460 435 468 451 460 443 b 476 418 460 425 468 418 b 493 435 486 418 493 425 b 476 451 493 443 486 451 z m 522 451 b 506 435 513 451 506 443 b 522 418 506 425 513 418 b 539 435 532 418 539 425 b 522 451 539 443 532 451 z m 156 407 b 139 388 147 407 139 397 b 156 372 139 381 147 372 b 174 388 165 372 174 381 b 156 407 174 397 165 407 z m 200 407 b 186 388 192 407 186 397 b 200 372 186 381 192 372 b 218 388 211 372 218 381 b 200 407 218 397 211 407 z m 294 407 b 276 388 285 407 276 397 b 294 372 276 381 285 372 b 310 388 301 372 310 381 b 294 407 310 397 301 407 z m 338 407 b 322 388 331 407 322 397 b 338 372 322 381 331 372 b 356 388 349 372 356 381 b 338 407 356 397 349 407 z m 386 407 b 368 388 376 407 368 397 b 386 372 368 381 376 372 b 403 388 396 372 403 381 b 386 407 403 397 396 407 z m 476 407 b 460 388 468 407 460 397 b 476 372 460 381 468 372 b 493 388 486 372 493 381 b 476 407 493 397 486 407 z m 522 407 b 506 388 513 407 506 397 b 522 372 506 381 513 372 b 539 388 532 372 539 381 b 522 407 539 397 532 407 z m 156 360 b 139 343 147 360 139 353 b 156 326 139 333 147 326 b 174 343 165 326 174 333 b 156 360 174 353 165 360 z m 200 360 b 186 343 192 360 186 353 b 200 326 186 333 192 326 b 218 343 211 326 218 333 b 200 360 218 353 211 360 z m 294 360 b 276 343 285 360 276 353 b 294 326 276 333 285 326 b 310 343 301 326 310 333 b 294 360 310 353 301 360 z m 338 360 b 322 343 331 360 322 353 b 338 326 322 333 331 326 b 356 343 349 326 356 333 b 338 360 356 353 349 360 z m 386 360 b 368 343 376 360 368 353 b 386 326 368 333 376 326 b 403 343 396 326 403 333 b 386 360 403 353 396 360 z m 476 360 b 460 343 468 360 460 353 b 476 326 460 333 468 326 b 493 343 486 326 493 333 b 476 360 493 353 486 360 z m 522 360 b 506 343 513 360 506 353 b 522 326 506 333 513 326 b 539 343 532 326 539 333 b 522 360 539 353 532 360 z m 156 314 b 139 297 147 314 139 307 b 156 279 139 288 147 279 b 174 297 165 279 174 288 b 156 314 174 307 165 314 z m 249 314 b 229 297 239 314 229 307 b 249 279 229 288 239 279 b 264 297 258 279 264 288 b 249 314 264 307 258 314 z m 294 314 b 276 297 285 314 276 307 b 294 279 276 288 285 279 b 310 297 301 279 310 288 b 294 314 310 307 301 314 z m 338 314 b 322 297 331 314 322 307 b 338 279 322 288 331 279 b 356 297 349 279 356 288 b 338 314 356 307 349 314 z m 386 314 b 368 297 376 314 368 307 b 386 279 368 288 376 279 b 403 297 396 279 403 288 b 386 314 403 307 396 314 z m 431 314 b 413 297 421 314 413 307 b 431 279 413 288 421 279 b 447 297 439 279 447 288 b 431 314 447 307 439 314 z m 522 314 b 506 297 513 314 506 307 b 522 279 506 288 513 279 b 539 297 532 279 539 288 b 522 314 539 307 532 314 z m 249 269 b 229 250 239 269 229 261 b 249 235 229 242 239 235 b 264 250 258 235 264 242 b 249 269 264 261 258 269 z m 294 269 b 276 250 285 269 276 261 b 294 235 276 242 285 235 b 310 250 301 235 310 242 b 294 269 310 261 301 269 z m 386 269 b 368 250 376 269 368 261 b 386 235 368 242 376 235 b 403 250 396 235 403 242 b 386 269 403 261 396 269 z m 431 269 b 413 250 421 269 413 261 b 431 235 413 242 421 235 b 447 250 439 235 447 242 b 431 269 447 261 439 269 z m 249 222 b 229 207 239 222 229 215 b 249 189 229 197 239 189 b 264 207 258 189 264 197 b 249 222 264 215 258 222 z m 294 222 b 276 207 285 222 276 215 b 294 189 276 197 285 189 b 310 207 301 189 310 197 b 294 222 310 215 301 222 z m 386 222 b 368 207 376 222 368 215 b 386 189 368 197 376 189 b 403 207 396 189 403 197 b 386 222 403 215 396 222 z m 431 222 b 413 207 421 222 413 215 b 431 189 413 197 421 189 b 447 207 439 189 447 197 b 431 222 447 215 439 222 z m 249 176 b 229 160 239 176 229 169 b 249 142 229 150 239 142 b 264 160 258 142 264 150 b 249 176 264 169 258 176 z m 294 176 b 276 160 285 176 276 169 b 294 142 276 150 285 142 b 310 160 301 142 310 150 b 294 176 310 169 301 176 z m 386 176 b 368 160 376 176 368 169 b 386 142 368 150 376 142 b 403 160 396 142 403 150 b 386 176 403 169 396 176 z m 431 176 b 413 160 421 176 413 169 b 431 142 413 150 421 142 b 447 160 439 142 447 150 b 431 176 447 169 439 176 z m 156 132 b 139 114 147 132 139 124 b 156 99 139 104 147 99 b 174 114 165 99 174 104 b 156 132 174 124 165 132 z m 200 132 b 186 114 192 132 186 124 b 200 99 186 104 192 99 b 218 114 211 99 218 104 b 200 132 218 124 211 132 z m 249 132 b 229 114 239 132 229 124 b 249 99 229 104 239 99 b 264 114 258 99 264 104 b 249 132 264 124 258 132 z m 294 132 b 276 114 285 132 276 124 b 294 99 276 104 285 99 b 310 114 301 99 310 104 b 294 132 310 124 301 132 z m 386 132 b 368 114 376 132 368 124 b 386 99 368 104 376 99 b 403 114 396 99 403 104 b 386 132 403 124 396 132 z m 431 132 b 413 114 421 132 413 124 b 431 99 413 104 421 99 b 447 114 439 99 447 104 b 431 132 447 124 439 132 z m 476 132 b 460 114 468 132 460 124 b 476 99 460 104 468 99 b 493 114 486 99 493 104 b 476 132 493 124 486 132 z m 522 132 b 506 114 513 132 506 124 b 522 99 506 104 513 99 b 539 114 532 99 539 104 b 522 132 539 124 532 132 z m 156 86 b 139 69 147 86 139 78 b 156 51 139 60 147 51 b 174 69 165 51 174 60 b 156 86 174 78 165 86 z m 200 86 b 186 69 192 86 186 78 b 200 51 186 60 192 51 b 218 69 211 51 218 60 b 200 86 218 78 211 86 z m 249 86 b 229 69 239 86 229 78 b 249 51 229 60 239 51 b 264 69 258 51 264 60 b 249 86 264 78 258 86 z m 294 86 b 276 69 285 86 276 78 b 294 51 276 60 285 51 b 310 69 301 51 310 60 b 294 86 310 78 301 86 z m 386 86 b 368 69 376 86 368 78 b 386 51 368 60 376 51 b 403 69 396 51 403 60 b 386 86 403 78 396 86 z m 431 86 b 413 69 421 86 413 78 b 431 51 413 60 421 51 b 447 69 439 51 447 60 b 431 86 447 78 439 86 z m 476 86 b 460 69 468 86 460 78 b 476 51 460 60 468 51 b 493 69 486 51 493 60 b 476 86 493 78 486 86 z m 522 86 b 506 69 513 86 506 78 b 522 51 506 60 513 51 b 539 69 532 51 539 60 b 522 86 539 78 532 86 z "},"ꁔ":{"ha":1379,"x_min":0,"x_max":0,"o":"m 649 819 b 717 889 686 819 717 853 l 744 889 b 649 981 743 936 704 981 b 553 889 593 981 553 936 l 581 889 b 649 819 582 853 611 819 z m 900 564 l 725 825 l 625 750 l 481 597 l 525 549 l 664 686 l 735 572 l 578 508 l 606 367 l 679 382 l 661 471 l 778 503 l 619 203 l 676 169 z m 517 247 l 588 247 b 364 449 575 361 479 449 b 139 247 247 449 151 361 l 211 247 b 364 379 221 322 286 379 b 517 247 440 379 506 322 z m 1169 247 l 1240 247 b 1017 449 1228 361 1132 449 b 792 247 900 449 804 361 l 864 247 b 1017 379 874 322 939 379 b 1169 247 1093 379 1158 322 z m 588 206 l 518 206 b 364 69 507 129 440 69 b 210 206 285 69 219 129 l 139 206 b 364 0 150 90 246 0 b 588 206 481 0 578 90 z m 1240 206 l 1171 206 b 1017 69 1160 129 1093 69 b 863 206 938 69 872 129 l 792 206 b 1017 0 803 90 899 0 b 1240 206 1133 0 1231 90 z "},"ꁐ":{"ha":1613,"x_min":0,"x_max":0,"o":"m 1094 871 b 715 832 1013 871 813 832 b 536 826 715 832 560 826 b 449 876 465 826 449 876 b 453 921 450 888 453 900 b 397 975 453 946 428 975 b 350 938 371 975 350 961 b 353 917 350 921 353 917 l 329 917 b 251 897 296 917 251 897 l 239 913 b 189 935 239 913 215 935 b 139 879 164 935 139 918 b 182 821 139 842 182 821 b 168 744 182 821 169 808 b 172 699 168 726 169 708 b 208 744 185 719 208 744 b 288 715 222 760 288 742 b 260 638 288 686 281 656 b 221 617 247 626 232 622 b 260 586 228 604 247 593 b 386 535 306 564 368 556 b 476 483 407 507 450 483 b 581 617 547 483 574 617 b 590 554 588 617 590 593 b 488 401 590 500 532 401 b 440 424 474 401 460 404 b 453 363 449 397 449 381 b 447 257 457 346 454 300 b 435 129 440 211 438 142 b 372 69 432 106 421 78 b 354 49 361 68 354 57 b 381 24 354 40 367 24 b 499 39 408 24 440 29 b 529 82 519 43 521 57 b 592 306 531 86 593 306 b 629 401 610 357 618 401 b 651 331 640 401 636 397 b 699 107 669 242 699 131 b 653 53 699 96 696 61 b 614 21 617 47 614 35 b 664 0 614 6 647 0 b 749 13 699 0 717 6 b 792 78 786 21 792 36 b 842 372 792 207 842 372 b 1024 365 939 357 960 349 b 1078 169 1033 350 1078 189 b 1049 125 1078 153 1082 132 b 1011 74 1015 117 1007 88 b 1082 61 1015 60 1044 58 b 1194 78 1117 64 1179 72 b 1213 125 1217 86 1214 110 b 1217 238 1213 183 1213 219 b 1235 328 1219 250 1229 303 l 1251 324 b 1328 192 1261 319 1317 219 b 1331 132 1344 151 1349 147 b 1279 110 1315 119 1310 119 b 1240 58 1261 103 1240 82 b 1326 39 1240 40 1267 32 b 1474 97 1460 51 1475 60 b 1471 233 1474 104 1474 157 b 1403 690 1464 399 1469 578 b 1294 792 1379 728 1331 771 b 1094 871 1239 828 1153 871 z m 308 758 b 289 769 299 756 290 761 b 303 792 286 776 290 789 b 324 779 313 794 321 786 b 308 758 325 771 318 761 z m 194 756 b 186 746 193 749 189 744 b 181 760 182 746 179 753 b 189 771 182 765 185 771 b 194 756 193 769 196 763 z m 158 674 b 194 624 158 649 178 624 b 221 675 203 624 226 661 b 158 674 214 689 158 689 z "},"ꁑ":{"ha":992,"x_min":0,"x_max":0,"o":"m 671 817 b 749 894 715 817 749 851 b 671 972 749 938 715 972 b 593 894 628 972 593 938 b 671 817 593 851 628 817 z m 786 789 l 576 789 b 526 767 551 789 536 778 l 428 657 l 318 657 b 279 618 296 657 279 639 b 318 579 279 596 296 579 l 446 579 b 476 592 457 579 468 582 l 574 701 l 574 39 b 613 0 574 18 592 0 b 651 39 636 0 651 18 l 651 428 l 679 428 l 679 39 b 718 0 679 18 697 0 b 761 35 742 0 757 18 l 761 711 l 789 711 l 789 471 b 821 432 789 449 799 432 b 853 471 844 432 853 449 l 853 724 b 786 789 853 763 824 789 z m 324 507 l 275 539 l 244 490 l 293 458 z m 392 408 l 363 458 l 313 432 l 342 379 z m 383 78 l 283 78 l 197 408 l 139 408 l 240 19 l 426 19 l 528 408 l 469 408 z m 275 292 l 333 292 l 333 350 l 275 350 z "},"ꀍ":{"ha":596,"x_min":0,"x_max":0,"o":"m 351 975 l 331 975 l 325 1000 l 315 1000 l 315 1025 l 307 1025 l 307 1111 l 288 1111 l 288 1025 l 281 1025 l 281 1000 l 271 1000 l 264 975 l 244 975 l 244 915 l 351 915 z m 326 888 l 326 860 l 269 860 l 269 888 l 174 888 l 201 779 l 394 779 l 422 888 z m 326 751 l 326 724 l 269 724 l 269 751 l 174 751 l 201 642 l 394 642 l 422 751 z m 326 614 l 326 588 l 269 588 l 269 614 l 174 614 l 201 507 l 394 507 l 422 614 z m 326 479 l 326 451 l 269 451 l 269 479 l 174 479 l 201 371 l 394 371 l 422 479 z m 174 343 l 201 235 l 257 235 b 297 264 263 251 278 264 b 338 235 317 264 332 251 l 394 235 l 422 343 l 326 343 l 326 317 l 269 317 l 269 343 z m 139 0 l 457 0 l 394 207 l 338 207 b 297 178 332 190 317 178 b 257 207 278 178 263 190 l 201 207 z "},"ꀎ":{"ha":1739,"x_min":0,"x_max":0,"o":"m 585 569 b 693 646 633 569 675 600 l 1060 646 b 1129 576 1076 611 1100 588 b 1213 579 1178 560 1211 578 l 1201 604 b 1136 604 1201 604 1176 589 b 1088 660 1115 613 1094 638 l 1088 697 l 1060 697 l 1060 669 l 693 669 l 693 697 l 665 697 l 665 660 b 575 597 665 628 621 597 b 550 603 557 597 550 603 l 536 578 b 585 569 536 578 551 569 z m 1043 618 l 708 618 b 565 554 661 528 565 554 b 640 525 565 554 593 525 l 1114 525 b 1175 553 1163 525 1175 553 b 1043 618 1175 553 1085 531 z m 1114 397 l 1114 497 l 640 497 l 640 397 l 704 397 l 704 469 l 806 469 l 806 397 l 833 397 l 833 469 l 925 469 l 925 397 l 953 397 l 953 469 l 1054 469 l 1054 397 z m 653 103 l 654 107 b 657 135 657 115 657 125 b 610 215 657 167 639 197 l 607 217 l 607 221 b 610 242 608 228 610 235 b 511 356 610 299 567 347 l 507 356 l 508 361 l 508 369 b 414 463 508 419 465 463 b 325 399 372 463 338 436 l 324 394 l 321 394 b 206 265 254 388 206 333 l 206 242 l 207 239 l 204 236 b 157 156 175 219 157 188 b 169 111 157 139 161 125 l 171 107 l 168 104 b 139 38 150 86 139 63 b 146 1 139 26 142 17 l 656 1 b 668 53 664 21 668 36 b 654 101 668 71 664 86 z m 1551 135 l 1547 136 l 1549 140 b 1550 160 1550 147 1550 154 b 1517 229 1550 188 1538 213 l 1514 232 l 1514 235 b 1517 256 1517 242 1517 249 b 1440 343 1517 300 1485 339 l 1438 343 l 1436 347 b 1354 399 1422 378 1390 399 b 1275 346 1319 399 1288 378 l 1274 343 l 1271 343 b 1203 246 1231 329 1203 289 l 1203 233 l 1203 226 l 1197 225 b 1115 147 1151 222 1115 193 b 1122 117 1115 138 1118 128 l 1122 113 l 1119 110 b 1072 32 1090 94 1072 64 b 1076 1 1072 24 1074 15 l 1583 1 b 1600 56 1594 21 1600 38 b 1551 135 1600 89 1581 119 z m 1254 367 b 1256 369 1256 367 1256 368 l 558 369 b 638 256 601 347 632 304 l 1176 256 b 1254 367 1179 304 1211 347 z m 1092 124 b 1088 147 1089 132 1088 139 b 1121 222 1088 176 1100 204 b 1131 231 1124 225 1128 228 l 638 231 b 669 194 650 221 661 208 b 685 135 679 176 685 156 l 685 115 b 878 158 743 143 808 158 b 1078 113 950 158 1017 142 b 1092 124 1082 117 1086 121 z m 1046 40 l 696 40 b 686 0 694 28 692 15 l 1049 0 b 1044 32 1046 14 1044 22 b 1046 40 1044 35 1046 38 z "},"ꀌ":{"ha":1726,"x_min":0,"x_max":0,"o":"m 988 940 l 988 911 l 742 911 l 742 940 l 810 940 l 851 1000 l 851 1104 l 879 1104 b 953 1103 903 1128 928 1078 l 953 1036 b 879 1036 928 1010 903 1064 l 879 1000 l 919 940 z m 785 886 l 785 750 l 742 750 l 742 886 z m 919 886 l 919 750 l 810 750 l 810 886 z m 988 886 l 988 750 l 943 750 l 943 886 z m 885 779 l 885 833 b 864 854 885 844 875 854 b 843 833 853 854 843 844 l 843 779 z m 785 725 l 785 693 l 761 693 l 742 725 z m 919 725 l 919 693 l 810 693 l 810 725 z m 988 725 l 968 693 l 943 693 l 943 725 z m 968 667 l 968 394 l 910 394 l 894 417 l 835 417 l 818 394 l 761 394 l 761 667 z m 885 569 l 885 621 l 843 621 l 843 569 z m 885 468 l 885 519 l 843 519 l 843 468 z m 363 424 l 363 317 l 286 372 l 208 317 l 208 424 l 235 424 l 286 456 l 336 424 z m 1364 424 l 1390 424 l 1440 456 l 1492 424 l 1518 424 l 1518 317 l 1440 372 l 1364 317 z m 733 407 l 733 204 l 688 204 l 688 -28 l 640 -28 l 640 407 z m 1088 407 l 1088 -28 l 1042 -28 l 1042 204 l 996 204 l 996 407 z m 968 368 l 968 204 l 761 204 l 761 368 l 826 368 l 843 392 l 886 392 l 903 368 z m 181 368 l 181 315 l 139 315 l 139 368 z m 613 368 l 613 315 l 390 315 l 390 368 z m 1336 368 l 1336 315 l 1115 315 l 1115 368 z m 1546 368 l 1588 368 l 1588 315 l 1546 315 z m 894 238 l 894 297 b 864 326 894 313 881 326 b 835 297 847 326 835 313 l 835 238 z m 181 288 l 181 0 l 139 0 l 139 288 z m 363 288 l 363 0 l 208 0 l 208 288 z m 613 288 l 613 0 l 390 0 l 390 288 z m 1336 288 l 1336 0 l 1115 0 l 1115 288 z m 1364 288 l 1518 288 l 1518 0 l 1364 0 z m 1546 288 l 1588 288 l 1588 0 l 1546 0 z m 304 179 l 304 251 l 265 251 l 265 179 z m 1422 179 l 1461 179 l 1461 251 l 1422 251 z m 479 161 l 479 197 b 451 225 479 213 467 225 b 425 197 436 225 425 213 l 425 161 z m 578 161 l 578 197 b 550 225 578 213 565 225 b 524 197 535 225 524 213 l 524 161 z m 1204 161 l 1204 197 b 1176 225 1204 213 1192 225 b 1150 197 1161 225 1150 213 l 1150 161 z m 1301 161 l 1301 197 b 1274 225 1301 213 1289 225 b 1247 197 1258 225 1247 213 l 1247 161 z m 1013 176 l 1013 -28 l 913 -28 l 913 78 b 864 126 913 104 892 126 b 817 78 838 126 817 104 l 817 -28 l 715 -28 l 715 176 z m 304 60 l 304 132 l 265 132 l 265 60 z m 1422 60 l 1461 60 l 1461 132 l 1422 132 z m 479 24 l 479 117 l 425 117 l 425 24 z m 578 24 l 578 117 l 524 117 l 524 24 z m 1204 24 l 1204 117 l 1150 117 l 1150 24 z m 1301 24 l 1301 117 l 1247 117 l 1247 24 z "},"ꀕ":{"ha":1683,"x_min":0,"x_max":0,"o":"m 207 782 l 1476 782 b 1481 785 1479 782 1481 783 l 1481 807 b 1476 810 1481 808 1479 810 b 1388 921 1432 810 1388 868 b 1383 924 1388 922 1386 924 l 300 924 b 296 919 297 924 296 922 b 207 810 296 867 251 810 b 203 806 204 810 203 808 l 203 786 b 207 782 203 783 204 782 z m 1540 686 b 1450 750 1490 686 1450 706 b 1446 754 1450 753 1449 754 l 232 754 b 143 686 232 707 193 686 b 139 681 140 686 139 683 l 139 663 b 143 658 139 661 140 658 l 1540 658 b 1544 663 1543 658 1544 661 l 1544 681 b 1540 686 1544 683 1543 686 z m 1433 632 l 249 632 b 246 628 247 632 246 629 l 246 4 b 249 0 246 3 247 0 l 490 0 l 490 28 l 539 28 l 539 76 l 439 76 l 439 153 b 457 185 439 167 446 178 l 457 269 l 439 269 l 439 346 b 479 385 439 367 457 385 b 521 346 503 385 521 367 l 521 286 b 556 322 542 290 556 301 l 556 332 l 572 332 l 572 346 b 614 385 572 368 592 385 b 654 346 636 385 654 368 l 654 332 l 717 332 l 717 375 l 964 375 l 964 332 l 1029 332 l 1029 346 b 1069 385 1029 368 1047 385 b 1111 346 1092 385 1111 368 l 1111 332 l 1128 332 l 1128 324 b 1163 285 1128 303 1142 289 l 1163 346 b 1204 385 1163 367 1181 385 b 1244 346 1226 385 1244 367 l 1244 269 l 1218 269 l 1218 189 b 1244 153 1233 183 1244 169 l 1244 76 l 1144 76 l 1144 28 l 1190 28 l 1190 0 l 1433 0 b 1438 1 1435 0 1436 1 l 1438 4 l 1438 628 b 1433 632 1438 629 1436 632 z m 386 460 l 304 460 l 304 536 b 346 575 304 557 324 575 b 386 536 368 575 386 557 z m 521 460 l 439 460 l 439 536 b 479 575 439 557 457 575 b 521 536 503 575 521 557 z m 654 460 l 572 460 l 572 536 b 614 575 572 557 592 575 b 654 536 636 575 654 557 z m 1111 460 l 1029 460 l 1029 536 b 1069 575 1029 557 1047 575 b 1111 536 1092 575 1111 557 z m 1244 460 l 1163 460 l 1163 536 b 1204 575 1163 557 1181 575 b 1244 536 1226 575 1244 557 z m 1378 460 l 1296 460 l 1296 536 b 1338 575 1296 557 1315 575 b 1378 536 1360 575 1378 557 z m 964 460 l 717 460 l 717 567 l 964 567 z m 386 269 l 304 269 l 304 346 b 346 385 304 367 324 385 b 386 346 368 385 386 367 z m 1378 269 l 1296 269 l 1296 346 b 1338 385 1296 367 1315 385 b 1378 346 1360 385 1378 367 z m 1163 -28 l 1163 0 l 1117 0 l 1117 147 l 1197 147 l 1197 175 b 1121 224 1164 175 1133 190 l 1197 224 l 1197 251 b 1104 313 1154 251 1104 268 l 579 313 b 485 251 579 268 528 251 l 485 224 l 561 224 b 485 175 550 190 519 175 l 485 147 l 567 147 l 567 0 l 518 0 l 518 -28 l 481 -28 l 481 -57 l 1200 -57 l 1200 -28 z m 386 76 l 304 76 l 304 153 b 346 192 304 174 324 192 b 386 153 368 192 386 174 z m 1378 76 l 1296 76 l 1296 153 b 1338 192 1296 174 1315 192 b 1378 153 1360 192 1378 174 z m 610 61 b 672 125 610 97 638 125 b 735 61 707 125 735 97 l 735 0 l 610 0 z m 842 125 b 904 61 876 125 904 97 l 904 0 l 779 0 l 779 61 b 842 125 779 97 807 125 z m 1011 125 b 1074 61 1046 125 1074 97 l 1074 0 l 949 0 l 949 61 b 1011 125 949 97 976 125 z "}," ":{"ha":833,"x_min":0,"x_max":0,"o":""}}}
